{
.appVersion = "983";
copyright = "Copyright 2016 Google Inc. All Rights Reserved.";
customParameters = (
{
name = description;
value = "Designed by Monotype design team.";
},
{
name = license;
value = "This Font Software is licensed under the SIL Open Font License, Version 1.1. This Font Software is distributed on an \"AS IS\" BASIS, WITHOUT WARRANTIES OR CONDITIONS OF ANY KIND, either express or implied. See the SIL Open Font License for the specific language, permissions and limitations governing your use of this Font Software.";
},
{
name = licenseURL;
value = "http://scripts.sil.org/OFL";
},
{
name = vendorID;
value = GOOG;
},
{
name = trademark;
value = "Noto is a trademark of Google Inc.";
},
{
name = fsType;
value = (
);
},
{
name = panose;
value = (
2,
11,
5,
2,
4,
5,
4,
2,
2,
4
);
},
{
name = unicodeRanges;
value = (
57
);
},
{
name = codePageRanges;
value = (
1252
);
}
);
date = "2016-11-10 14:10:08 +0000";
designer = "Monotype Design Team";
designerURL = "http://www.monotype.com/studio";
disablesNiceNames = 1;
familyName = "Noto Sans Brahmi";
features = (
{

glyphs = (
{
glyphname = .notdef;
lastChange = "2016-11-10 14:09:55 +0000";
layers = (
{
layerId = "614620BD-4CC0-4507-9D91-582C8BAD68CE";
paths = (
{
closed = 1;
nodes = (
"897 0 LINE",
"897 1638 LINE",
"129 1638 LINE",
"129 0 LINE"
);
},
{
closed = 1;
nodes = (
"256 1511 LINE",
"768 1511 LINE",
"768 129 LINE",
"256 129 LINE"
);
}
);
width = 1024;
}
);
note = .notdef;
},
{
glyphname = g4;
lastChange = "2016-11-10 14:09:55 +0000";
layers = (
{
layerId = "614620BD-4CC0-4507-9D91-582C8BAD68CE";
paths = (
{
closed = 1;
nodes = (
"226 984 OFFCURVE",
"274 1038 OFFCURVE",
"274 1123 CURVE SMOOTH",
"274 1212 OFFCURVE",
"229 1262 OFFCURVE",
"145 1262 CURVE SMOOTH",
"62 1262 OFFCURVE",
"20 1211 OFFCURVE",
"20 1123 CURVE SMOOTH",
"20 1036 OFFCURVE",
"66 984 OFFCURVE",
"145 984 CURVE SMOOTH"
);
}
);
width = 374;
}
);
note = g4;
},
{
glyphname = g5;
lastChange = "2016-11-10 14:09:55 +0000";
layers = (
{
layerId = "614620BD-4CC0-4507-9D91-582C8BAD68CE";
paths = (
{
closed = 1;
nodes = (
"226 1620 OFFCURVE",
"274 1674 OFFCURVE",
"274 1759 CURVE SMOOTH",
"274 1848 OFFCURVE",
"229 1898 OFFCURVE",
"145 1898 CURVE SMOOTH",
"62 1898 OFFCURVE",
"20 1847 OFFCURVE",
"20 1759 CURVE SMOOTH",
"20 1672 OFFCURVE",
"66 1620 OFFCURVE",
"145 1620 CURVE SMOOTH"
);
}
);
width = 294;
}
);
note = g5;
},
{
glyphname = g6;
lastChange = "2016-11-10 14:09:55 +0000";
layers = (
{
layerId = "614620BD-4CC0-4507-9D91-582C8BAD68CE";
paths = (
{
closed = 1;
nodes = (
"226 984 OFFCURVE",
"274 1038 OFFCURVE",
"274 1123 CURVE SMOOTH",
"274 1212 OFFCURVE",
"229 1262 OFFCURVE",
"145 1262 CURVE SMOOTH",
"62 1262 OFFCURVE",
"20 1211 OFFCURVE",
"20 1123 CURVE SMOOTH",
"20 1036 OFFCURVE",
"66 984 OFFCURVE",
"145 984 CURVE SMOOTH"
);
},
{
closed = 1;
nodes = (
"226 -29 OFFCURVE",
"274 24 OFFCURVE",
"274 111 CURVE SMOOTH",
"274 199 OFFCURVE",
"226 248 OFFCURVE",
"145 248 CURVE SMOOTH",
"65 248 OFFCURVE",
"20 199 OFFCURVE",
"20 111 CURVE SMOOTH",
"20 23 OFFCURVE",
"66 -29 OFFCURVE",
"145 -29 CURVE SMOOTH"
);
}
);
width = 294;
}
);
note = g6;
},
{
glyphname = g7;
lastChange = "2016-11-10 14:09:55 +0000";
layers = (
{
layerId = "614620BD-4CC0-4507-9D91-582C8BAD68CE";
paths = (
{
closed = 1;
nodes = (
"1070 0 LINE",
"670 599 LINE",
"1049 1172 LINE",
"78 1172 LINE",
"457 599 LINE",
"60 0 LINE"
);
},
{
closed = 1;
nodes = (
"566 476 LINE",
"767 156 LINE",
"362 156 LINE"
);
},
{
closed = 1;
nodes = (
"381 1016 LINE",
"749 1016 LINE",
"566 722 LINE"
);
}
);
width = 1130;
}
);
note = g7;
},
{
glyphname = g8;
lastChange = "2016-11-10 14:09:55 +0000";
layers = (
{
layerId = "614620BD-4CC0-4507-9D91-582C8BAD68CE";
paths = (
{
closed = 1;
nodes = (
"1046 -24 OFFCURVE",
"1248 205 OFFCURVE",
"1248 588 CURVE SMOOTH",
"1248 711 OFFCURVE",
"1226 818 OFFCURVE",
"1182 911 CURVE SMOOTH",
"1093 1095 OFFCURVE",
"923 1196 OFFCURVE",
"707 1196 CURVE SMOOTH",
"363 1196 OFFCURVE",
"160 969 OFFCURVE",
"160 588 CURVE SMOOTH",
"160 463 OFFCURVE",
"182 355 OFFCURVE",
"227 263 CURVE SMOOTH",
"316 79 OFFCURVE",
"486 -24 OFFCURVE",
"699 -24 CURVE SMOOTH"
);
},
{
closed = 1;
nodes = (
"631 138 OFFCURVE",
"568 154 OFFCURVE",
"517 185 CURVE",
"706 460 LINE",
"892 186 LINE",
"838 154 OFFCURVE",
"776 138 OFFCURVE",
"705 138 CURVE SMOOTH"
);
},
{
closed = 1;
nodes = (
"363 380 OFFCURVE",
"344 473 OFFCURVE",
"344 588 CURVE SMOOTH",
"344 701 OFFCURVE",
"362 792 OFFCURVE",
"399 863 CURVE",
"597 583 LINE",
"402 307 LINE"
);
},
{
closed = 1;
nodes = (
"810 583 LINE",
"1007 862 LINE",
"1045 790 OFFCURVE",
"1064 699 OFFCURVE",
"1064 588 CURVE SMOOTH",
"1064 475 OFFCURVE",
"1044 382 OFFCURVE",
"1005 309 CURVE"
);
},
{
closed = 1;
nodes = (
"513 987 LINE",
"565 1018 OFFCURVE",
"628 1034 OFFCURVE",
"701 1034 CURVE SMOOTH",
"777 1034 OFFCURVE",
"842 1017 OFFCURVE",
"895 984 CURVE",
"706 706 LINE"
);
}
);
width = 1408;
}
);
note = g8;
},
{
glyphname = g9;
lastChange = "2016-11-10 14:09:55 +0000";
layers = (
{
layerId = "614620BD-4CC0-4507-9D91-582C8BAD68CE";
paths = (
{
closed = 1;
nodes = (
"344 0 LINE",
"344 128 LINE SMOOTH",
"344 224 OFFCURVE",
"364 313 OFFCURVE",
"405 395 CURVE SMOOTH",
"485 559 OFFCURVE",
"638 659 OFFCURVE",
"813 659 CURVE SMOOTH",
"830 659 LINE",
"830 0 LINE",
"1014 0 LINE",
"1014 1462 LINE",
"830 1462 LINE",
"830 815 LINE",
"793 815 LINE SMOOTH",
"533 815 OFFCURVE",
"364 971 OFFCURVE",
"364 1214 CURVE SMOOTH",
"364 1462 LINE",
"180 1462 LINE",
"180 1210 LINE SMOOTH",
"180 993 OFFCURVE",
"287 810 OFFCURVE",
"470 721 CURVE",
"281 602 OFFCURVE",
"160 376 OFFCURVE",
"160 132 CURVE SMOOTH",
"160 0 LINE"
);
}
);
width = 1214;
}
);
note = g9;
},
{
glyphname = g10;
lastChange = "2016-11-10 14:09:55 +0000";
layers = (
{
layerId = "614620BD-4CC0-4507-9D91-582C8BAD68CE";
paths = (
{
closed = 1;
nodes = (
"344 0 LINE",
"344 128 LINE SMOOTH",
"344 224 OFFCURVE",
"364 313 OFFCURVE",
"405 395 CURVE SMOOTH",
"485 559 OFFCURVE",
"638 659 OFFCURVE",
"813 659 CURVE SMOOTH",
"830 659 LINE",
"830 0 LINE",
"1014 0 LINE",
"1014 659 LINE",
"1264 659 LINE",
"1264 815 LINE",
"1014 815 LINE",
"1014 1462 LINE",
"830 1462 LINE",
"830 815 LINE",
"793 815 LINE SMOOTH",
"533 815 OFFCURVE",
"364 971 OFFCURVE",
"364 1214 CURVE SMOOTH",
"364 1462 LINE",
"180 1462 LINE",
"180 1210 LINE SMOOTH",
"180 993 OFFCURVE",
"287 810 OFFCURVE",
"470 721 CURVE",
"281 602 OFFCURVE",
"160 376 OFFCURVE",
"160 132 CURVE SMOOTH",
"160 0 LINE"
);
}
);
width = 1304;
}
);
note = g10;
},
{
glyphname = g11;
lastChange = "2016-11-10 14:09:55 +0000";
layers = (
{
layerId = "614620BD-4CC0-4507-9D91-582C8BAD68CE";
paths = (
{
closed = 1;
nodes = (
"406 984 OFFCURVE",
"454 1038 OFFCURVE",
"454 1123 CURVE SMOOTH",
"454 1212 OFFCURVE",
"409 1262 OFFCURVE",
"325 1262 CURVE SMOOTH",
"242 1262 OFFCURVE",
"200 1211 OFFCURVE",
"200 1123 CURVE SMOOTH",
"200 1036 OFFCURVE",
"246 984 OFFCURVE",
"325 984 CURVE SMOOTH"
);
},
{
closed = 1;
nodes = (
"406 -29 OFFCURVE",
"454 24 OFFCURVE",
"454 111 CURVE SMOOTH",
"454 199 OFFCURVE",
"406 248 OFFCURVE",
"325 248 CURVE SMOOTH",
"245 248 OFFCURVE",
"200 199 OFFCURVE",
"200 111 CURVE SMOOTH",
"200 23 OFFCURVE",
"246 -29 OFFCURVE",
"325 -29 CURVE SMOOTH"
);
},
{
closed = 1;
nodes = (
"866 477 OFFCURVE",
"914 531 OFFCURVE",
"914 616 CURVE SMOOTH",
"914 705 OFFCURVE",
"869 755 OFFCURVE",
"785 755 CURVE SMOOTH",
"702 755 OFFCURVE",
"660 704 OFFCURVE",
"660 616 CURVE SMOOTH",
"660 529 OFFCURVE",
"706 477 OFFCURVE",
"785 477 CURVE SMOOTH"
);
}
);
width = 1114;
}
);
note = g11;
},
{
glyphname = g12;
lastChange = "2016-11-10 14:09:55 +0000";
layers = (
{
layerId = "614620BD-4CC0-4507-9D91-582C8BAD68CE";
paths = (
{
closed = 1;
nodes = (
"1056 1004 OFFCURVE",
"1104 1058 OFFCURVE",
"1104 1143 CURVE SMOOTH",
"1104 1232 OFFCURVE",
"1059 1282 OFFCURVE",
"975 1282 CURVE SMOOTH",
"892 1282 OFFCURVE",
"850 1231 OFFCURVE",
"850 1143 CURVE SMOOTH",
"850 1056 OFFCURVE",
"896 1004 OFFCURVE",
"975 1004 CURVE SMOOTH"
);
},
{
closed = 1;
nodes = (
"406 -29 OFFCURVE",
"454 24 OFFCURVE",
"454 111 CURVE SMOOTH",
"454 199 OFFCURVE",
"406 248 OFFCURVE",
"325 248 CURVE SMOOTH",
"245 248 OFFCURVE",
"200 199 OFFCURVE",
"200 111 CURVE SMOOTH",
"200 23 OFFCURVE",
"246 -29 OFFCURVE",
"325 -29 CURVE SMOOTH"
);
},
{
closed = 1;
nodes = (
"1056 -29 OFFCURVE",
"1104 24 OFFCURVE",
"1104 111 CURVE SMOOTH",
"1104 199 OFFCURVE",
"1056 248 OFFCURVE",
"975 248 CURVE SMOOTH",
"895 248 OFFCURVE",
"850 199 OFFCURVE",
"850 111 CURVE SMOOTH",
"850 23 OFFCURVE",
"896 -29 OFFCURVE",
"975 -29 CURVE SMOOTH"
);
},
{
closed = 1;
nodes = (
"406 1004 OFFCURVE",
"454 1058 OFFCURVE",
"454 1143 CURVE SMOOTH",
"454 1232 OFFCURVE",
"409 1282 OFFCURVE",
"325 1282 CURVE SMOOTH",
"242 1282 OFFCURVE",
"200 1231 OFFCURVE",
"200 1143 CURVE SMOOTH",
"200 1056 OFFCURVE",
"246 1004 OFFCURVE",
"325 1004 CURVE SMOOTH"
);
}
);
width = 1304;
}
);
note = g12;
},
{
glyphname = g13;
lastChange = "2016-11-10 14:09:55 +0000";
layers = (
{
layerId = "614620BD-4CC0-4507-9D91-582C8BAD68CE";
paths = (
{
closed = 1;
nodes = (
"923 0 LINE",
"923 164 LINE",
"384 164 LINE",
"384 1462 LINE",
"200 1462 LINE",
"200 0 LINE"
);
}
);
width = 1023;
}
);
note = g13;
},
{
glyphname = g14;
lastChange = "2016-11-10 14:09:55 +0000";
layers = (
{
layerId = "614620BD-4CC0-4507-9D91-582C8BAD68CE";
paths = (
{
closed = 1;
nodes = (
"923 0 LINE",
"923 164 LINE",
"384 164 LINE",
"384 390 LINE",
"923 390 LINE",
"923 554 LINE",
"384 554 LINE",
"384 1462 LINE",
"200 1462 LINE",
"200 0 LINE"
);
}
);
width = 1023;
}
);
note = g14;
},
{
glyphname = g15;
lastChange = "2016-11-10 14:09:55 +0000";
layers = (
{
layerId = "614620BD-4CC0-4507-9D91-582C8BAD68CE";
paths = (
{
closed = 1;
nodes = (
"323 0 LINE",
"626 476 LINE",
"925 0 LINE",
"1130 0 LINE",
"730 599 LINE",
"1109 1172 LINE",
"906 1172 LINE",
"626 722 LINE",
"343 1172 LINE",
"138 1172 LINE",
"517 599 LINE",
"120 0 LINE"
);
}
);
width = 1250;
}
);
note = g15;
},
{
glyphname = g16;
lastChange = "2016-11-10 14:09:55 +0000";
layers = (
{
layerId = "614620BD-4CC0-4507-9D91-582C8BAD68CE";
paths = (
{
closed = 1;
nodes = (
"1200 -24 OFFCURVE",
"1284 21 OFFCURVE",
"1362 110 CURVE",
"1259 224 LINE",
"1220 180 OFFCURVE",
"1178 138 OFFCURVE",
"1115 138 CURVE SMOOTH",
"1058 138 OFFCURVE",
"1009 172 OFFCURVE",
"933 288 CURVE SMOOTH",
"730 599 LINE",
"1109 1172 LINE",
"906 1172 LINE",
"626 722 LINE",
"343 1172 LINE",
"138 1172 LINE",
"517 599 LINE",
"120 0 LINE",
"323 0 LINE",
"626 476 LINE",
"839 145 LINE SMOOTH",
"918 24 OFFCURVE",
"999 -24 OFFCURVE",
"1111 -24 CURVE SMOOTH"
);
}
);
width = 1392;
}
);
note = g16;
},
{
glyphname = g17;
lastChange = "2016-11-10 14:09:55 +0000";
layers = (
{
layerId = "614620BD-4CC0-4507-9D91-582C8BAD68CE";
paths = (
{
closed = 1;
nodes = (
"806 -30 OFFCURVE",
"906 35 OFFCURVE",
"1015 212 CURVE",
"868 293 LINE",
"832 243 LINE",
"783 169 OFFCURVE",
"727 132 OFFCURVE",
"664 132 CURVE SMOOTH",
"605 132 OFFCURVE",
"582 160 OFFCURVE",
"582 216 CURVE SMOOTH",
"582 247 OFFCURVE",
"593 280 OFFCURVE",
"614 315 CURVE SMOOTH",
"657 384 OFFCURVE",
"724 463 OFFCURVE",
"800 555 CURVE SMOOTH",
"945 730 OFFCURVE",
"1017 906 OFFCURVE",
"1017 1081 CURVE SMOOTH",
"1017 1329 OFFCURVE",
"856 1486 OFFCURVE",
"600 1486 CURVE SMOOTH",
"339 1486 OFFCURVE",
"160 1323 OFFCURVE",
"160 1072 CURVE SMOOTH",
"160 1023 OFFCURVE",
"166 977 OFFCURVE",
"178 935 CURVE",
"359 959 LINE",
"349 997 OFFCURVE",
"344 1037 OFFCURVE",
"344 1078 CURVE SMOOTH",
"344 1233 OFFCURVE",
"433 1314 OFFCURVE",
"597 1314 CURVE SMOOTH",
"736 1314 OFFCURVE",
"822 1215 OFFCURVE",
"822 1066 CURVE SMOOTH",
"822 901 OFFCURVE",
"749 742 OFFCURVE",
"610 578 CURVE SMOOTH",
"525 478 OFFCURVE",
"469 403 OFFCURVE",
"441 354 CURVE SMOOTH",
"412 305 OFFCURVE",
"398 258 OFFCURVE",
"398 213 CURVE SMOOTH",
"398 171 OFFCURVE",
"408 132 OFFCURVE",
"428 95 CURVE SMOOTH",
"468 21 OFFCURVE",
"541 -30 OFFCURVE",
"657 -30 CURVE SMOOTH"
);
}
);
width = 1177;
}
);
note = g17;
},
{
glyphname = g18;
lastChange = "2016-11-10 14:09:55 +0000";
layers = (
{
layerId = "614620BD-4CC0-4507-9D91-582C8BAD68CE";
paths = (
{
closed = 1;
nodes = (
"806 -30 OFFCURVE",
"906 35 OFFCURVE",
"1015 212 CURVE",
"868 293 LINE",
"832 243 LINE",
"783 169 OFFCURVE",
"727 132 OFFCURVE",
"664 132 CURVE SMOOTH",
"605 132 OFFCURVE",
"582 160 OFFCURVE",
"582 216 CURVE SMOOTH",
"582 243 OFFCURVE",
"590 272 OFFCURVE",
"607 302 CURVE SMOOTH",
"639 361 OFFCURVE",
"693 427 OFFCURVE",
"757 502 CURVE SMOOTH",
"789 539 OFFCURVE",
"820 580 OFFCURVE",
"851 623 CURVE",
"1079 458 LINE",
"1174 592 LINE",
"934 756 LINE",
"989 864 OFFCURVE",
"1017 972 OFFCURVE",
"1017 1081 CURVE SMOOTH",
"1017 1329 OFFCURVE",
"856 1486 OFFCURVE",
"600 1486 CURVE SMOOTH",
"339 1486 OFFCURVE",
"160 1323 OFFCURVE",
"160 1072 CURVE SMOOTH",
"160 1023 OFFCURVE",
"166 977 OFFCURVE",
"178 935 CURVE",
"359 959 LINE",
"349 997 OFFCURVE",
"344 1037 OFFCURVE",
"344 1078 CURVE SMOOTH",
"344 1233 OFFCURVE",
"433 1314 OFFCURVE",
"597 1314 CURVE SMOOTH",
"736 1314 OFFCURVE",
"822 1215 OFFCURVE",
"822 1066 CURVE SMOOTH",
"822 901 OFFCURVE",
"749 742 OFFCURVE",
"610 578 CURVE SMOOTH",
"525 478 OFFCURVE",
"469 403 OFFCURVE",
"441 354 CURVE SMOOTH",
"412 305 OFFCURVE",
"398 258 OFFCURVE",
"398 213 CURVE SMOOTH",
"398 171 OFFCURVE",
"408 132 OFFCURVE",
"428 95 CURVE SMOOTH",
"468 21 OFFCURVE",
"541 -30 OFFCURVE",
"657 -30 CURVE SMOOTH"
);
}
);
width = 1234;
}
);
note = g18;
},
{
glyphname = g19;
lastChange = "2016-11-10 14:09:55 +0000";
layers = (
{
layerId = "614620BD-4CC0-4507-9D91-582C8BAD68CE";
paths = (
{
closed = 1;
nodes = (
"1249 0 LINE",
"767 1472 LINE",
"582 1472 LINE",
"100 0 LINE"
);
},
{
closed = 1;
nodes = (
"674 1237 LINE",
"994 164 LINE",
"352 164 LINE"
);
}
);
width = 1349;
}
);
note = g19;
},
{
glyphname = g20;
lastChange = "2016-11-10 14:09:55 +0000";
layers = (
{
layerId = "614620BD-4CC0-4507-9D91-582C8BAD68CE";
paths = (
{
closed = 1;
nodes = (
"1249 0 LINE",
"767 1462 LINE",
"213 1462 LINE",
"213 1298 LINE",
"528 1298 LINE",
"100 0 LINE"
);
},
{
closed = 1;
nodes = (
"674 1227 LINE",
"994 164 LINE",
"352 164 LINE"
);
}
);
width = 1349;
}
);
note = g20;
},
{
glyphname = g21;
lastChange = "2016-11-10 14:09:55 +0000";
layers = (
{
layerId = "614620BD-4CC0-4507-9D91-582C8BAD68CE";
paths = (
{
closed = 1;
nodes = (
"1142 0 LINE",
"1142 164 LINE",
"603 164 LINE",
"603 1462 LINE",
"100 1462 LINE",
"100 1298 LINE",
"419 1298 LINE",
"419 0 LINE"
);
}
);
width = 1242;
}
);
note = g21;
},
{
glyphname = g22;
lastChange = "2016-11-10 14:09:55 +0000";
layers = (
{
layerId = "614620BD-4CC0-4507-9D91-582C8BAD68CE";
paths = (
{
closed = 1;
nodes = (
"1142 0 LINE",
"1142 164 LINE",
"603 164 LINE",
"603 390 LINE",
"1142 390 LINE",
"1142 554 LINE",
"603 554 LINE",
"603 1462 LINE",
"100 1462 LINE",
"100 1298 LINE",
"419 1298 LINE",
"419 0 LINE"
);
}
);
width = 1242;
}
);
note = g22;
},
{
glyphname = g23;
lastChange = "2016-11-10 14:09:55 +0000";
layers = (
{
layerId = "614620BD-4CC0-4507-9D91-582C8BAD68CE";
paths = (
{
closed = 1;
nodes = (
"864 0 LINE",
"864 682 LINE",
"1384 682 LINE",
"1384 844 LINE",
"864 844 LINE",
"864 1462 LINE",
"680 1462 LINE",
"680 844 LINE",
"160 844 LINE",
"160 682 LINE",
"680 682 LINE",
"680 0 LINE"
);
}
);
width = 1544;
}
);
note = g23;
},
{
glyphname = g24;
lastChange = "2016-11-10 14:09:55 +0000";
layers = (
{
layerId = "614620BD-4CC0-4507-9D91-582C8BAD68CE";
paths = (
{
closed = 1;
nodes = (
"1047 0 LINE",
"1047 946 LINE SMOOTH",
"1047 1085 OFFCURVE",
"1032 1192 OFFCURVE",
"1003 1266 CURVE SMOOTH",
"944 1414 OFFCURVE",
"821 1486 OFFCURVE",
"610 1486 CURVE SMOOTH",
"501 1486 OFFCURVE",
"414 1468 OFFCURVE",
"349 1431 CURVE SMOOTH",
"218 1358 OFFCURVE",
"160 1228 OFFCURVE",
"160 951 CURVE SMOOTH",
"160 945 LINE",
"344 945 LINE",
"344 951 LINE SMOOTH",
"344 1053 OFFCURVE",
"353 1128 OFFCURVE",
"370 1175 CURVE SMOOTH",
"404 1270 OFFCURVE",
"477 1314 OFFCURVE",
"609 1314 CURVE SMOOTH",
"740 1314 OFFCURVE",
"808 1273 OFFCURVE",
"840 1181 CURVE SMOOTH",
"855 1135 OFFCURVE",
"863 1059 OFFCURVE",
"863 952 CURVE SMOOTH",
"863 0 LINE"
);
}
);
width = 1247;
}
);
note = g24;
},
{
glyphname = g25;
lastChange = "2016-11-10 14:09:55 +0000";
layers = (
{
layerId = "614620BD-4CC0-4507-9D91-582C8BAD68CE";
paths = (
{
closed = 1;
nodes = (
"303 0 LINE",
"674 1227 LINE",
"1044 0 LINE",
"1249 0 LINE",
"767 1462 LINE",
"582 1462 LINE",
"100 0 LINE"
);
}
);
width = 1349;
}
);
note = g25;
},
{
glyphname = g26;
lastChange = "2016-11-10 14:09:55 +0000";
layers = (
{
layerId = "614620BD-4CC0-4507-9D91-582C8BAD68CE";
paths = (
{
closed = 1;
nodes = (
"856 -24 OFFCURVE",
"960 -7 OFFCURVE",
"1041 28 CURVE SMOOTH",
"1202 96 OFFCURVE",
"1278 228 OFFCURVE",
"1278 511 CURVE SMOOTH",
"1278 567 LINE",
"1094 567 LINE",
"1094 511 LINE SMOOTH",
"1094 422 OFFCURVE",
"1086 355 OFFCURVE",
"1069 308 CURVE SMOOTH",
"1036 214 OFFCURVE",
"967 168 OFFCURVE",
"831 153 CURVE",
"831 561 LINE",
"647 561 LINE",
"647 151 LINE",
"582 156 OFFCURVE",
"531 172 OFFCURVE",
"493 197 CURVE SMOOTH",
"416 247 OFFCURVE",
"384 331 OFFCURVE",
"384 510 CURVE SMOOTH",
"384 1462 LINE",
"200 1462 LINE",
"200 516 LINE SMOOTH",
"200 381 OFFCURVE",
"218 277 OFFCURVE",
"255 202 CURVE SMOOTH",
"327 52 OFFCURVE",
"478 -24 OFFCURVE",
"727 -24 CURVE SMOOTH"
);
}
);
width = 1438;
}
);
note = g26;
},
{
glyphname = g27;
lastChange = "2016-11-10 14:09:55 +0000";
layers = (
{
layerId = "614620BD-4CC0-4507-9D91-582C8BAD68CE";
paths = (
{
closed = 1;
nodes = (
"923 0 LINE",
"923 164 LINE",
"384 164 LINE",
"384 1298 LINE",
"923 1298 LINE",
"923 1462 LINE",
"200 1462 LINE",
"200 0 LINE"
);
}
);
width = 1083;
}
);
note = g27;
},
{
glyphname = g28;
lastChange = "2016-11-10 14:09:55 +0000";
layers = (
{
layerId = "614620BD-4CC0-4507-9D91-582C8BAD68CE";
paths = (
{
closed = 1;
nodes = (
"910 0 LINE",
"910 1462 LINE",
"726 1462 LINE",
"726 706 LINE",
"708 706 LINE SMOOTH",
"336 706 OFFCURVE",
"160 590 OFFCURVE",
"160 337 CURVE SMOOTH",
"160 126 OFFCURVE",
"338 0 OFFCURVE",
"646 0 CURVE SMOOTH"
);
},
{
closed = 1;
nodes = (
"479 164 OFFCURVE",
"355 217 OFFCURVE",
"355 345 CURVE SMOOTH",
"355 450 OFFCURVE",
"397 501 OFFCURVE",
"498 525 CURVE SMOOTH",
"549 536 OFFCURVE",
"625 542 OFFCURVE",
"726 542 CURVE",
"726 164 LINE"
);
}
);
width = 1110;
}
);
note = g28;
},
{
glyphname = g29;
lastChange = "2016-11-10 14:09:55 +0000";
layers = (
{
layerId = "614620BD-4CC0-4507-9D91-582C8BAD68CE";
paths = (
{
closed = 1;
nodes = (
"713 -24 OFFCURVE",
"795 -3 OFFCURVE",
"872 39 CURVE SMOOTH",
"1024 123 OFFCURVE",
"1118 281 OFFCURVE",
"1118 454 CURVE SMOOTH",
"1118 690 OFFCURVE",
"947 884 OFFCURVE",
"716 924 CURVE",
"716 1462 LINE",
"532 1462 LINE",
"532 924 LINE",
"301 884 OFFCURVE",
"130 691 OFFCURVE",
"130 454 CURVE SMOOTH",
"130 369 OFFCURVE",
"152 289 OFFCURVE",
"196 215 CURVE SMOOTH",
"283 67 OFFCURVE",
"445 -24 OFFCURVE",
"624 -24 CURVE SMOOTH"
);
},
{
closed = 1;
nodes = (
"404 194 OFFCURVE",
"314 322 OFFCURVE",
"314 458 CURVE SMOOTH",
"314 593 OFFCURVE",
"401 714 OFFCURVE",
"532 755 CURVE",
"532 153 LINE"
);
},
{
closed = 1;
nodes = (
"716 756 LINE",
"844 716 OFFCURVE",
"934 597 OFFCURVE",
"934 458 CURVE SMOOTH",
"934 319 OFFCURVE",
"845 195 OFFCURVE",
"716 152 CURVE"
);
}
);
width = 1248;
}
);
note = g29;
},
{
glyphname = g30;
lastChange = "2016-11-10 14:09:55 +0000";
layers = (
{
layerId = "614620BD-4CC0-4507-9D91-582C8BAD68CE";
paths = (
{
closed = 1;
nodes = (
"902 0 LINE",
"902 164 LINE",
"649 164 LINE SMOOTH",
"466 164 OFFCURVE",
"355 245 OFFCURVE",
"355 385 CURVE SMOOTH",
"355 572 OFFCURVE",
"481 656 OFFCURVE",
"734 656 CURVE SMOOTH",
"864 656 LINE",
"864 820 LINE",
"734 820 LINE SMOOTH",
"473 820 OFFCURVE",
"355 896 OFFCURVE",
"355 1077 CURVE SMOOTH",
"355 1214 OFFCURVE",
"475 1298 OFFCURVE",
"660 1298 CURVE SMOOTH",
"902 1298 LINE",
"902 1462 LINE",
"675 1462 LINE SMOOTH",
"572 1462 OFFCURVE",
"481 1446 OFFCURVE",
"404 1413 CURVE SMOOTH",
"248 1348 OFFCURVE",
"160 1223 OFFCURVE",
"160 1078 CURVE SMOOTH",
"160 923 OFFCURVE",
"235 806 OFFCURVE",
"366 738 CURVE",
"237 669 OFFCURVE",
"160 544 OFFCURVE",
"160 384 CURVE SMOOTH",
"160 309 OFFCURVE",
"180 242 OFFCURVE",
"220 184 CURVE SMOOTH",
"299 67 OFFCURVE",
"451 0 OFFCURVE",
"655 0 CURVE SMOOTH"
);
}
);
width = 1032;
}
);
note = g30;
},
{
glyphname = g31;
lastChange = "2016-11-10 14:09:55 +0000";
layers = (
{
layerId = "614620BD-4CC0-4507-9D91-582C8BAD68CE";
paths = (
{
closed = 1;
nodes = (
"384 0 LINE",
"384 697 LINE",
"449 653 OFFCURVE",
"548 627 OFFCURVE",
"648 627 CURVE SMOOTH",
"915 627 OFFCURVE",
"1056 748 OFFCURVE",
"1056 1028 CURVE SMOOTH",
"1056 1462 LINE",
"872 1462 LINE",
"872 1063 LINE SMOOTH",
"872 878 OFFCURVE",
"806 798 OFFCURVE",
"626 798 CURVE SMOOTH",
"527 798 OFFCURVE",
"440 836 OFFCURVE",
"384 884 CURVE",
"384 1462 LINE",
"200 1462 LINE",
"200 0 LINE"
);
}
);
width = 1216;
}
);
note = g31;
},
{
glyphname = g32;
lastChange = "2016-11-10 14:09:55 +0000";
layers = (
{
layerId = "614620BD-4CC0-4507-9D91-582C8BAD68CE";
paths = (
{
closed = 1;
nodes = (
"603 0 LINE",
"603 845 LINE",
"642 858 OFFCURVE",
"686 864 OFFCURVE",
"735 864 CURVE SMOOTH",
"914 864 OFFCURVE",
"981 784 OFFCURVE",
"981 599 CURVE SMOOTH",
"981 349 LINE",
"1165 349 LINE",
"1165 634 LINE SMOOTH",
"1165 914 OFFCURVE",
"1024 1035 OFFCURVE",
"757 1035 CURVE SMOOTH",
"704 1035 OFFCURVE",
"653 1027 OFFCURVE",
"603 1012 CURVE",
"603 1462 LINE",
"100 1462 LINE",
"100 1298 LINE",
"419 1298 LINE",
"419 0 LINE"
);
}
);
width = 1325;
}
);
note = g32;
},
{
glyphname = g33;
lastChange = "2016-11-10 14:09:55 +0000";
layers = (
{
layerId = "614620BD-4CC0-4507-9D91-582C8BAD68CE";
paths = (
{
closed = 1;
nodes = (
"895 0 LINE",
"895 164 LINE",
"858 164 LINE SMOOTH",
"531 164 OFFCURVE",
"354 368 OFFCURVE",
"354 731 CURVE SMOOTH",
"354 1090 OFFCURVE",
"540 1298 OFFCURVE",
"860 1298 CURVE SMOOTH",
"895 1298 LINE",
"895 1462 LINE",
"862 1462 LINE SMOOTH",
"421 1462 OFFCURVE",
"160 1188 OFFCURVE",
"160 733 CURVE SMOOTH",
"160 260 OFFCURVE",
"395 0 OFFCURVE",
"832 0 CURVE SMOOTH"
);
}
);
width = 1015;
}
);
note = g33;
},
{
glyphname = g34;
lastChange = "2016-11-10 14:09:55 +0000";
layers = (
{
layerId = "614620BD-4CC0-4507-9D91-582C8BAD68CE";
paths = (
{
closed = 1;
nodes = (
"966 56 OFFCURVE",
"1082 86 OFFCURVE",
"1186 145 CURVE SMOOTH",
"1394 264 OFFCURVE",
"1516 485 OFFCURVE",
"1516 734 CURVE SMOOTH",
"1516 858 OFFCURVE",
"1487 972 OFFCURVE",
"1430 1077 CURVE SMOOTH",
"1314 1286 OFFCURVE",
"1093 1412 OFFCURVE",
"838 1412 CURVE SMOOTH",
"711 1412 OFFCURVE",
"595 1382 OFFCURVE",
"491 1323 CURVE SMOOTH",
"282 1204 OFFCURVE",
"160 983 OFFCURVE",
"160 734 CURVE SMOOTH",
"160 609 OFFCURVE",
"189 494 OFFCURVE",
"247 390 CURVE SMOOTH",
"363 182 OFFCURVE",
"582 56 OFFCURVE",
"838 56 CURVE SMOOTH"
);
},
{
closed = 1;
nodes = (
"749 228 OFFCURVE",
"668 251 OFFCURVE",
"594 296 CURVE SMOOTH",
"445 387 OFFCURVE",
"355 552 OFFCURVE",
"355 735 CURVE SMOOTH",
"355 826 OFFCURVE",
"376 910 OFFCURVE",
"419 989 CURVE SMOOTH",
"504 1145 OFFCURVE",
"661 1240 OFFCURVE",
"838 1240 CURVE SMOOTH",
"926 1240 OFFCURVE",
"1007 1218 OFFCURVE",
"1082 1173 CURVE SMOOTH",
"1231 1083 OFFCURVE",
"1321 916 OFFCURVE",
"1321 735 CURVE SMOOTH",
"1321 643 OFFCURVE",
"1300 558 OFFCURVE",
"1258 481 CURVE SMOOTH",
"1173 325 OFFCURVE",
"1013 228 OFFCURVE",
"838 228 CURVE SMOOTH"
);
}
);
width = 1676;
}
);
note = g34;
},
{
glyphname = g35;
lastChange = "2016-11-10 14:09:55 +0000";
layers = (
{
layerId = "614620BD-4CC0-4507-9D91-582C8BAD68CE";
paths = (
{
closed = 1;
nodes = (
"344 0 LINE",
"344 680 LINE",
"834 680 LINE",
"834 1462 LINE",
"650 1462 LINE",
"650 844 LINE",
"160 844 LINE",
"160 0 LINE"
);
}
);
width = 994;
}
);
note = g35;
},
{
glyphname = g36;
lastChange = "2016-11-10 14:09:55 +0000";
layers = (
{
layerId = "614620BD-4CC0-4507-9D91-582C8BAD68CE";
paths = (
{
closed = 1;
nodes = (
"919 -24 OFFCURVE",
"1099 106 OFFCURVE",
"1099 331 CURVE SMOOTH",
"1099 502 OFFCURVE",
"981 612 OFFCURVE",
"804 612 CURVE SMOOTH",
"645 612 OFFCURVE",
"545 526 OFFCURVE",
"498 398 CURVE",
"669 318 LINE",
"698 406 OFFCURVE",
"748 450 OFFCURVE",
"818 450 CURVE SMOOTH",
"875 450 OFFCURVE",
"915 411 OFFCURVE",
"915 331 CURVE SMOOTH",
"915 211 OFFCURVE",
"808 148 OFFCURVE",
"635 148 CURVE SMOOTH",
"440 148 OFFCURVE",
"325 256 OFFCURVE",
"325 433 CURVE SMOOTH",
"325 604 OFFCURVE",
"462 742 OFFCURVE",
"635 742 CURVE SMOOTH",
"727 742 LINE",
"727 1462 LINE",
"543 1462 LINE",
"543 896 LINE",
"464 883 OFFCURVE",
"393 854 OFFCURVE",
"330 810 CURVE SMOOTH",
"202 721 OFFCURVE",
"130 582 OFFCURVE",
"130 429 CURVE SMOOTH",
"130 344 OFFCURVE",
"151 267 OFFCURVE",
"192 198 CURVE SMOOTH",
"275 60 OFFCURVE",
"433 -24 OFFCURVE",
"614 -24 CURVE SMOOTH"
);
}
);
width = 1229;
}
);
note = g36;
},
{
glyphname = g37;
lastChange = "2016-11-10 14:09:55 +0000";
layers = (
{
layerId = "614620BD-4CC0-4507-9D91-582C8BAD68CE";
paths = (
{
closed = 1;
nodes = (
"1002 0 LINE",
"1002 164 LINE",
"643 164 LINE",
"643 1298 LINE",
"1002 1298 LINE",
"1002 1462 LINE",
"100 1462 LINE",
"100 1298 LINE",
"459 1298 LINE",
"459 164 LINE",
"100 164 LINE",
"100 0 LINE"
);
}
);
width = 1102;
}
);
note = g37;
},
{
glyphname = g38;
lastChange = "2016-11-10 14:09:55 +0000";
layers = (
{
layerId = "614620BD-4CC0-4507-9D91-582C8BAD68CE";
paths = (
{
closed = 1;
nodes = (
"261 0 LINE",
"640 719 LINE",
"1021 0 LINE",
"1219 0 LINE",
"732 895 LINE",
"732 1462 LINE",
"547 1462 LINE",
"547 903 LINE",
"60 0 LINE"
);
}
);
width = 1279;
}
);
note = g38;
},
{
glyphname = g39;
lastChange = "2016-11-10 14:09:55 +0000";
layers = (
{
layerId = "614620BD-4CC0-4507-9D91-582C8BAD68CE";
paths = (
{
closed = 1;
nodes = (
"966 56 OFFCURVE",
"1082 86 OFFCURVE",
"1186 145 CURVE SMOOTH",
"1394 264 OFFCURVE",
"1516 485 OFFCURVE",
"1516 734 CURVE SMOOTH",
"1516 858 OFFCURVE",
"1487 972 OFFCURVE",
"1430 1077 CURVE SMOOTH",
"1314 1286 OFFCURVE",
"1093 1412 OFFCURVE",
"838 1412 CURVE SMOOTH",
"711 1412 OFFCURVE",
"595 1382 OFFCURVE",
"491 1323 CURVE SMOOTH",
"282 1204 OFFCURVE",
"160 983 OFFCURVE",
"160 734 CURVE SMOOTH",
"160 609 OFFCURVE",
"189 494 OFFCURVE",
"247 390 CURVE SMOOTH",
"363 182 OFFCURVE",
"582 56 OFFCURVE",
"838 56 CURVE SMOOTH"
);
},
{
closed = 1;
nodes = (
"749 228 OFFCURVE",
"668 251 OFFCURVE",
"594 296 CURVE SMOOTH",
"445 387 OFFCURVE",
"355 552 OFFCURVE",
"355 735 CURVE SMOOTH",
"355 826 OFFCURVE",
"376 910 OFFCURVE",
"419 989 CURVE SMOOTH",
"504 1145 OFFCURVE",
"661 1240 OFFCURVE",
"838 1240 CURVE SMOOTH",
"926 1240 OFFCURVE",
"1007 1218 OFFCURVE",
"1082 1173 CURVE SMOOTH",
"1231 1083 OFFCURVE",
"1321 916 OFFCURVE",
"1321 735 CURVE SMOOTH",
"1321 643 OFFCURVE",
"1300 558 OFFCURVE",
"1258 481 CURVE SMOOTH",
"1173 325 OFFCURVE",
"1013 228 OFFCURVE",
"838 228 CURVE SMOOTH"
);
},
{
closed = 1;
nodes = (
"917 602 OFFCURVE",
"965 656 OFFCURVE",
"965 741 CURVE SMOOTH",
"965 830 OFFCURVE",
"920 880 OFFCURVE",
"836 880 CURVE SMOOTH",
"753 880 OFFCURVE",
"711 829 OFFCURVE",
"711 741 CURVE SMOOTH",
"711 654 OFFCURVE",
"757 602 OFFCURVE",
"836 602 CURVE SMOOTH"
);
}
);
width = 1676;
}
);
note = g39;
},
{
glyphname = g40;
lastChange = "2016-11-10 14:09:55 +0000";
layers = (
{
layerId = "614620BD-4CC0-4507-9D91-582C8BAD68CE";
paths = (
{
closed = 1;
nodes = (
"384 0 LINE",
"384 243 LINE",
"623 272 OFFCURVE",
"786 457 OFFCURVE",
"786 694 CURVE SMOOTH",
"786 946 OFFCURVE",
"620 1134 OFFCURVE",
"384 1154 CURVE",
"384 1462 LINE",
"200 1462 LINE",
"200 1010 LINE",
"264 1010 LINE SMOOTH",
"463 1010 OFFCURVE",
"602 881 OFFCURVE",
"602 698 CURVE SMOOTH",
"602 638 OFFCURVE",
"587 584 OFFCURVE",
"557 537 CURVE SMOOTH",
"497 441 OFFCURVE",
"387 387 OFFCURVE",
"264 387 CURVE SMOOTH",
"200 387 LINE",
"200 0 LINE"
);
}
);
width = 946;
}
);
note = g40;
},
{
glyphname = g41;
lastChange = "2016-11-10 14:09:55 +0000";
layers = (
{
layerId = "614620BD-4CC0-4507-9D91-582C8BAD68CE";
paths = (
{
closed = 1;
nodes = (
"414 0 LINE SMOOTH",
"851 0 OFFCURVE",
"1086 260 OFFCURVE",
"1086 733 CURVE SMOOTH",
"1086 1188 OFFCURVE",
"824 1462 OFFCURVE",
"384 1462 CURVE SMOOTH",
"200 1462 LINE",
"200 0 LINE"
);
},
{
closed = 1;
nodes = (
"384 1298 LINE",
"705 1298 OFFCURVE",
"892 1088 OFFCURVE",
"892 731 CURVE SMOOTH",
"892 367 OFFCURVE",
"713 164 OFFCURVE",
"388 164 CURVE SMOOTH",
"384 164 LINE"
);
}
);
width = 1246;
}
);
note = g41;
},
{
glyphname = g42;
lastChange = "2016-11-10 14:09:55 +0000";
layers = (
{
layerId = "614620BD-4CC0-4507-9D91-582C8BAD68CE";
paths = (
{
closed = 1;
nodes = (
"1002 0 LINE",
"1002 164 LINE",
"643 164 LINE",
"643 1462 LINE",
"459 1462 LINE",
"459 164 LINE",
"100 164 LINE",
"100 0 LINE"
);
}
);
width = 1102;
}
);
note = g42;
},
{
glyphname = g43;
lastChange = "2016-11-10 14:09:55 +0000";
layers = (
{
layerId = "614620BD-4CC0-4507-9D91-582C8BAD68CE";
paths = (
{
closed = 1;
nodes = (
"746 -24 OFFCURVE",
"833 -6 OFFCURVE",
"898 31 CURVE SMOOTH",
"1029 104 OFFCURVE",
"1087 234 OFFCURVE",
"1087 511 CURVE SMOOTH",
"1087 517 LINE",
"903 517 LINE",
"903 511 LINE SMOOTH",
"903 408 OFFCURVE",
"894 334 OFFCURVE",
"877 287 CURVE SMOOTH",
"842 194 OFFCURVE",
"770 148 OFFCURVE",
"638 148 CURVE SMOOTH",
"507 148 OFFCURVE",
"439 189 OFFCURVE",
"408 281 CURVE SMOOTH",
"392 327 OFFCURVE",
"384 403 OFFCURVE",
"384 510 CURVE SMOOTH",
"384 1462 LINE",
"200 1462 LINE",
"200 516 LINE SMOOTH",
"200 376 OFFCURVE",
"215 269 OFFCURVE",
"244 196 CURVE SMOOTH",
"303 48 OFFCURVE",
"425 -24 OFFCURVE",
"637 -24 CURVE SMOOTH"
);
}
);
width = 1247;
}
);
note = g43;
},
{
glyphname = g44;
lastChange = "2016-11-10 14:09:55 +0000";
layers = (
{
layerId = "614620BD-4CC0-4507-9D91-582C8BAD68CE";
paths = (
{
closed = 1;
nodes = (
"703 -24 OFFCURVE",
"780 -5 OFFCURVE",
"846 34 CURVE SMOOTH",
"977 111 OFFCURVE",
"1050 252 OFFCURVE",
"1050 420 CURVE SMOOTH",
"1050 659 OFFCURVE",
"889 819 OFFCURVE",
"638 819 CURVE SMOOTH",
"579 819 OFFCURVE",
"522 807 OFFCURVE",
"467 784 CURVE",
"543 630 LINE",
"581 641 OFFCURVE",
"619 647 OFFCURVE",
"657 647 CURVE SMOOTH",
"774 647 OFFCURVE",
"856 553 OFFCURVE",
"856 418 CURVE SMOOTH",
"856 238 OFFCURVE",
"776 148 OFFCURVE",
"615 148 CURVE SMOOTH",
"560 148 OFFCURVE",
"515 158 OFFCURVE",
"482 177 CURVE SMOOTH",
"414 216 OFFCURVE",
"384 286 OFFCURVE",
"384 441 CURVE SMOOTH",
"384 1462 LINE",
"200 1462 LINE",
"200 441 LINE SMOOTH",
"200 128 OFFCURVE",
"330 -24 OFFCURVE",
"615 -24 CURVE SMOOTH"
);
}
);
width = 1180;
}
);
note = g44;
},
{
glyphname = g45;
lastChange = "2016-11-10 14:09:55 +0000";
layers = (
{
layerId = "614620BD-4CC0-4507-9D91-582C8BAD68CE";
paths = (
{
closed = 1;
nodes = (
"1383 144 LINE",
"1383 1336 LINE",
"200 1336 LINE",
"200 144 LINE"
);
},
{
closed = 1;
nodes = (
"384 1172 LINE",
"1199 1172 LINE",
"1199 308 LINE",
"384 308 LINE"
);
}
);
width = 1583;
}
);
note = g45;
},
{
glyphname = g46;
lastChange = "2016-11-10 14:09:55 +0000";
layers = (
{
layerId = "614620BD-4CC0-4507-9D91-582C8BAD68CE";
paths = (
{
closed = 1;
nodes = (
"384 0 LINE",
"384 861 LINE",
"1159 861 LINE",
"1159 0 LINE",
"1343 0 LINE",
"1343 861 LINE",
"1700 861 LINE",
"1700 1462 LINE",
"1516 1462 LINE",
"1516 1025 LINE",
"200 1025 LINE",
"200 0 LINE"
);
}
);
width = 1820;
}
);
note = g46;
},
{
glyphname = g47;
lastChange = "2016-11-10 14:09:55 +0000";
layers = (
{
layerId = "614620BD-4CC0-4507-9D91-582C8BAD68CE";
paths = (
{
closed = 1;
nodes = (
"994 -24 OFFCURVE",
"1152 114 OFFCURVE",
"1152 357 CURVE SMOOTH",
"1152 536 OFFCURVE",
"1071 680 OFFCURVE",
"875 809 CURVE",
"1062 922 OFFCURVE",
"1137 996 OFFCURVE",
"1190 1080 CURVE SMOOTH",
"1242 1163 OFFCURVE",
"1270 1261 OFFCURVE",
"1270 1380 CURVE SMOOTH",
"1270 1462 LINE",
"1086 1462 LINE",
"1086 1380 LINE SMOOTH",
"1086 1253 OFFCURVE",
"1040 1163 OFFCURVE",
"972 1091 CURVE SMOOTH",
"903 1019 OFFCURVE",
"810 964 OFFCURVE",
"715 905 CURVE",
"620 964 OFFCURVE",
"527 1019 OFFCURVE",
"458 1091 CURVE SMOOTH",
"389 1163 OFFCURVE",
"344 1253 OFFCURVE",
"344 1380 CURVE SMOOTH",
"344 1462 LINE",
"160 1462 LINE",
"160 1380 LINE SMOOTH",
"160 1296 OFFCURVE",
"173 1222 OFFCURVE",
"200 1158 CURVE SMOOTH",
"253 1029 OFFCURVE",
"338 937 OFFCURVE",
"557 806 CURVE",
"365 682 OFFCURVE",
"279 540 OFFCURVE",
"279 357 CURVE SMOOTH",
"279 116 OFFCURVE",
"434 -24 OFFCURVE",
"711 -24 CURVE SMOOTH"
);
},
{
closed = 1;
nodes = (
"563 148 OFFCURVE",
"473 218 OFFCURVE",
"473 365 CURVE SMOOTH",
"473 504 OFFCURVE",
"553 613 OFFCURVE",
"718 716 CURVE",
"882 612 OFFCURVE",
"957 504 OFFCURVE",
"957 365 CURVE SMOOTH",
"957 217 OFFCURVE",
"867 148 OFFCURVE",
"711 148 CURVE SMOOTH"
);
}
);
width = 1430;
}
);
note = g47;
},
{
glyphname = g48;
lastChange = "2016-11-10 14:09:55 +0000";
layers = (
{
layerId = "614620BD-4CC0-4507-9D91-582C8BAD68CE";
paths = (
{
closed = 1;
nodes = (
"667 -24 OFFCURVE",
"765 12 OFFCURVE",
"826 85 CURVE",
"886 12 OFFCURVE",
"984 -24 OFFCURVE",
"1121 -24 CURVE SMOOTH",
"1400 -24 OFFCURVE",
"1522 110 OFFCURVE",
"1522 446 CURVE SMOOTH",
"1522 515 LINE",
"1338 515 LINE",
"1338 446 LINE SMOOTH",
"1338 225 OFFCURVE",
"1287 148 OFFCURVE",
"1132 148 CURVE SMOOTH",
"1077 148 OFFCURVE",
"1034 157 OFFCURVE",
"1005 175 CURVE SMOOTH",
"946 211 OFFCURVE",
"918 289 OFFCURVE",
"918 426 CURVE SMOOTH",
"918 1462 LINE",
"734 1462 LINE",
"734 426 LINE SMOOTH",
"734 229 OFFCURVE",
"680 148 OFFCURVE",
"520 148 CURVE SMOOTH",
"365 148 OFFCURVE",
"314 225 OFFCURVE",
"314 446 CURVE SMOOTH",
"314 515 LINE",
"130 515 LINE",
"130 446 LINE SMOOTH",
"130 109 OFFCURVE",
"254 -24 OFFCURVE",
"531 -24 CURVE SMOOTH"
);
}
);
width = 1652;
}
);
note = g48;
},
{
glyphname = g49;
lastChange = "2016-11-10 14:09:55 +0000";
layers = (
{
layerId = "614620BD-4CC0-4507-9D91-582C8BAD68CE";
paths = (
{
closed = 1;
nodes = (
"424 0 LINE",
"424 1462 LINE",
"240 1462 LINE",
"240 0 LINE"
);
}
);
width = 664;
}
);
note = g49;
},
{
glyphname = g50;
lastChange = "2016-11-10 14:09:55 +0000";
layers = (
{
layerId = "614620BD-4CC0-4507-9D91-582C8BAD68CE";
paths = (
{
closed = 1;
nodes = (
"967 -24 OFFCURVE",
"1051 -5 OFFCURVE",
"1115 32 CURVE SMOOTH",
"1243 106 OFFCURVE",
"1300 240 OFFCURVE",
"1300 520 CURVE SMOOTH",
"1300 1462 LINE",
"1116 1462 LINE",
"1116 514 LINE SMOOTH",
"1116 409 OFFCURVE",
"1108 333 OFFCURVE",
"1092 287 CURVE SMOOTH",
"1060 195 OFFCURVE",
"990 150 OFFCURVE",
"862 150 CURVE SMOOTH",
"797 150 OFFCURVE",
"745 162 OFFCURVE",
"706 185 CURVE SMOOTH",
"629 232 OFFCURVE",
"596 310 OFFCURVE",
"596 515 CURVE SMOOTH",
"596 523 LINE",
"100 523 LINE",
"100 359 LINE",
"420 359 LINE",
"431 266 OFFCURVE",
"454 192 OFFCURVE",
"488 139 CURVE SMOOTH",
"555 32 OFFCURVE",
"678 -24 OFFCURVE",
"863 -24 CURVE SMOOTH"
);
}
);
width = 1500;
}
);
note = g50;
},
{
glyphname = g51;
lastChange = "2016-11-10 14:09:55 +0000";
layers = (
{
layerId = "614620BD-4CC0-4507-9D91-582C8BAD68CE";
paths = (
{
closed = 1;
nodes = (
"590 -24 OFFCURVE",
"656 -7 OFFCURVE",
"717 27 CURVE SMOOTH",
"840 94 OFFCURVE",
"912 215 OFFCURVE",
"912 351 CURVE SMOOTH",
"912 526 OFFCURVE",
"792 676 OFFCURVE",
"613 717 CURVE",
"613 1462 LINE",
"429 1462 LINE",
"429 716 LINE",
"250 675 OFFCURVE",
"130 524 OFFCURVE",
"130 351 CURVE SMOOTH",
"130 283 OFFCURVE",
"147 220 OFFCURVE",
"182 163 CURVE SMOOTH",
"250 48 OFFCURVE",
"381 -24 OFFCURVE",
"521 -24 CURVE SMOOTH"
);
},
{
closed = 1;
nodes = (
"404 138 OFFCURVE",
"314 235 OFFCURVE",
"314 351 CURVE SMOOTH",
"314 470 OFFCURVE",
"402 565 OFFCURVE",
"521 565 CURVE SMOOTH",
"640 565 OFFCURVE",
"728 470 OFFCURVE",
"728 351 CURVE SMOOTH",
"728 234 OFFCURVE",
"637 138 OFFCURVE",
"521 138 CURVE SMOOTH"
);
}
);
width = 1042;
}
);
note = g51;
},
{
glyphname = g52;
lastChange = "2016-11-10 14:09:55 +0000";
layers = (
{
layerId = "614620BD-4CC0-4507-9D91-582C8BAD68CE";
paths = (
{
closed = 1;
nodes = (
"253 0 LINE",
"550 924 LINE",
"592 1100 LINE",
"592 0 LINE",
"751 0 LINE",
"751 1121 LINE",
"801 912 LINE",
"1094 0 LINE",
"1289 0 LINE",
"762 1462 LINE",
"587 1462 LINE",
"60 0 LINE"
);
}
);
width = 1349;
}
);
note = g52;
},
{
glyphname = g53;
lastChange = "2016-11-10 14:09:55 +0000";
layers = (
{
layerId = "614620BD-4CC0-4507-9D91-582C8BAD68CE";
paths = (
{
closed = 1;
nodes = (
"746 -24 OFFCURVE",
"833 -6 OFFCURVE",
"898 31 CURVE SMOOTH",
"1029 104 OFFCURVE",
"1087 234 OFFCURVE",
"1087 511 CURVE SMOOTH",
"1087 517 LINE",
"903 517 LINE",
"903 511 LINE SMOOTH",
"903 408 OFFCURVE",
"894 334 OFFCURVE",
"877 287 CURVE SMOOTH",
"842 194 OFFCURVE",
"770 148 OFFCURVE",
"638 148 CURVE SMOOTH",
"507 148 OFFCURVE",
"439 189 OFFCURVE",
"408 281 CURVE SMOOTH",
"392 327 OFFCURVE",
"384 403 OFFCURVE",
"384 510 CURVE SMOOTH",
"384 748 LINE",
"954 934 LINE",
"904 1088 LINE",
"384 918 LINE",
"384 1462 LINE",
"200 1462 LINE",
"200 516 LINE SMOOTH",
"200 376 OFFCURVE",
"215 269 OFFCURVE",
"244 196 CURVE SMOOTH",
"303 48 OFFCURVE",
"425 -24 OFFCURVE",
"637 -24 CURVE SMOOTH"
);
}
);
width = 1247;
}
);
note = g53;
},
{
glyphname = g54;
lastChange = "2016-11-10 14:09:55 +0000";
layers = (
{
layerId = "614620BD-4CC0-4507-9D91-582C8BAD68CE";
paths = (
{
closed = 1;
nodes = (
"1300 -24 OFFCURVE",
"1391 -4 OFFCURVE",
"1462 35 CURVE SMOOTH",
"1602 113 OFFCURVE",
"1668 255 OFFCURVE",
"1668 511 CURVE SMOOTH",
"1668 517 LINE",
"1484 517 LINE",
"1484 511 LINE SMOOTH",
"1484 251 OFFCURVE",
"1393 148 OFFCURVE",
"1189 148 CURVE SMOOTH",
"986 148 OFFCURVE",
"905 241 OFFCURVE",
"905 510 CURVE SMOOTH",
"905 1462 LINE",
"721 1462 LINE",
"721 712 LINE",
"671 727 OFFCURVE",
"620 735 OFFCURVE",
"568 735 CURVE SMOOTH",
"301 735 OFFCURVE",
"160 614 OFFCURVE",
"160 334 CURVE SMOOTH",
"160 0 LINE",
"344 0 LINE",
"344 299 LINE SMOOTH",
"344 484 OFFCURVE",
"410 564 OFFCURVE",
"590 564 CURVE SMOOTH",
"640 564 OFFCURVE",
"684 558 OFFCURVE",
"721 546 CURVE",
"721 516 LINE SMOOTH",
"721 140 OFFCURVE",
"865 -24 OFFCURVE",
"1188 -24 CURVE SMOOTH"
);
}
);
width = 1798;
}
);
note = g54;
},
{
glyphname = g55;
lastChange = "2016-11-10 14:09:55 +0000";
layers = (
{
layerId = "614620BD-4CC0-4507-9D91-582C8BAD68CE";
paths = (
{
closed = 1;
nodes = (
"913 -24 OFFCURVE",
"1051 90 OFFCURVE",
"1080 359 CURVE",
"1400 359 LINE",
"1400 523 LINE",
"904 523 LINE",
"904 418 OFFCURVE",
"895 341 OFFCURVE",
"878 292 CURVE SMOOTH",
"843 194 OFFCURVE",
"771 148 OFFCURVE",
"638 148 CURVE SMOOTH",
"507 148 OFFCURVE",
"439 189 OFFCURVE",
"408 281 CURVE SMOOTH",
"392 327 OFFCURVE",
"384 403 OFFCURVE",
"384 510 CURVE SMOOTH",
"384 1462 LINE",
"200 1462 LINE",
"200 516 LINE SMOOTH",
"200 376 OFFCURVE",
"215 269 OFFCURVE",
"244 196 CURVE SMOOTH",
"303 48 OFFCURVE",
"425 -24 OFFCURVE",
"637 -24 CURVE SMOOTH"
);
}
);
width = 1500;
}
);
note = g55;
},
{
glyphname = g56;
lastChange = "2016-11-10 14:09:55 +0000";
layers = (
{
layerId = "614620BD-4CC0-4507-9D91-582C8BAD68CE";
paths = (
{
closed = 1;
nodes = (
"968 -24 OFFCURVE",
"1052 -6 OFFCURVE",
"1116 31 CURVE SMOOTH",
"1243 103 OFFCURVE",
"1300 236 OFFCURVE",
"1300 516 CURVE SMOOTH",
"1300 544 LINE",
"1338 557 OFFCURVE",
"1383 564 OFFCURVE",
"1435 564 CURVE SMOOTH",
"1614 564 OFFCURVE",
"1681 484 OFFCURVE",
"1681 299 CURVE SMOOTH",
"1681 0 LINE",
"1865 0 LINE",
"1865 334 LINE SMOOTH",
"1865 614 OFFCURVE",
"1724 735 OFFCURVE",
"1457 735 CURVE SMOOTH",
"1402 735 OFFCURVE",
"1350 727 OFFCURVE",
"1300 711 CURVE",
"1300 1462 LINE",
"1116 1462 LINE",
"1116 510 LINE SMOOTH",
"1116 403 OFFCURVE",
"1108 327 OFFCURVE",
"1093 281 CURVE SMOOTH",
"1061 189 OFFCURVE",
"993 148 OFFCURVE",
"862 148 CURVE SMOOTH",
"795 148 OFFCURVE",
"743 160 OFFCURVE",
"705 184 CURVE SMOOTH",
"628 231 OFFCURVE",
"596 316 OFFCURVE",
"596 523 CURVE",
"100 523 LINE",
"100 359 LINE",
"420 359 LINE",
"449 90 OFFCURVE",
"588 -24 OFFCURVE",
"863 -24 CURVE SMOOTH"
);
}
);
width = 2025;
}
);
note = g56;
},
{
glyphname = g57;
lastChange = "2016-11-10 14:09:55 +0000";
layers = (
{
layerId = "614620BD-4CC0-4507-9D91-582C8BAD68CE";
paths = (
{
closed = 1;
nodes = (
"314 0 LINE",
"314 366 LINE",
"763 366 LINE",
"763 682 LINE",
"952 722 OFFCURVE",
"1092 882 OFFCURVE",
"1092 1077 CURVE SMOOTH",
"1092 1151 OFFCURVE",
"1073 1219 OFFCURVE",
"1036 1281 CURVE SMOOTH",
"961 1405 OFFCURVE",
"822 1482 OFFCURVE",
"671 1482 CURVE SMOOTH",
"597 1482 OFFCURVE",
"527 1464 OFFCURVE",
"461 1428 CURVE SMOOTH",
"329 1356 OFFCURVE",
"250 1225 OFFCURVE",
"250 1077 CURVE SMOOTH",
"250 881 OFFCURVE",
"391 722 OFFCURVE",
"579 682 CURVE",
"579 530 LINE",
"130 530 LINE",
"130 0 LINE"
);
},
{
closed = 1;
nodes = (
"486 879 OFFCURVE",
"425 968 OFFCURVE",
"425 1076 CURVE SMOOTH",
"425 1187 OFFCURVE",
"489 1278 OFFCURVE",
"585 1311 CURVE",
"585 844 LINE"
);
},
{
closed = 1;
nodes = (
"757 1311 LINE",
"853 1276 OFFCURVE",
"917 1188 OFFCURVE",
"917 1076 CURVE SMOOTH",
"917 968 OFFCURVE",
"856 879 OFFCURVE",
"757 844 CURVE"
);
}
);
width = 1192;
}
);
note = g57;
},
{
glyphname = g58;
lastChange = "2016-11-10 14:09:55 +0000";
layers = (
{
layerId = "614620BD-4CC0-4507-9D91-582C8BAD68CE";
paths = (
{
closed = 1;
nodes = (
"314 0 LINE",
"314 249 LINE SMOOTH",
"314 429 OFFCURVE",
"376 504 OFFCURVE",
"560 504 CURVE SMOOTH",
"609 504 OFFCURVE",
"653 498 OFFCURVE",
"692 485 CURVE",
"692 0 LINE",
"876 0 LINE",
"876 1050 LINE",
"704 1050 LINE SMOOTH",
"567 1050 OFFCURVE",
"498 1088 OFFCURVE",
"498 1165 CURVE SMOOTH",
"498 1264 OFFCURVE",
"559 1298 OFFCURVE",
"704 1298 CURVE SMOOTH",
"876 1298 LINE",
"876 1462 LINE",
"700 1462 LINE SMOOTH",
"456 1462 OFFCURVE",
"314 1365 OFFCURVE",
"314 1165 CURVE SMOOTH",
"314 986 OFFCURVE",
"449 889 OFFCURVE",
"692 886 CURVE",
"692 652 LINE",
"641 667 OFFCURVE",
"589 675 OFFCURVE",
"538 675 CURVE SMOOTH",
"257 675 OFFCURVE",
"130 551 OFFCURVE",
"130 284 CURVE SMOOTH",
"130 0 LINE"
);
}
);
width = 1076;
}
);
note = g58;
},
{
glyphname = g59;
lastChange = "2016-11-10 14:09:55 +0000";
layers = (
{
layerId = "614620BD-4CC0-4507-9D91-582C8BAD68CE";
paths = (
{
closed = 1;
nodes = (
"1124 0 LINE",
"1124 162 LINE",
"521 162 LINE",
"521 1018 LINE SMOOTH",
"521 1235 OFFCURVE",
"575 1314 OFFCURVE",
"735 1314 CURVE SMOOTH",
"890 1314 OFFCURVE",
"941 1237 OFFCURVE",
"941 1016 CURVE SMOOTH",
"941 987 LINE",
"1125 987 LINE",
"1125 1016 LINE SMOOTH",
"1125 1353 OFFCURVE",
"1001 1486 OFFCURVE",
"724 1486 CURVE SMOOTH",
"452 1486 OFFCURVE",
"337 1351 OFFCURVE",
"337 1012 CURVE SMOOTH",
"337 162 LINE",
"100 162 LINE",
"100 0 LINE"
);
}
);
width = 1285;
}
);
note = g59;
},
{
glyphname = g60;
lastChange = "2016-11-10 14:09:55 +0000";
layers = (
{
layerId = "614620BD-4CC0-4507-9D91-582C8BAD68CE";
paths = (
{
closed = 1;
nodes = (
"570 1298 LINE",
"570 1462 LINE",
"0 1462 LINE",
"0 1298 LINE"
);
}
);
width = 0;
}
);
note = g60;
},
{
glyphname = g61;
lastChange = "2016-11-10 14:09:55 +0000";
layers = (
{
layerId = "614620BD-4CC0-4507-9D91-582C8BAD68CE";
paths = (
{
closed = 1;
nodes = (
"585 1298 LINE",
"585 1719 LINE",
"0 1719 LINE",
"0 1555 LINE",
"411 1555 LINE",
"411 1298 LINE"
);
}
);
width = 0;
}
);
note = g61;
},
{
glyphname = g62;
lastChange = "2016-11-10 14:09:55 +0000";
layers = (
{
layerId = "614620BD-4CC0-4507-9D91-582C8BAD68CE";
paths = (
{
closed = 1;
nodes = (
"585 1298 LINE",
"585 1719 LINE",
"411 1719 LINE",
"411 1462 LINE",
"0 1462 LINE",
"0 1298 LINE"
);
}
);
width = 0;
}
);
note = g62;
},
{
glyphname = g63;
lastChange = "2016-11-10 14:09:55 +0000";
layers = (
{
layerId = "614620BD-4CC0-4507-9D91-582C8BAD68CE";
paths = (
{
closed = 1;
nodes = (
"646 1298 LINE",
"646 1719 LINE",
"472 1719 LINE",
"472 1462 LINE",
"336 1462 LINE",
"336 1719 LINE",
"162 1719 LINE",
"162 1462 LINE",
"0 1462 LINE",
"0 1298 LINE"
);
}
);
width = 0;
}
);
note = g63;
},
{
glyphname = g64;
lastChange = "2016-11-10 14:09:55 +0000";
layers = (
{
layerId = "614620BD-4CC0-4507-9D91-582C8BAD68CE";
paths = (
{
closed = 1;
nodes = (
"550 0 LINE",
"550 164 LINE",
"0 164 LINE",
"0 0 LINE"
);
}
);
width = 0;
}
);
note = g64;
},
{
glyphname = g65;
lastChange = "2016-11-10 14:09:55 +0000";
layers = (
{
layerId = "614620BD-4CC0-4507-9D91-582C8BAD68CE";
paths = (
{
closed = 1;
nodes = (
"550 0 LINE",
"550 164 LINE",
"0 164 LINE",
"0 0 LINE"
);
},
{
closed = 1;
nodes = (
"550 -320 LINE",
"550 -156 LINE",
"0 -156 LINE",
"0 -320 LINE"
);
}
);
width = 0;
}
);
note = g65;
},
{
glyphname = g66;
lastChange = "2016-11-10 14:09:55 +0000";
layers = (
{
layerId = "614620BD-4CC0-4507-9D91-582C8BAD68CE";
paths = (
{
closed = 1;
nodes = (
"346 -560 OFFCURVE",
"378 -555 OFFCURVE",
"408 -545 CURVE",
"386 -408 LINE",
"367 -415 OFFCURVE",
"343 -418 OFFCURVE",
"312 -418 CURVE SMOOTH",
"224 -418 OFFCURVE",
"153 -356 OFFCURVE",
"153 -271 CURVE SMOOTH",
"153 -190 OFFCURVE",
"219 -132 OFFCURVE",
"302 -132 CURVE SMOOTH",
"354 -132 OFFCURVE",
"399 -138 OFFCURVE",
"436 -151 CURVE",
"436 -16 LINE",
"397 1 OFFCURVE",
"345 10 OFFCURVE",
"280 10 CURVE SMOOTH",
"120 10 OFFCURVE",
"0 -111 OFFCURVE",
"0 -271 CURVE SMOOTH",
"0 -452 OFFCURVE",
"117 -560 OFFCURVE",
"312 -560 CURVE SMOOTH"
);
}
);
width = 0;
}
);
note = g66;
},
{
glyphname = g67;
lastChange = "2016-11-10 14:09:55 +0000";
layers = (
{
layerId = "614620BD-4CC0-4507-9D91-582C8BAD68CE";
paths = (
{
closed = 1;
nodes = (
"346 -560 OFFCURVE",
"378 -555 OFFCURVE",
"408 -545 CURVE",
"386 -408 LINE",
"367 -415 OFFCURVE",
"343 -418 OFFCURVE",
"312 -418 CURVE SMOOTH",
"224 -418 OFFCURVE",
"153 -356 OFFCURVE",
"153 -271 CURVE SMOOTH",
"153 -216 OFFCURVE",
"183 -170 OFFCURVE",
"232 -147 CURVE",
"240 -288 OFFCURVE",
"317 -365 OFFCURVE",
"500 -365 CURVE SMOOTH",
"534 -365 OFFCURVE",
"566 -360 OFFCURVE",
"596 -350 CURVE",
"574 -213 LINE",
"555 -220 OFFCURVE",
"531 -223 OFFCURVE",
"500 -223 CURVE SMOOTH",
"423 -223 OFFCURVE",
"392 -202 OFFCURVE",
"385 -138 CURVE",
"403 -141 OFFCURVE",
"420 -146 OFFCURVE",
"436 -151 CURVE",
"436 -16 LINE",
"397 1 OFFCURVE",
"345 10 OFFCURVE",
"280 10 CURVE SMOOTH",
"120 10 OFFCURVE",
"0 -111 OFFCURVE",
"0 -271 CURVE SMOOTH",
"0 -452 OFFCURVE",
"117 -560 OFFCURVE",
"312 -560 CURVE SMOOTH"
);
}
);
width = 0;
}
);
note = g67;
},
{
glyphname = g68;
lastChange = "2016-11-10 14:09:55 +0000";
layers = (
{
layerId = "614620BD-4CC0-4507-9D91-582C8BAD68CE";
paths = (
{
closed = 1;
nodes = (
"346 -560 OFFCURVE",
"378 -555 OFFCURVE",
"408 -545 CURVE",
"386 -408 LINE",
"367 -415 OFFCURVE",
"343 -418 OFFCURVE",
"312 -418 CURVE SMOOTH",
"224 -418 OFFCURVE",
"153 -356 OFFCURVE",
"153 -271 CURVE SMOOTH",
"153 -190 OFFCURVE",
"219 -132 OFFCURVE",
"302 -132 CURVE SMOOTH",
"389 -132 OFFCURVE",
"464 -182 OFFCURVE",
"567 -301 CURVE SMOOTH",
"666 -416 OFFCURVE",
"751 -470 OFFCURVE",
"848 -470 CURVE SMOOTH",
"980 -470 OFFCURVE",
"1062 -389 OFFCURVE",
"1062 -269 CURVE SMOOTH",
"1062 -176 OFFCURVE",
"1032 -109 OFFCURVE",
"972 -68 CURVE",
"848 -151 LINE",
"883 -178 OFFCURVE",
"909 -224 OFFCURVE",
"909 -259 CURVE SMOOTH",
"909 -306 OFFCURVE",
"883 -328 OFFCURVE",
"844 -328 CURVE SMOOTH",
"815 -328 OFFCURVE",
"787 -317 OFFCURVE",
"760 -295 CURVE SMOOTH",
"733 -274 OFFCURVE",
"689 -228 OFFCURVE",
"629 -159 CURVE SMOOTH",
"532 -46 OFFCURVE",
"420 10 OFFCURVE",
"293 10 CURVE SMOOTH",
"121 10 OFFCURVE",
"0 -104 OFFCURVE",
"0 -271 CURVE SMOOTH",
"0 -452 OFFCURVE",
"117 -560 OFFCURVE",
"312 -560 CURVE SMOOTH"
);
}
);
width = 0;
}
);
note = g68;
},
{
glyphname = g69;
lastChange = "2016-11-10 14:09:55 +0000";
layers = (
{
layerId = "614620BD-4CC0-4507-9D91-582C8BAD68CE";
paths = (
{
closed = 1;
nodes = (
"346 -560 OFFCURVE",
"378 -555 OFFCURVE",
"408 -545 CURVE",
"386 -408 LINE",
"367 -415 OFFCURVE",
"343 -418 OFFCURVE",
"312 -418 CURVE SMOOTH",
"224 -418 OFFCURVE",
"153 -356 OFFCURVE",
"153 -271 CURVE SMOOTH",
"153 -190 OFFCURVE",
"219 -132 OFFCURVE",
"302 -132 CURVE SMOOTH",
"389 -132 OFFCURVE",
"464 -182 OFFCURVE",
"567 -301 CURVE SMOOTH",
"666 -416 OFFCURVE",
"751 -470 OFFCURVE",
"848 -470 CURVE SMOOTH",
"980 -470 OFFCURVE",
"1062 -389 OFFCURVE",
"1062 -269 CURVE SMOOTH",
"1062 -176 OFFCURVE",
"1032 -109 OFFCURVE",
"972 -68 CURVE",
"848 -151 LINE",
"883 -178 OFFCURVE",
"909 -224 OFFCURVE",
"909 -259 CURVE SMOOTH",
"909 -306 OFFCURVE",
"883 -328 OFFCURVE",
"844 -328 CURVE SMOOTH",
"783 -328 OFFCURVE",
"734 -278 OFFCURVE",
"681 -218 CURVE",
"795 -70 LINE",
"689 12 LINE",
"588 -118 LINE",
"499 -33 OFFCURVE",
"401 10 OFFCURVE",
"293 10 CURVE SMOOTH",
"121 10 OFFCURVE",
"0 -104 OFFCURVE",
"0 -271 CURVE SMOOTH",
"0 -452 OFFCURVE",
"117 -560 OFFCURVE",
"312 -560 CURVE SMOOTH"
);
}
);
width = 0;
}
);
note = g69;
},
{
glyphname = g70;
lastChange = "2016-11-10 14:09:55 +0000";
layers = (
{
layerId = "614620BD-4CC0-4507-9D91-582C8BAD68CE";
paths = (
{
closed = 1;
nodes = (
"0 1298 LINE",
"0 1462 LINE",
"-570 1462 LINE",
"-570 1298 LINE"
);
}
);
width = 0;
}
);
note = g70;
},
{
glyphname = g71;
lastChange = "2016-11-10 14:09:55 +0000";
layers = (
{
layerId = "614620BD-4CC0-4507-9D91-582C8BAD68CE";
paths = (
{
closed = 1;
nodes = (
"0 1626 LINE",
"0 1790 LINE",
"-550 1790 LINE",
"-550 1626 LINE"
);
},
{
closed = 1;
nodes = (
"0 1298 LINE",
"0 1462 LINE",
"-550 1462 LINE",
"-550 1298 LINE"
);
}
);
width = 0;
}
);
note = g71;
},
{
glyphname = g72;
lastChange = "2016-11-10 14:09:55 +0000";
layers = (
{
layerId = "614620BD-4CC0-4507-9D91-582C8BAD68CE";
paths = (
{
closed = 1;
nodes = (
"1224 1298 LINE",
"1224 1462 LINE",
"654 1462 LINE",
"654 1298 LINE"
);
},
{
closed = 1;
nodes = (
"570 1134 LINE",
"570 1298 LINE",
"0 1298 LINE",
"0 1134 LINE"
);
}
);
width = 0;
}
);
note = g72;
},
{
glyphname = g73;
lastChange = "2016-11-10 14:09:55 +0000";
layers = (
{
layerId = "614620BD-4CC0-4507-9D91-582C8BAD68CE";
paths = (
{
closed = 1;
nodes = (
"1224 1134 LINE",
"1224 1298 LINE",
"654 1298 LINE",
"654 1134 LINE"
);
},
{
closed = 1;
nodes = (
"570 970 LINE",
"570 1134 LINE",
"0 1134 LINE",
"0 970 LINE"
);
},
{
closed = 1;
nodes = (
"570 1298 LINE",
"570 1462 LINE",
"0 1462 LINE",
"0 1298 LINE"
);
}
);
width = 0;
}
);
note = g73;
},
{
glyphname = g74;
lastChange = "2016-11-10 14:09:55 +0000";
layers = (
{
layerId = "614620BD-4CC0-4507-9D91-582C8BAD68CE";
paths = (
{
closed = 1;
nodes = (
"594 1640 LINE",
"594 1804 LINE",
"0 1804 LINE",
"0 1640 LINE"
);
}
);
width = 0;
}
);
note = g74;
},
{
glyphname = g75;
lastChange = "2016-11-10 14:09:55 +0000";
layers = (
{
layerId = "614620BD-4CC0-4507-9D91-582C8BAD68CE";
paths = (
{
closed = 1;
nodes = (
"426 0 LINE",
"426 1690 LINE",
"280 1690 LINE",
"280 0 LINE"
);
}
);
width = 706;
}
);
note = g75;
},
{
glyphname = g76;
lastChange = "2016-11-10 14:09:55 +0000";
layers = (
{
layerId = "614620BD-4CC0-4507-9D91-582C8BAD68CE";
paths = (
{
closed = 1;
nodes = (
"726 0 LINE",
"726 1690 LINE",
"580 1690 LINE",
"580 0 LINE"
);
},
{
closed = 1;
nodes = (
"426 0 LINE",
"426 1690 LINE",
"280 1690 LINE",
"280 0 LINE"
);
}
);
width = 1006;
}
);
note = g76;
},
{
glyphname = g77;
lastChange = "2016-11-10 14:09:55 +0000";
layers = (
{
layerId = "614620BD-4CC0-4507-9D91-582C8BAD68CE";
paths = (
{
closed = 1;
nodes = (
"770 680 LINE",
"770 844 LINE",
"300 844 LINE",
"300 680 LINE"
);
}
);
width = 1070;
}
);
note = g77;
},
{
glyphname = g78;
lastChange = "2016-11-10 14:09:55 +0000";
layers = (
{
layerId = "614620BD-4CC0-4507-9D91-582C8BAD68CE";
paths = (
{
closed = 1;
nodes = (
"770 844 LINE",
"770 1008 LINE",
"300 1008 LINE",
"300 844 LINE"
);
},
{
closed = 1;
nodes = (
"770 516 LINE",
"770 680 LINE",
"300 680 LINE",
"300 516 LINE"
);
}
);
width = 1070;
}
);
note = g78;
},
{
glyphname = g79;
lastChange = "2016-11-10 14:09:55 +0000";
layers = (
{
layerId = "614620BD-4CC0-4507-9D91-582C8BAD68CE";
paths = (
{
closed = 1;
nodes = (
"1870 680 LINE",
"1870 844 LINE",
"100 844 LINE",
"100 680 LINE"
);
}
);
width = 1970;
}
);
note = g79;
},
{
glyphname = g80;
lastChange = "2016-11-10 14:09:55 +0000";
layers = (
{
layerId = "614620BD-4CC0-4507-9D91-582C8BAD68CE";
paths = (
{
closed = 1;
nodes = (
"1168 -20 OFFCURVE",
"1417 242 OFFCURVE",
"1433 682 CURVE",
"1734 682 LINE",
"1734 844 LINE",
"1430 844 LINE",
"1391 1252 OFFCURVE",
"1150 1485 OFFCURVE",
"763 1485 CURVE SMOOTH",
"488 1485 OFFCURVE",
"289 1375 OFFCURVE",
"182 1176 CURVE",
"361 1114 LINE",
"440 1253 OFFCURVE",
"574 1323 OFFCURVE",
"763 1323 CURVE SMOOTH",
"1046 1323 OFFCURVE",
"1204 1163 OFFCURVE",
"1235 844 CURVE",
"100 844 LINE",
"100 682 LINE",
"1239 682 LINE",
"1224 323 OFFCURVE",
"1061 139 OFFCURVE",
"761 139 CURVE SMOOTH",
"536 139 OFFCURVE",
"389 241 OFFCURVE",
"320 446 CURVE",
"134 403 LINE",
"226 127 OFFCURVE",
"441 -20 OFFCURVE",
"761 -20 CURVE SMOOTH"
);
}
);
width = 1834;
}
);
note = g80;
},
{
glyphname = g81;
lastChange = "2016-11-10 14:09:55 +0000";
layers = (
{
layerId = "614620BD-4CC0-4507-9D91-582C8BAD68CE";
paths = (
{
closed = 1;
nodes = (
"1017 -165 OFFCURVE",
"1172 23 OFFCURVE",
"1209 92 CURVE",
"1263 74 OFFCURVE",
"1341 65 OFFCURVE",
"1442 65 CURVE SMOOTH",
"1478 65 OFFCURVE",
"1580 69 OFFCURVE",
"1593 72 CURVE",
"1598 219 LINE SMOOTH",
"1598 320 OFFCURVE",
"1589 399 OFFCURVE",
"1571 456 CURVE",
"1588 464 OFFCURVE",
"1607 476 OFFCURVE",
"1628 491 CURVE SMOOTH",
"1668 521 OFFCURVE",
"1709 557 OFFCURVE",
"1746 594 CURVE SMOOTH",
"1783 631 OFFCURVE",
"1813 663 OFFCURVE",
"1833 686 CURVE SMOOTH",
"1843 697 OFFCURVE",
"1849 704 OFFCURVE",
"1852 707 CURVE",
"1834 729 OFFCURVE",
"1804 761 OFFCURVE",
"1763 804 CURVE SMOOTH",
"1680 888 OFFCURVE",
"1612 942 OFFCURVE",
"1568 961 CURVE",
"1588 1014 OFFCURVE",
"1598 1092 OFFCURVE",
"1598 1196 CURVE",
"1593 1344 LINE",
"1590 1344 OFFCURVE",
"1583 1344 OFFCURVE",
"1574 1345 CURVE SMOOTH",
"1564 1346 OFFCURVE",
"1552 1346 OFFCURVE",
"1539 1347 CURVE",
"1511 1348 OFFCURVE",
"1477 1350 OFFCURVE",
"1442 1350 CURVE SMOOTH",
"1341 1350 OFFCURVE",
"1263 1341 OFFCURVE",
"1209 1323 CURVE",
"1157 1414 OFFCURVE",
"1011 1584 OFFCURVE",
"956 1608 CURVE",
"861 1532 OFFCURVE",
"739 1403 OFFCURVE",
"704 1327 CURVE",
"645 1342 OFFCURVE",
"567 1350 OFFCURVE",
"469 1350 CURVE SMOOTH",
"452 1350 OFFCURVE",
"435 1350 OFFCURVE",
"419 1349 CURVE SMOOTH",
"386 1348 OFFCURVE",
"358 1346 OFFCURVE",
"339 1345 CURVE",
"329 1344 OFFCURVE",
"322 1344 OFFCURVE",
"319 1344 CURVE",
"314 1196 LINE SMOOTH",
"314 1092 OFFCURVE",
"324 1014 OFFCURVE",
"344 961 CURVE",
"264 925 OFFCURVE",
"132 796 OFFCURVE",
"60 707 CURVE",
"103 650 OFFCURVE",
"264 491 OFFCURVE",
"341 456 CURVE",
"323 399 OFFCURVE",
"314 320 OFFCURVE",
"314 219 CURVE SMOOTH",
"319 72 LINE",
"332 69 OFFCURVE",
"428 65 OFFCURVE",
"469 65 CURVE SMOOTH",
"546 65 OFFCURVE",
"624 75 OFFCURVE",
"701 94 CURVE",
"730 23 OFFCURVE",
"853 -112 OFFCURVE",
"956 -193 CURVE"
);
},
{
closed = 1;
nodes = (
"798 513 OFFCURVE",
"817 522 OFFCURVE",
"840 540 CURVE SMOOTH",
"887 576 OFFCURVE",
"936 643 OFFCURVE",
"936 672 CURVE SMOOTH",
"936 681 OFFCURVE",
"932 686 OFFCURVE",
"924 686 CURVE",
"881 682 OFFCURVE",
"774 568 OFFCURVE",
"774 525 CURVE SMOOTH",
"774 520 OFFCURVE",
"775 517 OFFCURVE",
"778 515 CURVE",
"785 513 LINE"
);
},
{
closed = 1;
nodes = (
"838 676 OFFCURVE",
"865 679 OFFCURVE",
"888 686 CURVE",
"911 692 OFFCURVE",
"922 699 OFFCURVE",
"922 708 CURVE SMOOTH",
"922 717 OFFCURVE",
"910 725 OFFCURVE",
"887 731 CURVE",
"863 736 OFFCURVE",
"836 739 OFFCURVE",
"807 739 CURVE SMOOTH",
"776 739 OFFCURVE",
"749 736 OFFCURVE",
"727 730 CURVE SMOOTH",
"705 724 OFFCURVE",
"694 717 OFFCURVE",
"694 708 CURVE SMOOTH",
"694 699 OFFCURVE",
"705 691 OFFCURVE",
"727 685 CURVE SMOOTH",
"749 679 OFFCURVE",
"776 676 OFFCURVE",
"807 676 CURVE SMOOTH"
);
},
{
closed = 1;
nodes = (
"965 446 OFFCURVE",
"973 457 OFFCURVE",
"979 479 CURVE SMOOTH",
"985 500 OFFCURVE",
"988 527 OFFCURVE",
"988 559 CURVE SMOOTH",
"988 590 OFFCURVE",
"985 617 OFFCURVE",
"979 640 CURVE",
"972 663 OFFCURVE",
"965 674 OFFCURVE",
"956 674 CURVE SMOOTH",
"947 674 OFFCURVE",
"939 662 OFFCURVE",
"934 639 CURVE SMOOTH",
"928 615 OFFCURVE",
"925 588 OFFCURVE",
"925 559 CURVE SMOOTH",
"925 527 OFFCURVE",
"928 500 OFFCURVE",
"934 479 CURVE",
"939 457 OFFCURVE",
"947 446 OFFCURVE",
"956 446 CURVE SMOOTH"
);
},
{
closed = 1;
nodes = (
"1134 513 OFFCURVE",
"1138 517 OFFCURVE",
"1138 525 CURVE SMOOTH",
"1138 539 OFFCURVE",
"1127 560 OFFCURVE",
"1106 588 CURVE SMOOTH",
"1062 644 OFFCURVE",
"1012 686 OFFCURVE",
"988 686 CURVE SMOOTH",
"980 686 OFFCURVE",
"976 681 OFFCURVE",
"976 672 CURVE SMOOTH",
"976 658 OFFCURVE",
"986 637 OFFCURVE",
"1006 610 CURVE SMOOTH",
"1046 554 OFFCURVE",
"1099 513 OFFCURVE",
"1126 513 CURVE SMOOTH"
);
},
{
closed = 1;
nodes = (
"877 -44 OFFCURVE",
"771 90 OFFCURVE",
"771 131 CURVE SMOOTH",
"771 176 OFFCURVE",
"812 285 OFFCURVE",
"881 402 CURVE",
"815 447 LINE",
"752 313 OFFCURVE",
"713 221 OFFCURVE",
"699 172 CURVE",
"671 152 OFFCURVE",
"551 132 OFFCURVE",
"474 132 CURVE SMOOTH",
"438 132 OFFCURVE",
"409 134 OFFCURVE",
"387 139 CURVE",
"383 157 OFFCURVE",
"381 184 OFFCURVE",
"381 220 CURVE SMOOTH",
"381 311 OFFCURVE",
"399 421 OFFCURVE",
"419 441 CURVE",
"433 452 LINE",
"490 468 OFFCURVE",
"580 506 OFFCURVE",
"701 567 CURVE",
"654 634 LINE",
"553 573 OFFCURVE",
"439 524 OFFCURVE",
"384 524 CURVE SMOOTH",
"343 524 OFFCURVE",
"213 627 OFFCURVE",
"156 708 CURVE",
"204 777 OFFCURVE",
"341 892 OFFCURVE",
"384 892 CURVE SMOOTH",
"393 892 OFFCURVE",
"414 888 OFFCURVE",
"449 879 CURVE",
"485 862 OFFCURVE",
"560 833 OFFCURVE",
"673 791 CURVE",
"688 873 LINE",
"595 893 OFFCURVE",
"464 944 OFFCURVE",
"419 985 CURVE",
"398 1006 OFFCURVE",
"381 1107 OFFCURVE",
"381 1195 CURVE SMOOTH",
"381 1232 OFFCURVE",
"383 1259 OFFCURVE",
"387 1277 CURVE",
"412 1281 OFFCURVE",
"441 1283 OFFCURVE",
"474 1283 CURVE SMOOTH",
"542 1283 OFFCURVE",
"651 1264 OFFCURVE",
"699 1240 CURVE",
"721 1170 OFFCURVE",
"760 1080 OFFCURVE",
"815 969 CURVE",
"881 1014 LINE",
"812 1133 OFFCURVE",
"771 1240 OFFCURVE",
"771 1284 CURVE SMOOTH",
"771 1327 OFFCURVE",
"881 1461 OFFCURVE",
"956 1512 CURVE",
"1036 1456 OFFCURVE",
"1140 1328 OFFCURVE",
"1140 1284 CURVE SMOOTH",
"1140 1235 OFFCURVE",
"1099 1134 OFFCURVE",
"1030 1014 CURVE",
"1096 969 LINE",
"1144 1070 OFFCURVE",
"1177 1143 OFFCURVE",
"1195 1188 CURVE",
"1212 1224 OFFCURVE",
"1228 1246 OFFCURVE",
"1245 1255 CURVE",
"1278 1271 OFFCURVE",
"1355 1283 OFFCURVE",
"1438 1283 CURVE SMOOTH",
"1471 1283 OFFCURVE",
"1500 1281 OFFCURVE",
"1525 1277 CURVE",
"1528 1257 OFFCURVE",
"1530 1230 OFFCURVE",
"1530 1195 CURVE SMOOTH",
"1530 1098 OFFCURVE",
"1513 1005 OFFCURVE",
"1493 985 CURVE",
"1448 944 OFFCURVE",
"1316 892 OFFCURVE",
"1223 873 CURVE",
"1239 791 LINE",
"1352 833 OFFCURVE",
"1427 862 OFFCURVE",
"1463 879 CURVE",
"1498 888 OFFCURVE",
"1519 892 OFFCURVE",
"1528 892 CURVE SMOOTH",
"1571 892 OFFCURVE",
"1701 781 OFFCURVE",
"1756 708 CURVE",
"1701 631 OFFCURVE",
"1571 524 OFFCURVE",
"1528 524 CURVE SMOOTH",
"1476 524 OFFCURVE",
"1370 567 OFFCURVE",
"1257 634 CURVE",
"1211 567 LINE",
"1324 510 OFFCURVE",
"1414 472 OFFCURVE",
"1479 452 CURVE",
"1493 441 LINE",
"1513 422 OFFCURVE",
"1530 321 OFFCURVE",
"1530 220 CURVE SMOOTH",
"1530 186 OFFCURVE",
"1528 159 OFFCURVE",
"1525 139 CURVE",
"1503 134 OFFCURVE",
"1474 132 OFFCURVE",
"1438 132 CURVE SMOOTH",
"1391 132 OFFCURVE",
"1349 135 OFFCURVE",
"1312 142 CURVE SMOOTH",
"1238 155 OFFCURVE",
"1226 164 OFFCURVE",
"1195 228 CURVE SMOOTH",
"1133 367 LINE",
"1096 447 LINE",
"1030 402 LINE",
"1098 285 OFFCURVE",
"1140 180 OFFCURVE",
"1140 131 CURVE SMOOTH",
"1140 90 OFFCURVE",
"1037 -40 OFFCURVE",
"956 -97 CURVE"
);
},
{
closed = 1;
nodes = (
"932 733 LINE",
"934 735 OFFCURVE",
"935 738 OFFCURVE",
"935 743 CURVE SMOOTH",
"935 756 OFFCURVE",
"926 775 OFFCURVE",
"908 801 CURVE SMOOTH",
"872 852 OFFCURVE",
"810 904 OFFCURVE",
"785 904 CURVE",
"778 900 LINE",
"775 898 OFFCURVE",
"774 895 OFFCURVE",
"774 890 CURVE SMOOTH",
"774 877 OFFCURVE",
"784 858 OFFCURVE",
"803 832 CURVE SMOOTH",
"841 779 OFFCURVE",
"899 731 OFFCURVE",
"924 731 CURVE"
);
},
{
closed = 1;
nodes = (
"1135 676 OFFCURVE",
"1162 679 OFFCURVE",
"1185 686 CURVE",
"1208 692 OFFCURVE",
"1219 699 OFFCURVE",
"1219 708 CURVE SMOOTH",
"1219 717 OFFCURVE",
"1207 725 OFFCURVE",
"1184 731 CURVE",
"1160 736 OFFCURVE",
"1133 739 OFFCURVE",
"1104 739 CURVE SMOOTH",
"1073 739 OFFCURVE",
"1046 736 OFFCURVE",
"1024 730 CURVE SMOOTH",
"1002 724 OFFCURVE",
"991 717 OFFCURVE",
"991 708 CURVE SMOOTH",
"991 699 OFFCURVE",
"1002 691 OFFCURVE",
"1024 685 CURVE SMOOTH",
"1046 679 OFFCURVE",
"1073 676 OFFCURVE",
"1104 676 CURVE SMOOTH"
);
},
{
closed = 1;
nodes = (
"965 743 OFFCURVE",
"973 754 OFFCURVE",
"979 776 CURVE SMOOTH",
"985 798 OFFCURVE",
"988 825 OFFCURVE",
"988 856 CURVE SMOOTH",
"988 887 OFFCURVE",
"985 914 OFFCURVE",
"979 937 CURVE",
"972 960 OFFCURVE",
"965 971 OFFCURVE",
"956 971 CURVE SMOOTH",
"947 971 OFFCURVE",
"939 959 OFFCURVE",
"934 936 CURVE SMOOTH",
"928 912 OFFCURVE",
"925 885 OFFCURVE",
"925 856 CURVE SMOOTH",
"925 825 OFFCURVE",
"928 798 OFFCURVE",
"934 776 CURVE",
"939 754 OFFCURVE",
"947 743 OFFCURVE",
"956 743 CURVE SMOOTH"
);
},
{
closed = 1;
nodes = (
"1001 731 OFFCURVE",
"1019 740 OFFCURVE",
"1042 758 CURVE SMOOTH",
"1088 794 OFFCURVE",
"1138 862 OFFCURVE",
"1138 890 CURVE SMOOTH",
"1138 898 OFFCURVE",
"1133 904 OFFCURVE",
"1126 904 CURVE SMOOTH",
"1113 904 OFFCURVE",
"1095 894 OFFCURVE",
"1070 873 CURVE SMOOTH",
"1021 832 OFFCURVE",
"977 770 OFFCURVE",
"977 743 CURVE SMOOTH",
"977 735 OFFCURVE",
"981 731 OFFCURVE",
"988 731 CURVE SMOOTH"
);
}
);
width = 1912;
}
);
note = g81;
},
{
glyphname = g82;
lastChange = "2016-11-10 14:09:55 +0000";
layers = (
{
layerId = "614620BD-4CC0-4507-9D91-582C8BAD68CE";
paths = (
{
closed = 1;
nodes = (
"1374 616 LINE",
"1374 780 LINE",
"200 780 LINE",
"200 616 LINE"
);
}
);
width = 1574;
}
);
note = g82;
},
{
glyphname = g83;
lastChange = "2016-11-10 14:09:55 +0000";
layers = (
{
layerId = "614620BD-4CC0-4507-9D91-582C8BAD68CE";
paths = (
{
closed = 1;
nodes = (
"1374 815 LINE",
"1374 979 LINE",
"200 979 LINE",
"200 815 LINE"
);
},
{
closed = 1;
nodes = (
"1374 415 LINE",
"1374 579 LINE",
"200 579 LINE",
"200 415 LINE"
);
}
);
width = 1574;
}
);
note = g83;
},
{
glyphname = g84;
lastChange = "2016-11-10 14:09:55 +0000";
layers = (
{
layerId = "614620BD-4CC0-4507-9D91-582C8BAD68CE";
paths = (
{
closed = 1;
nodes = (
"1372 1016 LINE",
"1372 1180 LINE",
"198 1180 LINE",
"198 1016 LINE"
);
},
{
closed = 1;
nodes = (
"1372 216 LINE",
"1372 380 LINE",
"198 380 LINE",
"198 216 LINE"
);
},
{
closed = 1;
nodes = (
"1372 616 LINE",
"1372 780 LINE",
"198 780 LINE",
"198 616 LINE"
);
}
);
width = 1620;
}
);
note = g84;
},
{
glyphname = g85;
lastChange = "2016-11-10 14:09:55 +0000";
layers = (
{
layerId = "614620BD-4CC0-4507-9D91-582C8BAD68CE";
paths = (
{
closed = 1;
nodes = (
"904 74 LINE",
"904 616 LINE",
"1424 616 LINE",
"1424 780 LINE",
"904 780 LINE",
"904 1298 LINE",
"720 1298 LINE",
"720 780 LINE",
"200 780 LINE",
"200 616 LINE",
"720 616 LINE",
"720 74 LINE"
);
}
);
width = 1624;
}
);
note = g85;
},
{
glyphname = g86;
lastChange = "2016-11-10 14:09:55 +0000";
layers = (
{
layerId = "614620BD-4CC0-4507-9D91-582C8BAD68CE";
paths = (
{
closed = 1;
nodes = (
"484 0 LINE",
"484 845 LINE",
"523 858 OFFCURVE",
"567 864 OFFCURVE",
"616 864 CURVE SMOOTH",
"795 864 OFFCURVE",
"862 784 OFFCURVE",
"862 599 CURVE SMOOTH",
"862 349 LINE",
"1046 349 LINE",
"1046 634 LINE SMOOTH",
"1046 914 OFFCURVE",
"905 1035 OFFCURVE",
"638 1035 CURVE SMOOTH",
"585 1035 OFFCURVE",
"534 1027 OFFCURVE",
"484 1012 CURVE",
"484 1462 LINE",
"300 1462 LINE",
"300 0 LINE"
);
}
);
width = 1246;
}
);
note = g86;
},
{
glyphname = g87;
lastChange = "2016-11-10 14:09:55 +0000";
layers = (
{
layerId = "614620BD-4CC0-4507-9D91-582C8BAD68CE";
paths = (
{
closed = 1;
nodes = (
"908 -20 OFFCURVE",
"981 -16 OFFCURVE",
"1056 -8 CURVE",
"1056 158 LINE",
"985 149 OFFCURVE",
"916 144 OFFCURVE",
"848 144 CURVE SMOOTH",
"505 144 OFFCURVE",
"365 249 OFFCURVE",
"365 460 CURVE SMOOTH",
"365 587 OFFCURVE",
"473 685 OFFCURVE",
"605 685 CURVE SMOOTH",
"622 685 OFFCURVE",
"643 683 OFFCURVE",
"668 678 CURVE SMOOTH",
"766 658 LINE",
"766 822 LINE",
"668 842 LINE SMOOTH",
"618 851 OFFCURVE",
"573 869 OFFCURVE",
"533 895 CURVE SMOOTH",
"452 947 OFFCURVE",
"402 1024 OFFCURVE",
"402 1127 CURVE SMOOTH",
"402 1240 OFFCURVE",
"488 1317 OFFCURVE",
"609 1317 CURVE SMOOTH",
"722 1317 OFFCURVE",
"806 1282 OFFCURVE",
"893 1206 CURVE",
"1044 1294 LINE",
"990 1348 OFFCURVE",
"944 1386 OFFCURVE",
"907 1408 CURVE SMOOTH",
"832 1452 OFFCURVE",
"737 1481 OFFCURVE",
"609 1481 CURVE SMOOTH",
"530 1481 OFFCURVE",
"462 1464 OFFCURVE",
"403 1431 CURVE SMOOTH",
"286 1364 OFFCURVE",
"216 1243 OFFCURVE",
"216 1124 CURVE SMOOTH",
"216 965 OFFCURVE",
"261 870 OFFCURVE",
"405 763 CURVE",
"262 700 OFFCURVE",
"180 584 OFFCURVE",
"180 445 CURVE SMOOTH",
"180 133 OFFCURVE",
"389 -20 OFFCURVE",
"837 -20 CURVE SMOOTH"
);
}
);
width = 1236;
}
);
note = g87;
},
{
glyphname = g88;
lastChange = "2016-11-10 14:09:55 +0000";
layers = (
{
layerId = "614620BD-4CC0-4507-9D91-582C8BAD68CE";
paths = (
{
closed = 1;
nodes = (
"404 0 LINE",
"620 269 LINE SMOOTH",
"742 420 OFFCURVE",
"828 536 OFFCURVE",
"878 617 CURVE SMOOTH",
"978 777 OFFCURVE",
"1040 930 OFFCURVE",
"1040 1081 CURVE SMOOTH",
"1040 1325 OFFCURVE",
"879 1486 OFFCURVE",
"622 1486 CURVE SMOOTH",
"358 1486 OFFCURVE",
"180 1329 OFFCURVE",
"180 1082 CURVE SMOOTH",
"180 1033 OFFCURVE",
"186 987 OFFCURVE",
"198 945 CURVE",
"381 969 LINE",
"371 1007 OFFCURVE",
"366 1047 OFFCURVE",
"366 1088 CURVE SMOOTH",
"366 1243 OFFCURVE",
"458 1322 OFFCURVE",
"622 1322 CURVE SMOOTH",
"761 1322 OFFCURVE",
"854 1223 OFFCURVE",
"854 1076 CURVE SMOOTH",
"854 891 OFFCURVE",
"741 678 OFFCURVE",
"442 319 CURVE SMOOTH",
"184 0 LINE"
);
}
);
width = 1220;
}
);
note = g88;
},
{
glyphname = g89;
lastChange = "2016-11-10 14:09:55 +0000";
layers = (
{
layerId = "614620BD-4CC0-4507-9D91-582C8BAD68CE";
paths = (
{
closed = 1;
nodes = (
"600 0 LINE",
"817 269 LINE SMOOTH",
"912 388 OFFCURVE",
"976 477 OFFCURVE",
"1007 536 CURVE SMOOTH",
"1038 595 OFFCURVE",
"1054 654 OFFCURVE",
"1054 713 CURVE SMOOTH",
"1054 856 OFFCURVE",
"955 950 OFFCURVE",
"799 950 CURVE SMOOTH",
"600 950 LINE SMOOTH",
"425 950 OFFCURVE",
"364 1021 OFFCURVE",
"364 1212 CURVE SMOOTH",
"364 1462 LINE",
"180 1462 LINE",
"180 1177 LINE SMOOTH",
"180 906 OFFCURVE",
"301 788 OFFCURVE",
"578 788 CURVE SMOOTH",
"766 788 LINE SMOOTH",
"826 788 OFFCURVE",
"868 752 OFFCURVE",
"868 695 CURVE SMOOTH",
"868 660 OFFCURVE",
"854 618 OFFCURVE",
"825 569 CURVE SMOOTH",
"796 519 OFFCURVE",
"744 448 OFFCURVE",
"669 357 CURVE SMOOTH",
"381 0 LINE"
);
}
);
width = 1234;
}
);
note = g89;
},
{
glyphname = g90;
lastChange = "2016-11-10 14:09:55 +0000";
layers = (
{
layerId = "614620BD-4CC0-4507-9D91-582C8BAD68CE";
paths = (
{
closed = 1;
nodes = (
"407 0 LINE",
"407 565 LINE SMOOTH",
"407 652 OFFCURVE",
"449 711 OFFCURVE",
"541 760 CURVE SMOOTH",
"674 832 OFFCURVE",
"720 864 OFFCURVE",
"761 921 CURVE SMOOTH",
"802 978 OFFCURVE",
"829 1056 OFFCURVE",
"829 1169 CURVE SMOOTH",
"829 1364 OFFCURVE",
"685 1462 OFFCURVE",
"416 1462 CURVE SMOOTH",
"200 1462 LINE",
"200 1298 LINE",
"393 1298 LINE SMOOTH",
"565 1298 OFFCURVE",
"644 1257 OFFCURVE",
"644 1148 CURVE SMOOTH",
"644 1110 OFFCURVE",
"637 1077 OFFCURVE",
"623 1049 CURVE SMOOTH",
"595 992 OFFCURVE",
"557 954 OFFCURVE",
"434 887 CURVE SMOOTH",
"371 853 OFFCURVE",
"327 825 OFFCURVE",
"302 803 CURVE SMOOTH",
"251 758 OFFCURVE",
"223 703 OFFCURVE",
"223 630 CURVE SMOOTH",
"223 0 LINE"
);
}
);
width = 1009;
}
);
note = g90;
},
{
glyphname = g91;
lastChange = "2016-11-10 14:09:55 +0000";
layers = (
{
layerId = "614620BD-4CC0-4507-9D91-582C8BAD68CE";
paths = (
{
closed = 1;
nodes = (
"1140 -30 OFFCURVE",
"1356 65 OFFCURVE",
"1469 240 CURVE",
"1565 120 OFFCURVE",
"1723 50 OFFCURVE",
"1936 50 CURVE",
"1935 212 LINE",
"1856 212 OFFCURVE",
"1788 226 OFFCURVE",
"1731 254 CURVE SMOOTH",
"1618 310 OFFCURVE",
"1555 414 OFFCURVE",
"1555 545 CURVE SMOOTH",
"1555 757 OFFCURVE",
"1699 886 OFFCURVE",
"1935 886 CURVE",
"1935 1048 LINE",
"1727 1048 OFFCURVE",
"1567 978 OFFCURVE",
"1470 855 CURVE",
"1362 1026 OFFCURVE",
"1145 1130 OFFCURVE",
"870 1130 CURVE SMOOTH",
"731 1130 OFFCURVE",
"609 1107 OFFCURVE",
"505 1060 CURVE SMOOTH",
"296 967 OFFCURVE",
"180 784 OFFCURVE",
"180 551 CURVE SMOOTH",
"180 436 OFFCURVE",
"209 335 OFFCURVE",
"266 247 CURVE SMOOTH",
"380 70 OFFCURVE",
"598 -30 OFFCURVE",
"863 -30 CURVE SMOOTH"
);
},
{
closed = 1;
nodes = (
"548 134 OFFCURVE",
"366 288 OFFCURVE",
"366 551 CURVE SMOOTH",
"366 818 OFFCURVE",
"550 966 OFFCURVE",
"865 966 CURVE SMOOTH",
"1181 966 OFFCURVE",
"1369 818 OFFCURVE",
"1369 551 CURVE SMOOTH",
"1369 287 OFFCURVE",
"1185 134 OFFCURVE",
"868 134 CURVE SMOOTH"
);
}
);
width = 2116;
}
);
note = g91;
},
{
glyphname = g92;
lastChange = "2016-11-10 14:09:55 +0000";
layers = (
{
layerId = "614620BD-4CC0-4507-9D91-582C8BAD68CE";
paths = (
{
closed = 1;
nodes = (
"1269 -20 OFFCURVE",
"1514 258 OFFCURVE",
"1514 733 CURVE SMOOTH",
"1514 1208 OFFCURVE",
"1271 1485 OFFCURVE",
"850 1485 CURVE SMOOTH",
"419 1485 OFFCURVE",
"180 1218 OFFCURVE",
"180 735 CURVE SMOOTH",
"180 248 OFFCURVE",
"420 -20 OFFCURVE",
"848 -20 CURVE SMOOTH"
);
},
{
closed = 1;
nodes = (
"549 139 OFFCURVE",
"382 326 OFFCURVE",
"367 682 CURVE",
"1326 682 LINE",
"1311 323 OFFCURVE",
"1148 139 OFFCURVE",
"848 139 CURVE SMOOTH"
);
},
{
closed = 1;
nodes = (
"400 1157 OFFCURVE",
"565 1323 OFFCURVE",
"850 1323 CURVE SMOOTH",
"1133 1323 OFFCURVE",
"1291 1163 OFFCURVE",
"1322 844 CURVE",
"371 844 LINE"
);
}
);
width = 1694;
}
);
note = g92;
},
{
glyphname = g93;
lastChange = "2016-11-10 14:09:55 +0000";
layers = (
{
layerId = "614620BD-4CC0-4507-9D91-582C8BAD68CE";
paths = (
{
closed = 1;
nodes = (
"186 -220 LINE",
"186 -113 OFFCURVE",
"248 -28 OFFCURVE",
"365 44 CURVE SMOOTH",
"423 79 OFFCURVE",
"541 132 OFFCURVE",
"720 202 CURVE SMOOTH",
"843 249 OFFCURVE",
"943 297 OFFCURVE",
"1020 345 CURVE SMOOTH",
"1175 440 OFFCURVE",
"1254 566 OFFCURVE",
"1254 722 CURVE SMOOTH",
"1254 890 OFFCURVE",
"1186 1027 OFFCURVE",
"1050 1134 CURVE",
"1583 1134 LINE",
"1583 1298 LINE",
"520 1298 LINE",
"520 1134 LINE",
"785 1134 LINE",
"840 1111 OFFCURVE",
"889 1078 OFFCURVE",
"932 1036 CURVE SMOOTH",
"1018 951 OFFCURVE",
"1068 843 OFFCURVE",
"1068 751 CURVE SMOOTH",
"1068 622 OFFCURVE",
"1001 522 OFFCURVE",
"867 442 CURVE SMOOTH",
"800 402 OFFCURVE",
"689 353 OFFCURVE",
"534 295 CURVE SMOOTH",
"402 245 OFFCURVE",
"299 197 OFFCURVE",
"226 152 CURVE SMOOTH",
"78 61 OFFCURVE",
"0 -63 OFFCURVE",
"0 -220 CURVE"
);
}
);
width = 1763;
}
);
note = g93;
},
{
glyphname = g94;
lastChange = "2016-11-10 14:09:55 +0000";
layers = (
{
layerId = "614620BD-4CC0-4507-9D91-582C8BAD68CE";
paths = (
{
closed = 1;
nodes = (
"1509 -220 LINE",
"1509 -23 OFFCURVE",
"1450 123 OFFCURVE",
"1335 215 CURVE SMOOTH",
"1219 307 OFFCURVE",
"1046 353 OFFCURVE",
"746 353 CURVE SMOOTH",
"632 353 LINE",
"1531 1298 LINE",
"1321 1298 LINE",
"1086 1055 LINE",
"1022 1016 OFFCURVE",
"956 1004 OFFCURVE",
"824 1004 CURVE SMOOTH",
"689 1004 OFFCURVE",
"587 1014 OFFCURVE",
"520 1035 CURVE SMOOTH",
"384 1076 OFFCURVE",
"326 1162 OFFCURVE",
"326 1298 CURVE",
"140 1298 LINE",
"140 993 OFFCURVE",
"365 840 OFFCURVE",
"785 840 CURVE",
"882 845 LINE",
"407 353 LINE",
"500 189 LINE",
"621 189 LINE SMOOTH",
"788 189 OFFCURVE",
"912 182 OFFCURVE",
"993 168 CURVE SMOOTH",
"1073 154 OFFCURVE",
"1137 132 OFFCURVE",
"1184 101 CURVE SMOOTH",
"1278 39 OFFCURVE",
"1323 -64 OFFCURVE",
"1323 -220 CURVE"
);
}
);
width = 1631;
}
);
note = g94;
},
{
glyphname = g95;
lastChange = "2016-11-10 14:09:55 +0000";
layers = (
{
layerId = "614620BD-4CC0-4507-9D91-582C8BAD68CE";
paths = (
{
closed = 1;
nodes = (
"702 -240 OFFCURVE",
"815 -190 OFFCURVE",
"903 -106 CURVE SMOOTH",
"990 -23 OFFCURVE",
"1050 96 OFFCURVE",
"1094 233 CURVE SMOOTH",
"1137 369 OFFCURVE",
"1161 525 OFFCURVE",
"1178 685 CURVE SMOOTH",
"1194 844 OFFCURVE",
"1202 1006 OFFCURVE",
"1210 1157 CURVE",
"1210 1298 LINE",
"277 1298 LINE",
"277 1134 LINE",
"1035 1134 LINE",
"1018 804 OFFCURVE",
"992 558 OFFCURVE",
"957 395 CURVE SMOOTH",
"888 69 OFFCURVE",
"771 -68 OFFCURVE",
"551 -68 CURVE SMOOTH",
"380 -68 OFFCURVE",
"295 7 OFFCURVE",
"295 158 CURVE SMOOTH",
"295 199 OFFCURVE",
"300 239 OFFCURVE",
"310 277 CURVE",
"127 301 LINE",
"115 259 OFFCURVE",
"109 213 OFFCURVE",
"109 164 CURVE SMOOTH",
"109 -83 OFFCURVE",
"286 -240 OFFCURVE",
"551 -240 CURVE SMOOTH"
);
}
);
width = 1399;
}
);
note = g95;
},
{
glyphname = g96;
lastChange = "2016-11-10 14:09:55 +0000";
layers = (
{
layerId = "614620BD-4CC0-4507-9D91-582C8BAD68CE";
paths = (
{
closed = 1;
nodes = (
"884 74 LINE",
"884 1298 LINE",
"700 1298 LINE",
"700 780 LINE",
"180 780 LINE",
"180 616 LINE",
"700 616 LINE",
"700 74 LINE"
);
}
);
width = 1124;
}
);
note = g96;
},
{
glyphname = g97;
lastChange = "2016-11-10 14:09:55 +0000";
layers = (
{
layerId = "614620BD-4CC0-4507-9D91-582C8BAD68CE";
paths = (
{
closed = 1;
nodes = (
"920 -87 OFFCURVE",
"1006 88 OFFCURVE",
"1006 260 CURVE SMOOTH",
"1006 417 OFFCURVE",
"901 572 OFFCURVE",
"741 637 CURVE",
"1096 1211 LINE",
"945 1298 LINE",
"811 1082 LINE",
"803 1073 OFFCURVE",
"770 1066 OFFCURVE",
"741 1066 CURVE SMOOTH",
"606 1066 OFFCURVE",
"508 1158 OFFCURVE",
"492 1298 CURVE",
"305 1298 LINE",
"327 1055 OFFCURVE",
"459 924 OFFCURVE",
"701 903 CURVE",
"180 59 LINE",
"330 -29 LINE",
"649 488 LINE",
"764 437 OFFCURVE",
"821 358 OFFCURVE",
"821 249 CURVE SMOOTH",
"821 124 OFFCURVE",
"751 -10 OFFCURVE",
"612 -153 CURVE",
"759 -240 LINE"
);
}
);
width = 1276;
}
);
note = g97;
},
{
glyphname = g98;
lastChange = "2016-11-10 14:09:55 +0000";
layers = (
{
layerId = "614620BD-4CC0-4507-9D91-582C8BAD68CE";
paths = (
{
closed = 1;
nodes = (
"1191 -20 OFFCURVE",
"1342 4 OFFCURVE",
"1474 53 CURVE SMOOTH",
"1738 150 OFFCURVE",
"1866 324 OFFCURVE",
"1866 551 CURVE SMOOTH",
"1866 667 OFFCURVE",
"1832 768 OFFCURVE",
"1763 855 CURVE SMOOTH",
"1626 1028 OFFCURVE",
"1348 1130 OFFCURVE",
"1024 1130 CURVE SMOOTH",
"861 1130 OFFCURVE",
"714 1106 OFFCURVE",
"583 1058 CURVE SMOOTH",
"322 961 OFFCURVE",
"180 783 OFFCURVE",
"180 551 CURVE SMOOTH",
"180 438 OFFCURVE",
"213 339 OFFCURVE",
"280 254 CURVE SMOOTH",
"412 83 OFFCURVE",
"686 -20 OFFCURVE",
"1022 -20 CURVE SMOOTH"
);
},
{
closed = 1;
nodes = (
"578 170 OFFCURVE",
"366 319 OFFCURVE",
"366 551 CURVE SMOOTH",
"366 792 OFFCURVE",
"571 940 OFFCURVE",
"931 963 CURVE",
"931 147 LINE"
);
},
{
closed = 1;
nodes = (
"1115 963 LINE",
"1476 936 OFFCURVE",
"1680 788 OFFCURVE",
"1680 551 CURVE SMOOTH",
"1680 322 OFFCURVE",
"1466 170 OFFCURVE",
"1115 147 CURVE"
);
}
);
width = 2046;
}
);
note = g98;
},
{
glyphname = g99;
lastChange = "2016-11-10 14:09:55 +0000";
layers = (
{
layerId = "614620BD-4CC0-4507-9D91-582C8BAD68CE";
paths = (
{
closed = 1;
nodes = (
"1281 -20 OFFCURVE",
"1530 265 OFFCURVE",
"1530 733 CURVE SMOOTH",
"1530 1204 OFFCURVE",
"1282 1485 OFFCURVE",
"858 1485 CURVE SMOOTH",
"422 1485 OFFCURVE",
"180 1211 OFFCURVE",
"180 735 CURVE SMOOTH",
"180 255 OFFCURVE",
"425 -20 OFFCURVE",
"856 -20 CURVE SMOOTH"
);
},
{
closed = 1;
nodes = (
"516 182 OFFCURVE",
"379 370 OFFCURVE",
"366 682 CURVE",
"763 682 LINE",
"763 145 LINE"
);
},
{
closed = 1;
nodes = (
"947 682 LINE",
"1343 682 LINE",
"1328 362 OFFCURVE",
"1191 178 OFFCURVE",
"947 145 CURVE"
);
},
{
closed = 1;
nodes = (
"397 1112 OFFCURVE",
"526 1281 OFFCURVE",
"763 1316 CURVE",
"763 844 LINE",
"370 844 LINE"
);
},
{
closed = 1;
nodes = (
"947 1317 LINE",
"1175 1286 OFFCURVE",
"1311 1124 OFFCURVE",
"1339 844 CURVE",
"947 844 LINE"
);
}
);
width = 1710;
}
);
note = g99;
},
{
glyphname = g100;
lastChange = "2016-11-10 14:09:55 +0000";
layers = (
{
layerId = "614620BD-4CC0-4507-9D91-582C8BAD68CE";
paths = (
{
closed = 1;
nodes = (
"748 0 LINE",
"964 269 LINE SMOOTH",
"1086 420 OFFCURVE",
"1172 536 OFFCURVE",
"1222 617 CURVE SMOOTH",
"1322 777 OFFCURVE",
"1384 930 OFFCURVE",
"1384 1081 CURVE SMOOTH",
"1384 1325 OFFCURVE",
"1223 1486 OFFCURVE",
"966 1486 CURVE SMOOTH",
"823 1486 OFFCURVE",
"699 1426 OFFCURVE",
"623 1330 CURVE",
"572 1377 OFFCURVE",
"494 1400 OFFCURVE",
"387 1400 CURVE SMOOTH",
"260 1400 OFFCURVE",
"144 1337 OFFCURVE",
"60 1244 CURVE",
"188 1140 LINE",
"241 1204 OFFCURVE",
"304 1236 OFFCURVE",
"377 1236 CURVE SMOOTH",
"457 1236 OFFCURVE",
"519 1199 OFFCURVE",
"519 1147 CURVE SMOOTH",
"519 1124 OFFCURVE",
"517 1101 OFFCURVE",
"514 1079 CURVE SMOOTH",
"510 1055 OFFCURVE",
"507 1032 OFFCURVE",
"506 1009 CURVE",
"691 1028 LINE",
"695 1201 OFFCURVE",
"801 1322 OFFCURVE",
"966 1322 CURVE SMOOTH",
"1105 1322 OFFCURVE",
"1198 1223 OFFCURVE",
"1198 1076 CURVE SMOOTH",
"1198 891 OFFCURVE",
"1085 678 OFFCURVE",
"786 319 CURVE SMOOTH",
"528 0 LINE"
);
}
);
width = 1564;
}
);
note = g100;
},
{
glyphname = g101;
lastChange = "2016-11-10 14:09:55 +0000";
layers = (
{
layerId = "614620BD-4CC0-4507-9D91-582C8BAD68CE";
paths = (
{
closed = 1;
nodes = (
"385 65 OFFCURVE",
"524 167 OFFCURVE",
"641 288 CURVE SMOOTH",
"873 529 OFFCURVE",
"996 818 OFFCURVE",
"996 1114 CURVE SMOOTH",
"996 1366 OFFCURVE",
"893 1482 OFFCURVE",
"684 1482 CURVE SMOOTH",
"612 1482 OFFCURVE",
"549 1465 OFFCURVE",
"495 1432 CURVE SMOOTH",
"387 1365 OFFCURVE",
"323 1239 OFFCURVE",
"323 1107 CURVE SMOOTH",
"323 882 OFFCURVE",
"420 797 OFFCURVE",
"633 797 CURVE SMOOTH",
"662 797 OFFCURVE",
"707 802 OFFCURVE",
"768 813 CURVE",
"696 553 OFFCURVE",
"515 339 OFFCURVE",
"180 131 CURVE",
"223 -20 LINE"
);
},
{
closed = 1;
nodes = (
"537 963 OFFCURVE",
"503 1000 OFFCURVE",
"503 1092 CURVE SMOOTH",
"503 1240 OFFCURVE",
"561 1316 OFFCURVE",
"670 1316 CURVE SMOOTH",
"770 1316 OFFCURVE",
"810 1263 OFFCURVE",
"810 1143 CURVE SMOOTH",
"810 1088 OFFCURVE",
"807 1035 OFFCURVE",
"802 984 CURVE",
"724 970 OFFCURVE",
"667 963 OFFCURVE",
"630 963 CURVE SMOOTH"
);
}
);
width = 1176;
}
);
note = g101;
},
{
glyphname = g102;
lastChange = "2016-11-10 14:09:55 +0000";
layers = (
{
layerId = "614620BD-4CC0-4507-9D91-582C8BAD68CE";
paths = (
{
closed = 1;
nodes = (
"466 620 OFFCURVE",
"514 673 OFFCURVE",
"514 760 CURVE SMOOTH",
"514 848 OFFCURVE",
"466 897 OFFCURVE",
"385 897 CURVE SMOOTH",
"305 897 OFFCURVE",
"260 848 OFFCURVE",
"260 760 CURVE SMOOTH",
"260 672 OFFCURVE",
"306 620 OFFCURVE",
"385 620 CURVE SMOOTH"
);
}
);
width = 774;
}
);
note = g102;
},
{
glyphname = g103;
lastChange = "2016-11-10 14:09:55 +0000";
layers = (
{
layerId = "614620BD-4CC0-4507-9D91-582C8BAD68CE";
paths = (
{
closed = 1;
nodes = (
"1463 61 LINE",
"1434 194 OFFCURVE",
"1350 326 OFFCURVE",
"1238 454 CURVE SMOOTH",
"1126 581 OFFCURVE",
"987 705 OFFCURVE",
"848 825 CURVE SMOOTH",
"708 944 OFFCURVE",
"571 1060 OFFCURVE",
"460 1170 CURVE SMOOTH",
"349 1280 OFFCURVE",
"268 1384 OFFCURVE",
"243 1483 CURVE",
"100 1406 LINE",
"113 1282 OFFCURVE",
"231 1128 OFFCURVE",
"466 928 CURVE SMOOTH",
"670 753 LINE SMOOTH",
"841 606 OFFCURVE",
"961 495 OFFCURVE",
"1031 421 CURVE SMOOTH",
"1170 272 OFFCURVE",
"1263 131 OFFCURVE",
"1292 -9 CURVE"
);
}
);
width = 1563;
}
);
note = g103;
},
{
glyphname = g104;
lastChange = "2016-11-10 14:09:55 +0000";
layers = (
{
layerId = "614620BD-4CC0-4507-9D91-582C8BAD68CE";
paths = (
{
closed = 1;
nodes = (
"1195 50 LINE",
"1127 357 OFFCURVE",
"903 622 OFFCURVE",
"584 761 CURVE",
"742 868 OFFCURVE",
"821 1007 OFFCURVE",
"821 1180 CURVE SMOOTH",
"821 1371 OFFCURVE",
"694 1483 OFFCURVE",
"478 1483 CURVE SMOOTH",
"354 1483 OFFCURVE",
"244 1421 OFFCURVE",
"180 1320 CURVE",
"301 1210 LINE",
"342 1289 OFFCURVE",
"399 1329 OFFCURVE",
"472 1329 CURVE SMOOTH",
"565 1329 OFFCURVE",
"636 1267 OFFCURVE",
"636 1183 CURVE SMOOTH",
"636 1003 OFFCURVE",
"507 847 OFFCURVE",
"298 778 CURVE",
"298 683 LINE",
"411 666 OFFCURVE",
"521 623 OFFCURVE",
"629 554 CURVE SMOOTH",
"844 417 OFFCURVE",
"1005 191 OFFCURVE",
"1044 -10 CURVE"
);
}
);
width = 1325;
}
);
note = g104;
},
{
glyphname = g105;
lastChange = "2016-11-10 14:09:55 +0000";
layers = (
{
layerId = "614620BD-4CC0-4507-9D91-582C8BAD68CE";
paths = (
{
closed = 1;
nodes = (
"1072 40 LINE",
"988 277 OFFCURVE",
"840 438 OFFCURVE",
"617 542 CURVE",
"736 595 OFFCURVE",
"796 684 OFFCURVE",
"796 807 CURVE SMOOTH",
"796 907 OFFCURVE",
"751 981 OFFCURVE",
"660 1029 CURVE",
"736 1085 OFFCURVE",
"764 1151 OFFCURVE",
"764 1248 CURVE SMOOTH",
"764 1289 OFFCURVE",
"752 1328 OFFCURVE",
"729 1365 CURVE SMOOTH",
"681 1437 OFFCURVE",
"591 1483 OFFCURVE",
"466 1483 CURVE SMOOTH",
"422 1483 OFFCURVE",
"384 1479 OFFCURVE",
"353 1470 CURVE SMOOTH",
"290 1452 OFFCURVE",
"248 1428 OFFCURVE",
"180 1360 CURVE",
"295 1253 LINE",
"339 1304 OFFCURVE",
"385 1329 OFFCURVE",
"460 1329 CURVE SMOOTH",
"539 1329 OFFCURVE",
"579 1292 OFFCURVE",
"579 1218 CURVE SMOOTH",
"579 1133 OFFCURVE",
"519 1076 OFFCURVE",
"427 1076 CURVE SMOOTH",
"363 1076 LINE",
"363 926 LINE",
"427 926 LINE SMOOTH",
"548 926 OFFCURVE",
"611 880 OFFCURVE",
"611 796 CURVE SMOOTH",
"611 688 OFFCURVE",
"498 620 OFFCURVE",
"271 591 CURVE",
"271 485 LINE",
"568 453 OFFCURVE",
"818 257 OFFCURVE",
"918 -20 CURVE"
);
}
);
width = 1252;
}
);
note = g105;
},
{
glyphname = g106;
lastChange = "2016-11-10 14:09:55 +0000";
layers = (
{
layerId = "614620BD-4CC0-4507-9D91-582C8BAD68CE";
paths = (
{
closed = 1;
nodes = (
"1533 329 LINE",
"1498 401 OFFCURVE",
"1453 467 OFFCURVE",
"1398 527 CURVE SMOOTH",
"1287 646 OFFCURVE",
"1182 720 OFFCURVE",
"827 893 CURVE SMOOTH",
"709 950 OFFCURVE",
"615 1005 OFFCURVE",
"544 1059 CURVE SMOOTH",
"403 1166 OFFCURVE",
"327 1309 OFFCURVE",
"320 1482 CURVE",
"163 1441 LINE",
"160 1384 LINE",
"160 1180 OFFCURVE",
"253 1027 OFFCURVE",
"501 884 CURVE",
"349 837 OFFCURVE",
"259 737 OFFCURVE",
"259 610 CURVE SMOOTH",
"259 546 OFFCURVE",
"275 489 OFFCURVE",
"306 439 CURVE SMOOTH",
"369 338 OFFCURVE",
"488 278 OFFCURVE",
"663 278 CURVE SMOOTH",
"896 278 OFFCURVE",
"1047 388 OFFCURVE",
"1066 579 CURVE",
"1211 480 OFFCURVE",
"1315 362 OFFCURVE",
"1377 225 CURVE"
);
},
{
closed = 1;
nodes = (
"526 432 OFFCURVE",
"444 492 OFFCURVE",
"444 599 CURVE SMOOTH",
"444 694 OFFCURVE",
"518 754 OFFCURVE",
"663 754 CURVE SMOOTH",
"808 754 OFFCURVE",
"883 694 OFFCURVE",
"883 599 CURVE SMOOTH",
"883 492 OFFCURVE",
"802 432 OFFCURVE",
"663 432 CURVE SMOOTH"
);
}
);
width = 1633;
}
);
note = g106;
},
{
glyphname = g107;
lastChange = "2016-11-10 14:09:55 +0000";
layers = (
{
layerId = "614620BD-4CC0-4507-9D91-582C8BAD68CE";
paths = (
{
closed = 1;
nodes = (
"1437 13 LINE",
"1438 36 LINE",
"1438 59 LINE SMOOTH",
"1438 122 OFFCURVE",
"1429 186 OFFCURVE",
"1412 252 CURVE SMOOTH",
"1376 384 OFFCURVE",
"1322 508 OFFCURVE",
"1171 768 CURVE SMOOTH",
"1078 929 OFFCURVE",
"1016 1040 OFFCURVE",
"985 1103 CURVE SMOOTH",
"924 1228 OFFCURVE",
"881 1347 OFFCURVE",
"870 1462 CURVE",
"682 1461 LINE",
"682 1418 OFFCURVE",
"692 1366 OFFCURVE",
"713 1303 CURVE SMOOTH",
"734 1240 OFFCURVE",
"744 1197 OFFCURVE",
"744 1176 CURVE SMOOTH",
"744 1064 OFFCURVE",
"653 989 OFFCURVE",
"524 989 CURVE SMOOTH",
"387 989 OFFCURVE",
"305 1049 OFFCURVE",
"305 1156 CURVE SMOOTH",
"305 1236 OFFCURVE",
"330 1277 OFFCURVE",
"415 1318 CURVE",
"354 1459 LINE",
"217 1416 OFFCURVE",
"120 1302 OFFCURVE",
"120 1167 CURVE SMOOTH",
"120 959 OFFCURVE",
"267 835 OFFCURVE",
"524 835 CURVE SMOOTH",
"665 835 OFFCURVE",
"777 885 OFFCURVE",
"850 977 CURVE",
"939 823 LINE SMOOTH",
"1190 407 OFFCURVE",
"1253 231 OFFCURVE",
"1253 39 CURVE",
"1251 -7 LINE"
);
}
);
width = 1578;
}
);
note = g107;
},
{
glyphname = g108;
lastChange = "2016-11-10 14:09:55 +0000";
layers = (
{
layerId = "614620BD-4CC0-4507-9D91-582C8BAD68CE";
paths = (
{
closed = 1;
nodes = (
"688 -25 OFFCURVE",
"769 -8 OFFCURVE",
"838 25 CURVE SMOOTH",
"974 92 OFFCURVE",
"1046 220 OFFCURVE",
"1046 385 CURVE SMOOTH",
"1046 665 OFFCURVE",
"798 1051 OFFCURVE",
"359 1462 CURVE",
"180 1462 LINE",
"303 1341 OFFCURVE",
"420 1207 OFFCURVE",
"531 1062 CURVE SMOOTH",
"751 771 OFFCURVE",
"861 544 OFFCURVE",
"861 391 CURVE SMOOTH",
"861 222 OFFCURVE",
"767 129 OFFCURVE",
"604 129 CURVE SMOOTH",
"436 129 OFFCURVE",
"370 193 OFFCURVE",
"370 313 CURVE SMOOTH",
"370 373 OFFCURVE",
"408 421 OFFCURVE",
"465 441 CURVE",
"407 591 LINE",
"266 543 OFFCURVE",
"185 441 OFFCURVE",
"185 306 CURVE SMOOTH",
"185 98 OFFCURVE",
"334 -25 OFFCURVE",
"594 -25 CURVE SMOOTH"
);
}
);
width = 1226;
}
);
note = g108;
},
{
glyphname = g109;
lastChange = "2016-11-10 14:09:55 +0000";
layers = (
{
layerId = "614620BD-4CC0-4507-9D91-582C8BAD68CE";
paths = (
{
closed = 1;
nodes = (
"1210 29 LINE",
"1214 277 LINE SMOOTH",
"1214 569 OFFCURVE",
"1191 801 OFFCURVE",
"1146 973 CURVE SMOOTH",
"1054 1316 OFFCURVE",
"872 1482 OFFCURVE",
"605 1482 CURVE SMOOTH",
"523 1482 OFFCURVE",
"450 1465 OFFCURVE",
"385 1430 CURVE SMOOTH",
"256 1361 OFFCURVE",
"180 1233 OFFCURVE",
"180 1097 CURVE SMOOTH",
"180 1036 OFFCURVE",
"194 981 OFFCURVE",
"221 932 CURVE SMOOTH",
"276 835 OFFCURVE",
"380 777 OFFCURVE",
"495 777 CURVE SMOOTH",
"509 777 OFFCURVE",
"522 777 OFFCURVE",
"533 778 CURVE",
"555 779 OFFCURVE",
"574 782 OFFCURVE",
"597 787 CURVE",
"608 790 OFFCURVE",
"621 793 OFFCURVE",
"636 796 CURVE",
"581 936 LINE",
"504 931 LINE",
"419 931 OFFCURVE",
"365 1002 OFFCURVE",
"365 1101 CURVE SMOOTH",
"365 1242 OFFCURVE",
"457 1328 OFFCURVE",
"618 1328 CURVE SMOOTH",
"777 1328 OFFCURVE",
"896 1219 OFFCURVE",
"970 995 CURVE SMOOTH",
"1044 770 OFFCURVE",
"1071 492 OFFCURVE",
"1071 -5 CURVE"
);
}
);
width = 1394;
}
);
note = g109;
},
{
glyphname = g110;
lastChange = "2016-11-10 14:09:55 +0000";
layers = (
{
layerId = "614620BD-4CC0-4507-9D91-582C8BAD68CE";
paths = (
{
closed = 1;
nodes = (
"882 655 LINE",
"565 760 OFFCURVE",
"416 883 OFFCURVE",
"416 1028 CURVE SMOOTH",
"416 1141 OFFCURVE",
"483 1245 OFFCURVE",
"586 1298 CURVE",
"842 1298 LINE",
"842 1462 LINE",
"130 1462 LINE",
"130 1298 LINE",
"357 1298 LINE",
"273 1221 OFFCURVE",
"231 1130 OFFCURVE",
"231 1025 CURVE SMOOTH",
"231 795 OFFCURVE",
"448 604 OFFCURVE",
"882 452 CURVE"
);
}
);
width = 1062;
}
);
note = g110;
},
{
glyphname = g111;
lastChange = "2016-11-10 14:09:55 +0000";
layers = (
{
layerId = "614620BD-4CC0-4507-9D91-582C8BAD68CE";
paths = (
{
closed = 1;
nodes = (
"1258 318 LINE",
"1259 395 LINE",
"1259 465 LINE SMOOTH",
"1259 676 OFFCURVE",
"1234 860 OFFCURVE",
"1185 1016 CURVE SMOOTH",
"1086 1327 OFFCURVE",
"902 1482 OFFCURVE",
"646 1482 CURVE SMOOTH",
"549 1482 OFFCURVE",
"465 1463 OFFCURVE",
"395 1425 CURVE SMOOTH",
"254 1349 OFFCURVE",
"177 1211 OFFCURVE",
"177 1052 CURVE SMOOTH",
"177 852 OFFCURVE",
"314 707 OFFCURVE",
"497 707 CURVE SMOOTH",
"689 707 OFFCURVE",
"800 819 OFFCURVE",
"807 1011 CURVE",
"642 1034 LINE",
"642 933 OFFCURVE",
"586 861 OFFCURVE",
"501 861 CURVE SMOOTH",
"416 861 OFFCURVE",
"362 940 OFFCURVE",
"362 1068 CURVE SMOOTH",
"362 1224 OFFCURVE",
"466 1328 OFFCURVE",
"630 1328 CURVE SMOOTH",
"923 1328 OFFCURVE",
"1075 1013 OFFCURVE",
"1075 445 CURVE SMOOTH",
"1075 383 LINE",
"1074 299 LINE"
);
}
);
width = 1439;
}
);
note = g111;
},
{
glyphname = g112;
lastChange = "2016-11-10 14:09:55 +0000";
layers = (
{
layerId = "614620BD-4CC0-4507-9D91-582C8BAD68CE";
paths = (
{
closed = 1;
nodes = (
"821 -325 LINE",
"821 -21 LINE",
"982 -9 OFFCURVE",
"1098 32 OFFCURVE",
"1171 116 CURVE SMOOTH",
"1244 200 OFFCURVE",
"1278 327 OFFCURVE",
"1278 511 CURVE SMOOTH",
"1278 567 LINE",
"1094 567 LINE",
"1094 511 LINE SMOOTH",
"1094 388 OFFCURVE",
"1080 305 OFFCURVE",
"1040 249 CURVE SMOOTH",
"1000 192 OFFCURVE",
"935 164 OFFCURVE",
"831 153 CURVE",
"831 561 LINE",
"647 561 LINE",
"647 151 LINE",
"547 159 OFFCURVE",
"482 187 OFFCURVE",
"441 244 CURVE SMOOTH",
"400 300 OFFCURVE",
"384 386 OFFCURVE",
"384 510 CURVE SMOOTH",
"384 1462 LINE",
"200 1462 LINE",
"200 516 LINE SMOOTH",
"200 336 OFFCURVE",
"233 207 OFFCURVE",
"306 120 CURVE SMOOTH",
"378 33 OFFCURVE",
"493 -11 OFFCURVE",
"657 -22 CURVE",
"657 -325 LINE"
);
}
);
width = 1438;
}
);
note = g112;
},
{
glyphname = g113;
lastChange = "2016-11-10 14:09:55 +0000";
layers = (
{
layerId = "614620BD-4CC0-4507-9D91-582C8BAD68CE";
paths = (
{
closed = 1;
nodes = (
"676 -325 LINE",
"676 -23 LINE",
"684 -23 OFFCURVE",
"692 -23 OFFCURVE",
"701 -23 CURVE",
"709 -24 OFFCURVE",
"718 -24 OFFCURVE",
"727 -24 CURVE SMOOTH",
"754 -24 OFFCURVE",
"778 -23 OFFCURVE",
"802 -22 CURVE",
"802 -325 LINE",
"966 -325 LINE",
"966 2 LINE",
"1074 30 OFFCURVE",
"1151 77 OFFCURVE",
"1203 157 CURVE SMOOTH",
"1254 237 OFFCURVE",
"1278 351 OFFCURVE",
"1278 511 CURVE SMOOTH",
"1278 567 LINE",
"1094 567 LINE",
"1094 511 LINE SMOOTH",
"1094 388 OFFCURVE",
"1080 305 OFFCURVE",
"1040 249 CURVE SMOOTH",
"1000 192 OFFCURVE",
"935 164 OFFCURVE",
"831 153 CURVE",
"831 561 LINE",
"647 561 LINE",
"647 151 LINE",
"547 159 OFFCURVE",
"482 187 OFFCURVE",
"441 244 CURVE SMOOTH",
"400 300 OFFCURVE",
"384 386 OFFCURVE",
"384 510 CURVE SMOOTH",
"384 1462 LINE",
"200 1462 LINE",
"200 516 LINE SMOOTH",
"200 361 OFFCURVE",
"223 246 OFFCURVE",
"275 163 CURVE SMOOTH",
"326 79 OFFCURVE",
"404 27 OFFCURVE",
"512 0 CURVE",
"512 -325 LINE"
);
}
);
width = 1438;
}
);
note = g113;
},
{
glyphname = g114;
lastChange = "2016-11-10 14:09:55 +0000";
layers = (
{
layerId = "614620BD-4CC0-4507-9D91-582C8BAD68CE";
paths = (
{
closed = 1;
nodes = (
"923 -325 LINE",
"923 164 LINE",
"384 164 LINE",
"384 1298 LINE",
"923 1298 LINE",
"923 1462 LINE",
"200 1462 LINE",
"200 0 LINE",
"759 0 LINE",
"759 -325 LINE"
);
}
);
width = 1083;
}
);
note = g114;
},
{
glyphname = g115;
lastChange = "2016-11-10 14:09:55 +0000";
layers = (
{
layerId = "614620BD-4CC0-4507-9D91-582C8BAD68CE";
paths = (
{
closed = 1;
nodes = (
"633 -325 LINE",
"633 0 LINE",
"759 0 LINE",
"759 -325 LINE",
"923 -325 LINE",
"923 164 LINE",
"384 164 LINE",
"384 1298 LINE",
"923 1298 LINE",
"923 1462 LINE",
"200 1462 LINE",
"200 0 LINE",
"469 0 LINE",
"469 -325 LINE"
);
}
);
width = 1083;
}
);
note = g115;
},
{
glyphname = g116;
lastChange = "2016-11-10 14:09:55 +0000";
layers = (
{
layerId = "614620BD-4CC0-4507-9D91-582C8BAD68CE";
paths = (
{
closed = 1;
nodes = (
"709 -325 LINE",
"709 0 LINE",
"910 0 LINE",
"910 1462 LINE",
"726 1462 LINE",
"726 706 LINE",
"708 706 LINE SMOOTH",
"336 706 OFFCURVE",
"160 590 OFFCURVE",
"160 337 CURVE SMOOTH",
"160 126 OFFCURVE",
"330 27 OFFCURVE",
"545 4 CURVE",
"545 -325 LINE"
);
},
{
closed = 1;
nodes = (
"479 164 OFFCURVE",
"355 217 OFFCURVE",
"355 345 CURVE SMOOTH",
"355 450 OFFCURVE",
"397 501 OFFCURVE",
"498 524 CURVE SMOOTH",
"549 536 OFFCURVE",
"625 542 OFFCURVE",
"726 542 CURVE",
"726 164 LINE"
);
}
);
width = 1110;
}
);
note = g116;
},
{
glyphname = g117;
lastChange = "2016-11-10 14:09:55 +0000";
layers = (
{
layerId = "614620BD-4CC0-4507-9D91-582C8BAD68CE";
paths = (
{
closed = 1;
nodes = (
"563 -325 LINE",
"563 3 LINE",
"589 1 OFFCURVE",
"617 0 OFFCURVE",
"646 0 CURVE SMOOTH",
"689 0 LINE",
"689 -325 LINE",
"853 -325 LINE",
"853 0 LINE",
"910 0 LINE",
"910 1462 LINE",
"726 1462 LINE",
"726 706 LINE",
"708 706 LINE SMOOTH",
"336 706 OFFCURVE",
"160 590 OFFCURVE",
"160 337 CURVE SMOOTH",
"160 232 OFFCURVE",
"202 149 OFFCURVE",
"287 89 CURVE SMOOTH",
"318 66 OFFCURVE",
"356 48 OFFCURVE",
"399 34 CURVE",
"399 -325 LINE"
);
},
{
closed = 1;
nodes = (
"479 164 OFFCURVE",
"355 217 OFFCURVE",
"355 345 CURVE SMOOTH",
"355 450 OFFCURVE",
"397 501 OFFCURVE",
"498 524 CURVE SMOOTH",
"549 536 OFFCURVE",
"625 542 OFFCURVE",
"726 542 CURVE",
"726 164 LINE"
);
}
);
width = 1110;
}
);
note = g117;
},
{
glyphname = g118;
lastChange = "2016-11-10 14:09:55 +0000";
layers = (
{
layerId = "614620BD-4CC0-4507-9D91-582C8BAD68CE";
paths = (
{
closed = 1;
nodes = (
"706 -325 LINE",
"706 -18 LINE",
"827 1 OFFCURVE",
"931 62 OFFCURVE",
"1004 146 CURVE SMOOTH",
"1076 230 OFFCURVE",
"1118 339 OFFCURVE",
"1118 454 CURVE SMOOTH",
"1118 571 OFFCURVE",
"1074 679 OFFCURVE",
"1002 763 CURVE SMOOTH",
"929 846 OFFCURVE",
"828 904 OFFCURVE",
"716 924 CURVE",
"716 1462 LINE",
"532 1462 LINE",
"532 924 LINE",
"417 904 OFFCURVE",
"317 846 OFFCURVE",
"245 763 CURVE SMOOTH",
"173 680 OFFCURVE",
"130 573 OFFCURVE",
"130 454 CURVE SMOOTH",
"130 335 OFFCURVE",
"175 226 OFFCURVE",
"249 142 CURVE SMOOTH",
"323 58 OFFCURVE",
"426 -1 OFFCURVE",
"542 -18 CURVE",
"542 -325 LINE"
);
},
{
closed = 1;
nodes = (
"468 174 OFFCURVE",
"414 217 OFFCURVE",
"375 271 CURVE SMOOTH",
"336 325 OFFCURVE",
"314 390 OFFCURVE",
"314 458 CURVE SMOOTH",
"314 525 OFFCURVE",
"337 588 OFFCURVE",
"375 641 CURVE SMOOTH",
"413 693 OFFCURVE",
"468 734 OFFCURVE",
"532 755 CURVE",
"532 153 LINE"
);
},
{
closed = 1;
nodes = (
"716 756 LINE",
"780 736 OFFCURVE",
"834 696 OFFCURVE",
"873 644 CURVE SMOOTH",
"912 591 OFFCURVE",
"934 526 OFFCURVE",
"934 458 CURVE SMOOTH",
"934 390 OFFCURVE",
"914 325 OFFCURVE",
"877 270 CURVE SMOOTH",
"840 215 OFFCURVE",
"785 173 OFFCURVE",
"716 152 CURVE"
);
}
);
width = 1248;
}
);
note = g118;
},
{
glyphname = g119;
lastChange = "2016-11-10 14:09:55 +0000";
layers = (
{
layerId = "614620BD-4CC0-4507-9D91-582C8BAD68CE";
paths = (
{
closed = 1;
nodes = (
"561 -325 LINE",
"561 -20 LINE",
"581 -23 OFFCURVE",
"601 -24 OFFCURVE",
"624 -24 CURVE SMOOTH",
"645 -24 OFFCURVE",
"666 -23 OFFCURVE",
"687 -20 CURVE",
"687 -325 LINE",
"851 -325 LINE",
"851 28 LINE",
"854 30 OFFCURVE",
"858 32 OFFCURVE",
"861 34 CURVE",
"864 35 OFFCURVE",
"868 37 OFFCURVE",
"871 39 CURVE",
"947 80 OFFCURVE",
"1008 141 OFFCURVE",
"1052 213 CURVE SMOOTH",
"1095 285 OFFCURVE",
"1118 367 OFFCURVE",
"1118 454 CURVE SMOOTH",
"1118 571 OFFCURVE",
"1074 679 OFFCURVE",
"1002 763 CURVE SMOOTH",
"929 846 OFFCURVE",
"828 904 OFFCURVE",
"716 924 CURVE",
"716 1462 LINE",
"532 1462 LINE",
"532 924 LINE",
"417 904 OFFCURVE",
"317 846 OFFCURVE",
"245 763 CURVE SMOOTH",
"173 680 OFFCURVE",
"130 573 OFFCURVE",
"130 454 CURVE SMOOTH",
"130 369 OFFCURVE",
"153 286 OFFCURVE",
"196 215 CURVE SMOOTH",
"239 143 OFFCURVE",
"299 83 OFFCURVE",
"375 40 CURVE SMOOTH",
"397 28 LINE",
"397 -325 LINE"
);
},
{
closed = 1;
nodes = (
"468 174 OFFCURVE",
"414 217 OFFCURVE",
"375 271 CURVE SMOOTH",
"336 325 OFFCURVE",
"314 390 OFFCURVE",
"314 458 CURVE SMOOTH",
"314 525 OFFCURVE",
"337 588 OFFCURVE",
"375 641 CURVE SMOOTH",
"413 693 OFFCURVE",
"468 734 OFFCURVE",
"532 755 CURVE",
"532 153 LINE"
);
},
{
closed = 1;
nodes = (
"716 756 LINE",
"780 736 OFFCURVE",
"834 696 OFFCURVE",
"873 644 CURVE SMOOTH",
"912 591 OFFCURVE",
"934 526 OFFCURVE",
"934 458 CURVE SMOOTH",
"934 390 OFFCURVE",
"912 325 OFFCURVE",
"874 270 CURVE SMOOTH",
"836 215 OFFCURVE",
"780 173 OFFCURVE",
"716 152 CURVE"
);
}
);
width = 1248;
}
);
note = g119;
},
{
glyphname = g120;
lastChange = "2016-11-10 14:09:55 +0000";
layers = (
{
layerId = "614620BD-4CC0-4507-9D91-582C8BAD68CE";
paths = (
{
closed = 1;
nodes = (
"902 0 LINE",
"902 164 LINE",
"649 164 LINE SMOOTH",
"465 164 OFFCURVE",
"355 244 OFFCURVE",
"355 385 CURVE SMOOTH",
"355 569 OFFCURVE",
"476 653 OFFCURVE",
"721 656 CURVE",
"721 516 LINE",
"885 516 LINE",
"885 656 LINE",
"1164 656 LINE",
"1164 820 LINE",
"885 820 LINE",
"885 950 LINE",
"721 950 LINE",
"721 820 LINE",
"594 821 OFFCURVE",
"503 841 OFFCURVE",
"443 883 CURVE SMOOTH",
"383 925 OFFCURVE",
"355 988 OFFCURVE",
"355 1077 CURVE SMOOTH",
"355 1214 OFFCURVE",
"475 1298 OFFCURVE",
"660 1298 CURVE SMOOTH",
"902 1298 LINE",
"902 1462 LINE",
"675 1462 LINE SMOOTH",
"520 1462 OFFCURVE",
"392 1420 OFFCURVE",
"302 1352 CURVE SMOOTH",
"212 1283 OFFCURVE",
"160 1187 OFFCURVE",
"160 1078 CURVE SMOOTH",
"160 922 OFFCURVE",
"234 806 OFFCURVE",
"366 738 CURVE",
"237 669 OFFCURVE",
"160 545 OFFCURVE",
"160 384 CURVE SMOOTH",
"160 271 OFFCURVE",
"208 175 OFFCURVE",
"293 107 CURVE SMOOTH",
"378 39 OFFCURVE",
"503 0 OFFCURVE",
"655 0 CURVE SMOOTH"
);
}
);
width = 1214;
}
);
note = g120;
},
{
glyphname = g121;
lastChange = "2016-11-10 14:09:55 +0000";
layers = (
{
layerId = "614620BD-4CC0-4507-9D91-582C8BAD68CE";
paths = (
{
closed = 1;
nodes = (
"1159 0 LINE",
"1159 164 LINE",
"906 164 LINE SMOOTH",
"722 164 OFFCURVE",
"612 244 OFFCURVE",
"612 385 CURVE SMOOTH",
"612 569 OFFCURVE",
"733 653 OFFCURVE",
"978 656 CURVE",
"978 516 LINE",
"1142 516 LINE",
"1142 656 LINE",
"1421 656 LINE",
"1421 820 LINE",
"1142 820 LINE",
"1142 950 LINE",
"978 950 LINE",
"978 820 LINE",
"851 821 OFFCURVE",
"760 841 OFFCURVE",
"700 883 CURVE SMOOTH",
"640 925 OFFCURVE",
"612 988 OFFCURVE",
"612 1077 CURVE SMOOTH",
"612 1214 OFFCURVE",
"732 1298 OFFCURVE",
"917 1298 CURVE SMOOTH",
"1159 1298 LINE",
"1159 1462 LINE",
"932 1462 LINE SMOOTH",
"811 1462 OFFCURVE",
"706 1436 OFFCURVE",
"623 1392 CURVE SMOOTH",
"540 1348 OFFCURVE",
"478 1285 OFFCURVE",
"445 1212 CURVE",
"50 1212 LINE",
"50 1048 LINE",
"418 1048 LINE",
"427 907 OFFCURVE",
"499 802 OFFCURVE",
"623 738 CURVE",
"494 669 OFFCURVE",
"417 545 OFFCURVE",
"417 384 CURVE SMOOTH",
"417 271 OFFCURVE",
"465 175 OFFCURVE",
"550 107 CURVE SMOOTH",
"635 39 OFFCURVE",
"760 0 OFFCURVE",
"912 0 CURVE SMOOTH"
);
}
);
width = 1471;
}
);
note = g121;
},
{
glyphname = g122;
lastChange = "2016-11-10 14:09:55 +0000";
layers = (
{
layerId = "614620BD-4CC0-4507-9D91-582C8BAD68CE";
paths = (
{
closed = 1;
nodes = (
"1159 0 LINE",
"1159 164 LINE",
"906 164 LINE SMOOTH",
"722 164 OFFCURVE",
"612 244 OFFCURVE",
"612 385 CURVE SMOOTH",
"612 569 OFFCURVE",
"733 653 OFFCURVE",
"978 656 CURVE",
"978 516 LINE",
"1142 516 LINE",
"1142 656 LINE",
"1421 656 LINE",
"1421 820 LINE",
"1142 820 LINE",
"1142 950 LINE",
"978 950 LINE",
"978 820 LINE",
"851 821 OFFCURVE",
"760 841 OFFCURVE",
"700 883 CURVE SMOOTH",
"640 925 OFFCURVE",
"612 988 OFFCURVE",
"612 1077 CURVE SMOOTH",
"612 1214 OFFCURVE",
"732 1298 OFFCURVE",
"917 1298 CURVE SMOOTH",
"1159 1298 LINE",
"1159 1462 LINE",
"932 1462 LINE SMOOTH",
"796 1462 OFFCURVE",
"683 1430 OFFCURVE",
"595 1377 CURVE",
"50 1377 LINE",
"50 1213 LINE",
"446 1213 LINE",
"427 1170 OFFCURVE",
"417 1125 OFFCURVE",
"417 1078 CURVE SMOOTH",
"417 1073 OFFCURVE",
"417 1068 OFFCURVE",
"417 1063 CURVE SMOOTH",
"417 1058 OFFCURVE",
"417 1054 OFFCURVE",
"418 1049 CURVE",
"50 1049 LINE",
"50 885 LINE",
"465 885 LINE",
"500 824 OFFCURVE",
"552 775 OFFCURVE",
"623 738 CURVE",
"494 669 OFFCURVE",
"417 545 OFFCURVE",
"417 384 CURVE SMOOTH",
"417 271 OFFCURVE",
"465 175 OFFCURVE",
"550 107 CURVE SMOOTH",
"635 39 OFFCURVE",
"760 0 OFFCURVE",
"912 0 CURVE SMOOTH"
);
}
);
width = 1471;
}
);
note = g122;
},
{
glyphname = g123;
lastChange = "2016-11-10 14:09:55 +0000";
layers = (
{
layerId = "614620BD-4CC0-4507-9D91-582C8BAD68CE";
paths = (
{
closed = 1;
nodes = (
"902 -325 LINE",
"902 164 LINE",
"649 164 LINE SMOOTH",
"465 164 OFFCURVE",
"355 244 OFFCURVE",
"355 385 CURVE SMOOTH",
"355 573 OFFCURVE",
"479 656 OFFCURVE",
"734 656 CURVE SMOOTH",
"864 656 LINE",
"864 820 LINE",
"734 820 LINE SMOOTH",
"473 820 OFFCURVE",
"355 896 OFFCURVE",
"355 1077 CURVE SMOOTH",
"355 1214 OFFCURVE",
"475 1298 OFFCURVE",
"660 1298 CURVE SMOOTH",
"902 1298 LINE",
"902 1462 LINE",
"675 1462 LINE SMOOTH",
"520 1462 OFFCURVE",
"392 1420 OFFCURVE",
"302 1352 CURVE SMOOTH",
"212 1283 OFFCURVE",
"160 1187 OFFCURVE",
"160 1078 CURVE SMOOTH",
"160 922 OFFCURVE",
"234 806 OFFCURVE",
"366 738 CURVE",
"237 669 OFFCURVE",
"160 545 OFFCURVE",
"160 384 CURVE SMOOTH",
"160 271 OFFCURVE",
"208 175 OFFCURVE",
"293 107 CURVE SMOOTH",
"378 39 OFFCURVE",
"503 0 OFFCURVE",
"655 0 CURVE SMOOTH",
"738 0 LINE",
"738 -325 LINE"
);
}
);
width = 1032;
}
);
note = g123;
},
{
glyphname = g124;
lastChange = "2016-11-10 14:09:55 +0000";
layers = (
{
layerId = "614620BD-4CC0-4507-9D91-582C8BAD68CE";
paths = (
{
closed = 1;
nodes = (
"612 -325 LINE",
"612 1 LINE",
"619 0 OFFCURVE",
"627 0 OFFCURVE",
"634 0 CURVE SMOOTH",
"641 0 OFFCURVE",
"648 0 OFFCURVE",
"655 0 CURVE SMOOTH",
"738 0 LINE",
"738 -325 LINE",
"902 -325 LINE",
"902 164 LINE",
"649 164 LINE SMOOTH",
"465 164 OFFCURVE",
"355 244 OFFCURVE",
"355 385 CURVE SMOOTH",
"355 573 OFFCURVE",
"479 656 OFFCURVE",
"734 656 CURVE SMOOTH",
"864 656 LINE",
"864 820 LINE",
"734 820 LINE SMOOTH",
"473 820 OFFCURVE",
"355 896 OFFCURVE",
"355 1077 CURVE SMOOTH",
"355 1214 OFFCURVE",
"475 1298 OFFCURVE",
"660 1298 CURVE SMOOTH",
"902 1298 LINE",
"902 1462 LINE",
"675 1462 LINE SMOOTH",
"520 1462 OFFCURVE",
"392 1420 OFFCURVE",
"302 1352 CURVE SMOOTH",
"212 1283 OFFCURVE",
"160 1187 OFFCURVE",
"160 1078 CURVE SMOOTH",
"160 922 OFFCURVE",
"234 806 OFFCURVE",
"366 738 CURVE",
"237 669 OFFCURVE",
"160 545 OFFCURVE",
"160 384 CURVE SMOOTH",
"160 213 OFFCURVE",
"265 84 OFFCURVE",
"448 28 CURVE",
"448 -325 LINE"
);
}
);
width = 1032;
}
);
note = g124;
},
{
glyphname = g125;
lastChange = "2016-11-10 14:09:55 +0000";
layers = (
{
layerId = "614620BD-4CC0-4507-9D91-582C8BAD68CE";
paths = (
{
closed = 1;
nodes = (
"620 0 LINE",
"620 697 LINE",
"685 653 OFFCURVE",
"784 627 OFFCURVE",
"884 627 CURVE SMOOTH",
"1151 627 OFFCURVE",
"1292 748 OFFCURVE",
"1292 1028 CURVE SMOOTH",
"1292 1298 LINE",
"1678 1298 LINE",
"1678 1462 LINE",
"1108 1462 LINE",
"1108 1063 LINE SMOOTH",
"1108 879 OFFCURVE",
"1041 798 OFFCURVE",
"862 798 CURVE SMOOTH",
"762 798 OFFCURVE",
"676 836 OFFCURVE",
"620 884 CURVE",
"620 1462 LINE",
"50 1462 LINE",
"50 1298 LINE",
"436 1298 LINE",
"436 0 LINE"
);
}
);
width = 1728;
}
);
note = g125;
},
{
glyphname = g126;
lastChange = "2016-11-10 14:09:55 +0000";
layers = (
{
layerId = "614620BD-4CC0-4507-9D91-582C8BAD68CE";
paths = (
{
closed = 1;
nodes = (
"620 0 LINE",
"620 697 LINE",
"685 653 OFFCURVE",
"784 627 OFFCURVE",
"884 627 CURVE SMOOTH",
"1151 627 OFFCURVE",
"1292 748 OFFCURVE",
"1292 1028 CURVE SMOOTH",
"1292 1298 LINE",
"1678 1298 LINE",
"1678 1462 LINE",
"1108 1462 LINE",
"1108 1063 LINE SMOOTH",
"1108 879 OFFCURVE",
"1041 798 OFFCURVE",
"862 798 CURVE SMOOTH",
"762 798 OFFCURVE",
"676 836 OFFCURVE",
"620 884 CURVE",
"620 1462 LINE",
"50 1462 LINE",
"50 1298 LINE",
"436 1298 LINE",
"436 1134 LINE",
"50 1134 LINE",
"50 970 LINE",
"436 970 LINE",
"436 0 LINE"
);
}
);
width = 1728;
}
);
note = g126;
},
{
glyphname = g127;
lastChange = "2016-11-10 14:09:55 +0000";
layers = (
{
layerId = "614620BD-4CC0-4507-9D91-582C8BAD68CE";
paths = (
{
closed = 1;
nodes = (
"603 0 LINE",
"603 845 LINE",
"641 858 OFFCURVE",
"685 864 OFFCURVE",
"735 864 CURVE SMOOTH",
"914 864 OFFCURVE",
"981 783 OFFCURVE",
"981 599 CURVE SMOOTH",
"981 349 LINE",
"1165 349 LINE",
"1165 634 LINE SMOOTH",
"1165 914 OFFCURVE",
"1024 1035 OFFCURVE",
"757 1035 CURVE SMOOTH",
"706 1035 OFFCURVE",
"654 1027 OFFCURVE",
"603 1012 CURVE",
"603 1124 LINE",
"1061 1124 LINE",
"1061 1288 LINE",
"603 1288 LINE",
"603 1462 LINE",
"100 1462 LINE",
"100 1298 LINE",
"419 1298 LINE",
"419 1124 LINE",
"100 1124 LINE",
"100 960 LINE",
"419 960 LINE",
"419 0 LINE"
);
}
);
width = 1325;
}
);
note = g127;
},
{
glyphname = g128;
lastChange = "2016-11-10 14:09:55 +0000";
layers = (
{
layerId = "614620BD-4CC0-4507-9D91-582C8BAD68CE";
paths = (
{
closed = 1;
nodes = (
"603 0 LINE",
"603 845 LINE",
"641 858 OFFCURVE",
"685 864 OFFCURVE",
"735 864 CURVE SMOOTH",
"914 864 OFFCURVE",
"981 783 OFFCURVE",
"981 599 CURVE SMOOTH",
"981 349 LINE",
"1165 349 LINE",
"1165 634 LINE SMOOTH",
"1165 914 OFFCURVE",
"1024 1035 OFFCURVE",
"757 1035 CURVE SMOOTH",
"706 1035 OFFCURVE",
"654 1027 OFFCURVE",
"603 1012 CURVE",
"603 1124 LINE",
"1061 1124 LINE",
"1061 1288 LINE",
"603 1288 LINE",
"603 1462 LINE",
"100 1462 LINE",
"100 1298 LINE",
"419 1298 LINE",
"419 1124 LINE",
"100 1124 LINE",
"100 960 LINE",
"419 960 LINE",
"419 796 LINE",
"100 796 LINE",
"100 632 LINE",
"419 632 LINE",
"419 0 LINE"
);
}
);
width = 1325;
}
);
note = g128;
},
{
glyphname = g129;
lastChange = "2016-11-10 14:09:55 +0000";
layers = (
{
layerId = "614620BD-4CC0-4507-9D91-582C8BAD68CE";
paths = (
{
closed = 1;
nodes = (
"895 -325 LINE",
"895 164 LINE",
"858 164 LINE SMOOTH",
"693 164 OFFCURVE",
"567 216 OFFCURVE",
"483 313 CURVE SMOOTH",
"398 409 OFFCURVE",
"354 551 OFFCURVE",
"354 731 CURVE SMOOTH",
"354 910 OFFCURVE",
"400 1052 OFFCURVE",
"487 1149 CURVE SMOOTH",
"574 1245 OFFCURVE",
"700 1298 OFFCURVE",
"860 1298 CURVE SMOOTH",
"895 1298 LINE",
"895 1462 LINE",
"862 1462 LINE SMOOTH",
"642 1462 OFFCURVE",
"466 1393 OFFCURVE",
"346 1268 CURVE SMOOTH",
"225 1143 OFFCURVE",
"160 960 OFFCURVE",
"160 733 CURVE SMOOTH",
"160 517 OFFCURVE",
"209 344 OFFCURVE",
"305 221 CURVE SMOOTH",
"401 97 OFFCURVE",
"544 24 OFFCURVE",
"731 5 CURVE",
"731 -325 LINE"
);
}
);
width = 1015;
}
);
note = g129;
},
{
glyphname = g130;
lastChange = "2016-11-10 14:09:55 +0000";
layers = (
{
layerId = "614620BD-4CC0-4507-9D91-582C8BAD68CE";
paths = (
{
closed = 1;
nodes = (
"605 -325 LINE",
"605 27 LINE",
"644 16 OFFCURVE",
"686 9 OFFCURVE",
"731 5 CURVE",
"731 -325 LINE",
"895 -325 LINE",
"895 164 LINE",
"858 164 LINE SMOOTH",
"693 164 OFFCURVE",
"567 216 OFFCURVE",
"483 313 CURVE SMOOTH",
"398 409 OFFCURVE",
"354 551 OFFCURVE",
"354 731 CURVE SMOOTH",
"354 910 OFFCURVE",
"400 1052 OFFCURVE",
"487 1149 CURVE SMOOTH",
"574 1245 OFFCURVE",
"700 1298 OFFCURVE",
"860 1298 CURVE SMOOTH",
"895 1298 LINE",
"895 1462 LINE",
"862 1462 LINE SMOOTH",
"642 1462 OFFCURVE",
"466 1393 OFFCURVE",
"346 1268 CURVE SMOOTH",
"225 1143 OFFCURVE",
"160 960 OFFCURVE",
"160 733 CURVE SMOOTH",
"160 432 OFFCURVE",
"253 213 OFFCURVE",
"441 98 CURVE",
"441 -325 LINE"
);
}
);
width = 1015;
}
);
note = g130;
},
{
glyphname = g131;
lastChange = "2016-11-10 14:09:55 +0000";
layers = (
{
layerId = "614620BD-4CC0-4507-9D91-582C8BAD68CE";
paths = (
{
closed = 1;
nodes = (
"1041 56 OFFCURVE",
"1210 133 OFFCURVE",
"1329 257 CURVE SMOOTH",
"1448 381 OFFCURVE",
"1516 550 OFFCURVE",
"1516 734 CURVE SMOOTH",
"1516 943 OFFCURVE",
"1433 1120 OFFCURVE",
"1297 1241 CURVE",
"1641 1241 LINE",
"1641 1405 LINE",
"938 1405 LINE",
"905 1409 OFFCURVE",
"873 1412 OFFCURVE",
"838 1412 CURVE SMOOTH",
"803 1412 OFFCURVE",
"769 1409 OFFCURVE",
"736 1405 CURVE",
"35 1405 LINE",
"35 1241 LINE",
"378 1241 LINE",
"241 1116 OFFCURVE",
"160 937 OFFCURVE",
"160 734 CURVE SMOOTH",
"160 602 OFFCURVE",
"194 483 OFFCURVE",
"252 383 CURVE SMOOTH",
"310 282 OFFCURVE",
"393 200 OFFCURVE",
"494 144 CURVE SMOOTH",
"594 88 OFFCURVE",
"711 56 OFFCURVE",
"838 56 CURVE SMOOTH"
);
},
{
closed = 1;
nodes = (
"698 228 OFFCURVE",
"578 287 OFFCURVE",
"492 380 CURVE SMOOTH",
"406 473 OFFCURVE",
"355 599 OFFCURVE",
"355 735 CURVE SMOOTH",
"355 879 OFFCURVE",
"411 1006 OFFCURVE",
"499 1096 CURVE SMOOTH",
"587 1186 OFFCURVE",
"707 1240 OFFCURVE",
"838 1240 CURVE SMOOTH",
"978 1240 OFFCURVE",
"1099 1180 OFFCURVE",
"1185 1087 CURVE SMOOTH",
"1271 994 OFFCURVE",
"1321 868 OFFCURVE",
"1321 735 CURVE SMOOTH",
"1321 592 OFFCURVE",
"1266 466 OFFCURVE",
"1178 375 CURVE SMOOTH",
"1090 283 OFFCURVE",
"970 228 OFFCURVE",
"838 228 CURVE SMOOTH"
);
}
);
width = 1676;
}
);
note = g131;
},
{
glyphname = g132;
lastChange = "2016-11-10 14:09:55 +0000";
layers = (
{
layerId = "614620BD-4CC0-4507-9D91-582C8BAD68CE";
paths = (
{
closed = 1;
nodes = (
"1041 56 OFFCURVE",
"1210 133 OFFCURVE",
"1329 257 CURVE SMOOTH",
"1448 381 OFFCURVE",
"1516 550 OFFCURVE",
"1516 734 CURVE SMOOTH",
"1516 943 OFFCURVE",
"1433 1120 OFFCURVE",
"1297 1241 CURVE",
"1641 1241 LINE",
"1641 1405 LINE",
"938 1405 LINE",
"905 1409 OFFCURVE",
"873 1412 OFFCURVE",
"838 1412 CURVE SMOOTH",
"803 1412 OFFCURVE",
"769 1409 OFFCURVE",
"736 1405 CURVE",
"35 1405 LINE",
"35 1241 LINE",
"378 1241 LINE",
"326 1194 OFFCURVE",
"283 1140 OFFCURVE",
"248 1077 CURVE",
"35 1077 LINE",
"35 913 LINE",
"182 913 LINE",
"167 856 OFFCURVE",
"160 797 OFFCURVE",
"160 734 CURVE SMOOTH",
"160 602 OFFCURVE",
"194 483 OFFCURVE",
"252 383 CURVE SMOOTH",
"310 282 OFFCURVE",
"393 200 OFFCURVE",
"494 144 CURVE SMOOTH",
"594 88 OFFCURVE",
"711 56 OFFCURVE",
"838 56 CURVE SMOOTH"
);
},
{
closed = 1;
nodes = (
"698 228 OFFCURVE",
"578 287 OFFCURVE",
"492 380 CURVE SMOOTH",
"406 473 OFFCURVE",
"355 599 OFFCURVE",
"355 735 CURVE SMOOTH",
"355 879 OFFCURVE",
"411 1006 OFFCURVE",
"499 1096 CURVE SMOOTH",
"587 1186 OFFCURVE",
"707 1240 OFFCURVE",
"838 1240 CURVE SMOOTH",
"978 1240 OFFCURVE",
"1099 1180 OFFCURVE",
"1185 1087 CURVE SMOOTH",
"1271 994 OFFCURVE",
"1321 868 OFFCURVE",
"1321 735 CURVE SMOOTH",
"1321 592 OFFCURVE",
"1266 466 OFFCURVE",
"1178 375 CURVE SMOOTH",
"1090 283 OFFCURVE",
"970 228 OFFCURVE",
"838 228 CURVE SMOOTH"
);
}
);
width = 1676;
}
);
note = g132;
},
{
glyphname = g133;
lastChange = "2016-11-10 14:09:55 +0000";
layers = (
{
layerId = "614620BD-4CC0-4507-9D91-582C8BAD68CE";
paths = (
{
closed = 1;
nodes = (
"920 -325 LINE",
"920 60 LINE",
"1100 80 OFFCURVE",
"1249 162 OFFCURVE",
"1353 283 CURVE SMOOTH",
"1457 404 OFFCURVE",
"1516 562 OFFCURVE",
"1516 734 CURVE SMOOTH",
"1516 865 OFFCURVE",
"1483 985 OFFCURVE",
"1424 1085 CURVE SMOOTH",
"1365 1185 OFFCURVE",
"1282 1267 OFFCURVE",
"1182 1324 CURVE SMOOTH",
"1081 1380 OFFCURVE",
"963 1412 OFFCURVE",
"838 1412 CURVE SMOOTH",
"639 1412 OFFCURVE",
"470 1336 OFFCURVE",
"350 1213 CURVE SMOOTH",
"230 1090 OFFCURVE",
"160 921 OFFCURVE",
"160 734 CURVE SMOOTH",
"160 551 OFFCURVE",
"225 392 OFFCURVE",
"331 274 CURVE SMOOTH",
"437 156 OFFCURVE",
"585 79 OFFCURVE",
"756 60 CURVE",
"756 -325 LINE"
);
},
{
closed = 1;
nodes = (
"698 228 OFFCURVE",
"578 287 OFFCURVE",
"492 380 CURVE SMOOTH",
"406 473 OFFCURVE",
"355 599 OFFCURVE",
"355 735 CURVE SMOOTH",
"355 879 OFFCURVE",
"411 1006 OFFCURVE",
"499 1096 CURVE SMOOTH",
"587 1186 OFFCURVE",
"707 1240 OFFCURVE",
"838 1240 CURVE SMOOTH",
"978 1240 OFFCURVE",
"1099 1180 OFFCURVE",
"1185 1087 CURVE SMOOTH",
"1271 994 OFFCURVE",
"1321 868 OFFCURVE",
"1321 735 CURVE SMOOTH",
"1321 592 OFFCURVE",
"1266 466 OFFCURVE",
"1178 375 CURVE SMOOTH",
"1090 283 OFFCURVE",
"970 228 OFFCURVE",
"838 228 CURVE SMOOTH"
);
}
);
width = 1676;
}
);
note = g133;
},
{
glyphname = g134;
lastChange = "2016-11-10 14:09:55 +0000";
layers = (
{
layerId = "614620BD-4CC0-4507-9D91-582C8BAD68CE";
paths = (
{
closed = 1;
nodes = (
"775 -325 LINE",
"775 58 LINE",
"786 57 OFFCURVE",
"796 56 OFFCURVE",
"806 56 CURVE SMOOTH",
"816 56 OFFCURVE",
"827 56 OFFCURVE",
"838 56 CURVE SMOOTH",
"859 56 OFFCURVE",
"880 57 OFFCURVE",
"901 59 CURVE",
"901 -325 LINE",
"1065 -325 LINE",
"1065 91 LINE",
"1202 136 OFFCURVE",
"1315 224 OFFCURVE",
"1394 337 CURVE SMOOTH",
"1473 449 OFFCURVE",
"1516 587 OFFCURVE",
"1516 734 CURVE SMOOTH",
"1516 865 OFFCURVE",
"1483 985 OFFCURVE",
"1424 1085 CURVE SMOOTH",
"1365 1185 OFFCURVE",
"1282 1267 OFFCURVE",
"1182 1324 CURVE SMOOTH",
"1081 1380 OFFCURVE",
"963 1412 OFFCURVE",
"838 1412 CURVE SMOOTH",
"639 1412 OFFCURVE",
"470 1336 OFFCURVE",
"350 1213 CURVE SMOOTH",
"230 1090 OFFCURVE",
"160 921 OFFCURVE",
"160 734 CURVE SMOOTH",
"160 578 OFFCURVE",
"206 440 OFFCURVE",
"286 329 CURVE SMOOTH",
"366 218 OFFCURVE",
"479 136 OFFCURVE",
"611 92 CURVE",
"611 -325 LINE"
);
},
{
closed = 1;
nodes = (
"698 228 OFFCURVE",
"578 287 OFFCURVE",
"492 380 CURVE SMOOTH",
"406 473 OFFCURVE",
"355 599 OFFCURVE",
"355 735 CURVE SMOOTH",
"355 879 OFFCURVE",
"411 1006 OFFCURVE",
"499 1096 CURVE SMOOTH",
"587 1186 OFFCURVE",
"707 1240 OFFCURVE",
"838 1240 CURVE SMOOTH",
"978 1240 OFFCURVE",
"1099 1180 OFFCURVE",
"1185 1087 CURVE SMOOTH",
"1271 994 OFFCURVE",
"1321 868 OFFCURVE",
"1321 735 CURVE SMOOTH",
"1321 592 OFFCURVE",
"1266 466 OFFCURVE",
"1178 375 CURVE SMOOTH",
"1090 283 OFFCURVE",
"970 228 OFFCURVE",
"838 228 CURVE SMOOTH"
);
}
);
width = 1676;
}
);
note = g134;
},
{
glyphname = g135;
lastChange = "2016-11-10 14:09:55 +0000";
layers = (
{
layerId = "614620BD-4CC0-4507-9D91-582C8BAD68CE";
paths = (
{
closed = 1;
nodes = (
"713 -325 LINE",
"713 -19 LINE",
"834 -7 OFFCURVE",
"932 31 OFFCURVE",
"998 91 CURVE SMOOTH",
"1064 150 OFFCURVE",
"1099 231 OFFCURVE",
"1099 331 CURVE SMOOTH",
"1099 415 OFFCURVE",
"1069 486 OFFCURVE",
"1018 535 CURVE SMOOTH",
"966 584 OFFCURVE",
"892 612 OFFCURVE",
"804 612 CURVE SMOOTH",
"645 612 OFFCURVE",
"545 526 OFFCURVE",
"498 398 CURVE",
"669 318 LINE",
"698 406 OFFCURVE",
"747 450 OFFCURVE",
"818 450 CURVE SMOOTH",
"875 450 OFFCURVE",
"915 411 OFFCURVE",
"915 331 CURVE SMOOTH",
"915 211 OFFCURVE",
"808 148 OFFCURVE",
"635 148 CURVE SMOOTH",
"539 148 OFFCURVE",
"461 175 OFFCURVE",
"408 224 CURVE SMOOTH",
"355 272 OFFCURVE",
"325 344 OFFCURVE",
"325 433 CURVE SMOOTH",
"325 517 OFFCURVE",
"359 595 OFFCURVE",
"415 651 CURVE SMOOTH",
"471 707 OFFCURVE",
"548 742 OFFCURVE",
"635 742 CURVE SMOOTH",
"727 742 LINE",
"727 1462 LINE",
"543 1462 LINE",
"543 896 LINE",
"427 877 OFFCURVE",
"324 819 OFFCURVE",
"250 738 CURVE SMOOTH",
"176 657 OFFCURVE",
"130 552 OFFCURVE",
"130 440 CURVE SMOOTH",
"130 321 OFFCURVE",
"170 214 OFFCURVE",
"243 132 CURVE SMOOTH",
"315 50 OFFCURVE",
"420 -7 OFFCURVE",
"549 -20 CURVE",
"549 -325 LINE"
);
}
);
width = 1229;
}
);
note = g135;
},
{
glyphname = g136;
lastChange = "2016-11-10 14:09:55 +0000";
layers = (
{
layerId = "614620BD-4CC0-4507-9D91-582C8BAD68CE";
paths = (
{
closed = 1;
nodes = (
"568 -325 LINE",
"568 -22 LINE",
"583 -23 OFFCURVE",
"598 -24 OFFCURVE",
"614 -24 CURVE SMOOTH",
"641 -24 OFFCURVE",
"667 -23 OFFCURVE",
"694 -20 CURVE",
"694 -325 LINE",
"858 -325 LINE",
"858 12 LINE",
"1013 65 OFFCURVE",
"1099 174 OFFCURVE",
"1099 331 CURVE SMOOTH",
"1099 415 OFFCURVE",
"1069 486 OFFCURVE",
"1018 535 CURVE SMOOTH",
"966 584 OFFCURVE",
"892 612 OFFCURVE",
"804 612 CURVE SMOOTH",
"645 612 OFFCURVE",
"545 526 OFFCURVE",
"498 398 CURVE",
"669 318 LINE",
"698 406 OFFCURVE",
"747 450 OFFCURVE",
"818 450 CURVE SMOOTH",
"875 450 OFFCURVE",
"915 411 OFFCURVE",
"915 331 CURVE SMOOTH",
"915 211 OFFCURVE",
"808 148 OFFCURVE",
"635 148 CURVE SMOOTH",
"539 148 OFFCURVE",
"461 175 OFFCURVE",
"408 224 CURVE SMOOTH",
"355 272 OFFCURVE",
"325 344 OFFCURVE",
"325 433 CURVE SMOOTH",
"325 517 OFFCURVE",
"359 595 OFFCURVE",
"415 651 CURVE SMOOTH",
"471 707 OFFCURVE",
"548 742 OFFCURVE",
"635 742 CURVE SMOOTH",
"727 742 LINE",
"727 1462 LINE",
"543 1462 LINE",
"543 896 LINE",
"427 877 OFFCURVE",
"324 819 OFFCURVE",
"250 738 CURVE SMOOTH",
"176 657 OFFCURVE",
"130 552 OFFCURVE",
"130 440 CURVE SMOOTH",
"130 345 OFFCURVE",
"155 257 OFFCURVE",
"203 185 CURVE SMOOTH",
"250 112 OFFCURVE",
"317 53 OFFCURVE",
"404 17 CURVE",
"404 -325 LINE"
);
}
);
width = 1229;
}
);
note = g136;
},
{
glyphname = g137;
lastChange = "2016-11-10 14:09:55 +0000";
layers = (
{
layerId = "614620BD-4CC0-4507-9D91-582C8BAD68CE";
paths = (
{
closed = 1;
nodes = (
"1002 -325 LINE",
"1002 164 LINE",
"643 164 LINE",
"643 1298 LINE",
"1002 1298 LINE",
"1002 1462 LINE",
"100 1462 LINE",
"100 1298 LINE",
"459 1298 LINE",
"459 164 LINE",
"100 164 LINE",
"100 0 LINE",
"838 0 LINE",
"838 -325 LINE"
);
}
);
width = 1102;
}
);
note = g137;
},
{
glyphname = g138;
lastChange = "2016-11-10 14:09:55 +0000";
layers = (
{
layerId = "614620BD-4CC0-4507-9D91-582C8BAD68CE";
paths = (
{
closed = 1;
nodes = (
"712 -325 LINE",
"712 0 LINE",
"838 0 LINE",
"838 -325 LINE",
"1002 -325 LINE",
"1002 164 LINE",
"643 164 LINE",
"643 1298 LINE",
"1002 1298 LINE",
"1002 1462 LINE",
"100 1462 LINE",
"100 1298 LINE",
"459 1298 LINE",
"459 164 LINE",
"100 164 LINE",
"100 0 LINE",
"548 0 LINE",
"548 -325 LINE"
);
}
);
width = 1102;
}
);
note = g138;
},
{
glyphname = g139;
lastChange = "2016-11-10 14:09:55 +0000";
layers = (
{
layerId = "614620BD-4CC0-4507-9D91-582C8BAD68CE";
paths = (
{
closed = 1;
nodes = (
"1041 56 OFFCURVE",
"1210 133 OFFCURVE",
"1329 257 CURVE SMOOTH",
"1448 381 OFFCURVE",
"1516 550 OFFCURVE",
"1516 734 CURVE SMOOTH",
"1516 943 OFFCURVE",
"1433 1120 OFFCURVE",
"1297 1241 CURVE",
"1641 1241 LINE",
"1641 1405 LINE",
"938 1405 LINE",
"905 1409 OFFCURVE",
"873 1412 OFFCURVE",
"838 1412 CURVE SMOOTH",
"803 1412 OFFCURVE",
"769 1409 OFFCURVE",
"736 1405 CURVE",
"35 1405 LINE",
"35 1241 LINE",
"378 1241 LINE",
"241 1116 OFFCURVE",
"160 937 OFFCURVE",
"160 734 CURVE SMOOTH",
"160 602 OFFCURVE",
"194 483 OFFCURVE",
"252 383 CURVE SMOOTH",
"310 282 OFFCURVE",
"393 200 OFFCURVE",
"494 144 CURVE SMOOTH",
"594 88 OFFCURVE",
"711 56 OFFCURVE",
"838 56 CURVE SMOOTH"
);
},
{
closed = 1;
nodes = (
"698 228 OFFCURVE",
"578 287 OFFCURVE",
"492 380 CURVE SMOOTH",
"406 473 OFFCURVE",
"355 599 OFFCURVE",
"355 735 CURVE SMOOTH",
"355 879 OFFCURVE",
"411 1006 OFFCURVE",
"499 1096 CURVE SMOOTH",
"587 1186 OFFCURVE",
"707 1240 OFFCURVE",
"838 1240 CURVE SMOOTH",
"978 1240 OFFCURVE",
"1099 1180 OFFCURVE",
"1185 1087 CURVE SMOOTH",
"1271 994 OFFCURVE",
"1321 868 OFFCURVE",
"1321 735 CURVE SMOOTH",
"1321 592 OFFCURVE",
"1266 466 OFFCURVE",
"1178 375 CURVE SMOOTH",
"1090 283 OFFCURVE",
"970 228 OFFCURVE",
"838 228 CURVE SMOOTH"
);
},
{
closed = 1;
nodes = (
"917 602 OFFCURVE",
"965 656 OFFCURVE",
"965 741 CURVE SMOOTH",
"965 830 OFFCURVE",
"920 880 OFFCURVE",
"836 880 CURVE SMOOTH",
"752 880 OFFCURVE",
"711 829 OFFCURVE",
"711 741 CURVE SMOOTH",
"711 653 OFFCURVE",
"756 602 OFFCURVE",
"836 602 CURVE SMOOTH"
);
}
);
width = 1676;
}
);
note = g139;
},
{
glyphname = g140;
lastChange = "2016-11-10 14:09:55 +0000";
layers = (
{
layerId = "614620BD-4CC0-4507-9D91-582C8BAD68CE";
paths = (
{
closed = 1;
nodes = (
"1041 56 OFFCURVE",
"1210 133 OFFCURVE",
"1329 257 CURVE SMOOTH",
"1448 381 OFFCURVE",
"1516 550 OFFCURVE",
"1516 734 CURVE SMOOTH",
"1516 943 OFFCURVE",
"1433 1120 OFFCURVE",
"1297 1241 CURVE",
"1641 1241 LINE",
"1641 1405 LINE",
"938 1405 LINE",
"905 1409 OFFCURVE",
"873 1412 OFFCURVE",
"838 1412 CURVE SMOOTH",
"803 1412 OFFCURVE",
"769 1409 OFFCURVE",
"736 1405 CURVE",
"35 1405 LINE",
"35 1241 LINE",
"378 1241 LINE",
"326 1194 OFFCURVE",
"283 1140 OFFCURVE",
"248 1077 CURVE",
"35 1077 LINE",
"35 913 LINE",
"182 913 LINE",
"167 856 OFFCURVE",
"160 797 OFFCURVE",
"160 734 CURVE SMOOTH",
"160 602 OFFCURVE",
"194 483 OFFCURVE",
"252 383 CURVE SMOOTH",
"310 282 OFFCURVE",
"393 200 OFFCURVE",
"494 144 CURVE SMOOTH",
"594 88 OFFCURVE",
"711 56 OFFCURVE",
"838 56 CURVE SMOOTH"
);
},
{
closed = 1;
nodes = (
"698 228 OFFCURVE",
"578 287 OFFCURVE",
"492 380 CURVE SMOOTH",
"406 473 OFFCURVE",
"355 599 OFFCURVE",
"355 735 CURVE SMOOTH",
"355 879 OFFCURVE",
"411 1006 OFFCURVE",
"499 1096 CURVE SMOOTH",
"587 1186 OFFCURVE",
"707 1240 OFFCURVE",
"838 1240 CURVE SMOOTH",
"978 1240 OFFCURVE",
"1099 1180 OFFCURVE",
"1185 1087 CURVE SMOOTH",
"1271 994 OFFCURVE",
"1321 868 OFFCURVE",
"1321 735 CURVE SMOOTH",
"1321 592 OFFCURVE",
"1266 466 OFFCURVE",
"1178 375 CURVE SMOOTH",
"1090 283 OFFCURVE",
"970 228 OFFCURVE",
"838 228 CURVE SMOOTH"
);
},
{
closed = 1;
nodes = (
"917 602 OFFCURVE",
"965 656 OFFCURVE",
"965 741 CURVE SMOOTH",
"965 830 OFFCURVE",
"920 880 OFFCURVE",
"836 880 CURVE SMOOTH",
"752 880 OFFCURVE",
"711 829 OFFCURVE",
"711 741 CURVE SMOOTH",
"711 653 OFFCURVE",
"756 602 OFFCURVE",
"836 602 CURVE SMOOTH"
);
}
);
width = 1676;
}
);
note = g140;
},
{
glyphname = g141;
lastChange = "2016-11-10 14:09:55 +0000";
layers = (
{
layerId = "614620BD-4CC0-4507-9D91-582C8BAD68CE";
paths = (
{
closed = 1;
nodes = (
"920 -325 LINE",
"920 60 LINE",
"1100 80 OFFCURVE",
"1249 162 OFFCURVE",
"1353 283 CURVE SMOOTH",
"1457 404 OFFCURVE",
"1516 562 OFFCURVE",
"1516 734 CURVE SMOOTH",
"1516 865 OFFCURVE",
"1483 985 OFFCURVE",
"1424 1085 CURVE SMOOTH",
"1365 1185 OFFCURVE",
"1282 1267 OFFCURVE",
"1182 1324 CURVE SMOOTH",
"1081 1380 OFFCURVE",
"963 1412 OFFCURVE",
"838 1412 CURVE SMOOTH",
"639 1412 OFFCURVE",
"470 1336 OFFCURVE",
"350 1213 CURVE SMOOTH",
"230 1090 OFFCURVE",
"160 921 OFFCURVE",
"160 734 CURVE SMOOTH",
"160 551 OFFCURVE",
"225 392 OFFCURVE",
"331 274 CURVE SMOOTH",
"437 156 OFFCURVE",
"585 79 OFFCURVE",
"756 60 CURVE",
"756 -325 LINE"
);
},
{
closed = 1;
nodes = (
"698 228 OFFCURVE",
"578 287 OFFCURVE",
"492 380 CURVE SMOOTH",
"406 473 OFFCURVE",
"355 599 OFFCURVE",
"355 735 CURVE SMOOTH",
"355 879 OFFCURVE",
"411 1006 OFFCURVE",
"499 1096 CURVE SMOOTH",
"587 1186 OFFCURVE",
"707 1240 OFFCURVE",
"838 1240 CURVE SMOOTH",
"978 1240 OFFCURVE",
"1099 1180 OFFCURVE",
"1185 1087 CURVE SMOOTH",
"1271 994 OFFCURVE",
"1321 868 OFFCURVE",
"1321 735 CURVE SMOOTH",
"1321 592 OFFCURVE",
"1266 466 OFFCURVE",
"1178 375 CURVE SMOOTH",
"1090 283 OFFCURVE",
"970 228 OFFCURVE",
"838 228 CURVE SMOOTH"
);
},
{
closed = 1;
nodes = (
"917 602 OFFCURVE",
"965 656 OFFCURVE",
"965 741 CURVE SMOOTH",
"965 830 OFFCURVE",
"920 880 OFFCURVE",
"836 880 CURVE SMOOTH",
"752 880 OFFCURVE",
"711 829 OFFCURVE",
"711 741 CURVE SMOOTH",
"711 653 OFFCURVE",
"756 602 OFFCURVE",
"836 602 CURVE SMOOTH"
);
}
);
width = 1676;
}
);
note = g141;
},
{
glyphname = g142;
lastChange = "2016-11-10 14:09:55 +0000";
layers = (
{
layerId = "614620BD-4CC0-4507-9D91-582C8BAD68CE";
paths = (
{
closed = 1;
nodes = (
"775 -325 LINE",
"775 58 LINE",
"786 57 OFFCURVE",
"796 56 OFFCURVE",
"806 56 CURVE SMOOTH",
"816 56 OFFCURVE",
"827 56 OFFCURVE",
"838 56 CURVE SMOOTH",
"859 56 OFFCURVE",
"880 57 OFFCURVE",
"901 59 CURVE",
"901 -325 LINE",
"1065 -325 LINE",
"1065 91 LINE",
"1202 136 OFFCURVE",
"1315 224 OFFCURVE",
"1394 337 CURVE SMOOTH",
"1473 449 OFFCURVE",
"1516 587 OFFCURVE",
"1516 734 CURVE SMOOTH",
"1516 865 OFFCURVE",
"1483 985 OFFCURVE",
"1424 1085 CURVE SMOOTH",
"1365 1185 OFFCURVE",
"1282 1267 OFFCURVE",
"1182 1324 CURVE SMOOTH",
"1081 1380 OFFCURVE",
"963 1412 OFFCURVE",
"838 1412 CURVE SMOOTH",
"639 1412 OFFCURVE",
"470 1336 OFFCURVE",
"350 1213 CURVE SMOOTH",
"230 1090 OFFCURVE",
"160 921 OFFCURVE",
"160 734 CURVE SMOOTH",
"160 578 OFFCURVE",
"206 440 OFFCURVE",
"286 329 CURVE SMOOTH",
"366 218 OFFCURVE",
"479 136 OFFCURVE",
"611 92 CURVE",
"611 -325 LINE"
);
},
{
closed = 1;
nodes = (
"698 228 OFFCURVE",
"578 287 OFFCURVE",
"492 380 CURVE SMOOTH",
"406 473 OFFCURVE",
"355 599 OFFCURVE",
"355 735 CURVE SMOOTH",
"355 879 OFFCURVE",
"411 1006 OFFCURVE",
"499 1096 CURVE SMOOTH",
"587 1186 OFFCURVE",
"707 1240 OFFCURVE",
"838 1240 CURVE SMOOTH",
"978 1240 OFFCURVE",
"1099 1180 OFFCURVE",
"1185 1087 CURVE SMOOTH",
"1271 994 OFFCURVE",
"1321 868 OFFCURVE",
"1321 735 CURVE SMOOTH",
"1321 592 OFFCURVE",
"1266 466 OFFCURVE",
"1178 375 CURVE SMOOTH",
"1090 283 OFFCURVE",
"970 228 OFFCURVE",
"838 228 CURVE SMOOTH"
);
},
{
closed = 1;
nodes = (
"917 602 OFFCURVE",
"965 656 OFFCURVE",
"965 741 CURVE SMOOTH",
"965 830 OFFCURVE",
"920 880 OFFCURVE",
"836 880 CURVE SMOOTH",
"752 880 OFFCURVE",
"711 829 OFFCURVE",
"711 741 CURVE SMOOTH",
"711 653 OFFCURVE",
"756 602 OFFCURVE",
"836 602 CURVE SMOOTH"
);
}
);
width = 1676;
}
);
note = g142;
},
{
glyphname = g143;
lastChange = "2016-11-10 14:09:55 +0000";
layers = (
{
layerId = "614620BD-4CC0-4507-9D91-582C8BAD68CE";
paths = (
{
closed = 1;
nodes = (
"650 0 LINE SMOOTH",
"1086 0 OFFCURVE",
"1322 258 OFFCURVE",
"1322 733 CURVE SMOOTH",
"1322 960 OFFCURVE",
"1260 1146 OFFCURVE",
"1105 1298 CURVE",
"1444 1298 LINE",
"1444 1462 LINE",
"436 1462 LINE",
"436 1302 LINE",
"50 1302 LINE",
"50 1138 LINE",
"436 1138 LINE",
"436 0 LINE"
);
},
{
closed = 1;
nodes = (
"620 1298 LINE",
"940 1298 OFFCURVE",
"1128 1088 OFFCURVE",
"1128 731 CURVE SMOOTH",
"1128 548 OFFCURVE",
"1083 407 OFFCURVE",
"998 311 CURVE SMOOTH",
"913 215 OFFCURVE",
"787 164 OFFCURVE",
"624 164 CURVE SMOOTH",
"620 164 LINE"
);
}
);
width = 1482;
}
);
note = g143;
},
{
glyphname = g144;
lastChange = "2016-11-10 14:09:55 +0000";
layers = (
{
layerId = "614620BD-4CC0-4507-9D91-582C8BAD68CE";
paths = (
{
closed = 1;
nodes = (
"650 0 LINE SMOOTH",
"1086 0 OFFCURVE",
"1322 258 OFFCURVE",
"1322 733 CURVE SMOOTH",
"1322 846 OFFCURVE",
"1310 947 OFFCURVE",
"1276 1040 CURVE SMOOTH",
"1242 1132 OFFCURVE",
"1188 1217 OFFCURVE",
"1105 1298 CURVE",
"1444 1298 LINE",
"1444 1462 LINE",
"50 1462 LINE",
"50 1298 LINE",
"436 1298 LINE",
"436 1134 LINE",
"50 1134 LINE",
"50 970 LINE",
"436 970 LINE",
"436 0 LINE"
);
},
{
closed = 1;
nodes = (
"620 1298 LINE",
"940 1298 OFFCURVE",
"1128 1088 OFFCURVE",
"1128 731 CURVE SMOOTH",
"1128 548 OFFCURVE",
"1083 407 OFFCURVE",
"998 311 CURVE SMOOTH",
"913 215 OFFCURVE",
"787 164 OFFCURVE",
"624 164 CURVE SMOOTH",
"620 164 LINE"
);
}
);
width = 1482;
}
);
note = g144;
},
{
glyphname = g145;
lastChange = "2016-11-10 14:09:55 +0000";
layers = (
{
layerId = "614620BD-4CC0-4507-9D91-582C8BAD68CE";
paths = (
{
closed = 1;
nodes = (
"1002 -325 LINE",
"1002 164 LINE",
"643 164 LINE",
"643 1462 LINE",
"459 1462 LINE",
"459 164 LINE",
"100 164 LINE",
"100 0 LINE",
"838 0 LINE",
"838 -325 LINE"
);
}
);
width = 1102;
}
);
note = g145;
},
{
glyphname = g146;
lastChange = "2016-11-10 14:09:55 +0000";
layers = (
{
layerId = "614620BD-4CC0-4507-9D91-582C8BAD68CE";
paths = (
{
closed = 1;
nodes = (
"712 -325 LINE",
"712 0 LINE",
"838 0 LINE",
"838 -325 LINE",
"1002 -325 LINE",
"1002 164 LINE",
"643 164 LINE",
"643 1462 LINE",
"459 1462 LINE",
"459 164 LINE",
"100 164 LINE",
"100 0 LINE",
"548 0 LINE",
"548 -325 LINE"
);
}
);
width = 1102;
}
);
note = g146;
},
{
glyphname = g147;
lastChange = "2016-11-10 14:09:55 +0000";
layers = (
{
layerId = "614620BD-4CC0-4507-9D91-582C8BAD68CE";
paths = (
{
closed = 1;
nodes = (
"724 -325 LINE",
"724 -19 LINE",
"856 -4 OFFCURVE",
"948 40 OFFCURVE",
"1005 125 CURVE SMOOTH",
"1062 210 OFFCURVE",
"1087 335 OFFCURVE",
"1087 511 CURVE SMOOTH",
"1087 517 LINE",
"903 517 LINE",
"903 511 LINE SMOOTH",
"903 375 OFFCURVE",
"888 284 OFFCURVE",
"847 228 CURVE SMOOTH",
"806 171 OFFCURVE",
"739 148 OFFCURVE",
"638 148 CURVE SMOOTH",
"535 148 OFFCURVE",
"473 168 OFFCURVE",
"435 224 CURVE SMOOTH",
"397 279 OFFCURVE",
"384 369 OFFCURVE",
"384 510 CURVE SMOOTH",
"384 1462 LINE",
"200 1462 LINE",
"200 516 LINE SMOOTH",
"200 336 OFFCURVE",
"224 209 OFFCURVE",
"281 123 CURVE SMOOTH",
"337 37 OFFCURVE",
"427 -7 OFFCURVE",
"560 -20 CURVE",
"560 -325 LINE"
);
}
);
width = 1247;
}
);
note = g147;
},
{
glyphname = g148;
lastChange = "2016-11-10 14:09:55 +0000";
layers = (
{
layerId = "614620BD-4CC0-4507-9D91-582C8BAD68CE";
paths = (
{
closed = 1;
nodes = (
"579 -325 LINE",
"579 -22 LINE",
"598 -23 OFFCURVE",
"617 -24 OFFCURVE",
"637 -24 CURVE SMOOTH",
"660 -24 OFFCURVE",
"683 -23 OFFCURVE",
"705 -21 CURVE",
"705 -325 LINE",
"869 -325 LINE",
"869 17 LINE",
"946 50 OFFCURVE",
"1001 102 OFFCURVE",
"1036 180 CURVE SMOOTH",
"1071 258 OFFCURVE",
"1087 364 OFFCURVE",
"1087 511 CURVE SMOOTH",
"1087 517 LINE",
"903 517 LINE",
"903 511 LINE SMOOTH",
"903 375 OFFCURVE",
"888 284 OFFCURVE",
"847 228 CURVE SMOOTH",
"806 171 OFFCURVE",
"739 148 OFFCURVE",
"638 148 CURVE SMOOTH",
"535 148 OFFCURVE",
"473 168 OFFCURVE",
"435 224 CURVE SMOOTH",
"397 279 OFFCURVE",
"384 369 OFFCURVE",
"384 510 CURVE SMOOTH",
"384 1462 LINE",
"200 1462 LINE",
"200 516 LINE SMOOTH",
"200 365 OFFCURVE",
"215 257 OFFCURVE",
"251 178 CURVE SMOOTH",
"286 99 OFFCURVE",
"339 49 OFFCURVE",
"415 14 CURVE",
"415 -325 LINE"
);
}
);
width = 1247;
}
);
note = g148;
},
{
glyphname = g149;
lastChange = "2016-11-10 14:09:55 +0000";
layers = (
{
layerId = "614620BD-4CC0-4507-9D91-582C8BAD68CE";
paths = (
{
closed = 1;
nodes = (
"710 -325 LINE",
"710 -15 LINE",
"814 5 OFFCURVE",
"898 57 OFFCURVE",
"958 133 CURVE SMOOTH",
"1017 208 OFFCURVE",
"1050 305 OFFCURVE",
"1050 414 CURVE SMOOTH",
"1050 534 OFFCURVE",
"1010 636 OFFCURVE",
"939 707 CURVE SMOOTH",
"867 778 OFFCURVE",
"765 819 OFFCURVE",
"638 819 CURVE SMOOTH",
"580 819 OFFCURVE",
"523 807 OFFCURVE",
"467 784 CURVE",
"543 630 LINE",
"582 641 OFFCURVE",
"620 647 OFFCURVE",
"657 647 CURVE SMOOTH",
"716 647 OFFCURVE",
"765 623 OFFCURVE",
"801 582 CURVE SMOOTH",
"836 541 OFFCURVE",
"856 483 OFFCURVE",
"856 418 CURVE SMOOTH",
"856 238 OFFCURVE",
"776 148 OFFCURVE",
"615 148 CURVE SMOOTH",
"530 148 OFFCURVE",
"472 168 OFFCURVE",
"436 215 CURVE SMOOTH",
"399 262 OFFCURVE",
"384 334 OFFCURVE",
"384 441 CURVE SMOOTH",
"384 1462 LINE",
"200 1462 LINE",
"200 441 LINE SMOOTH",
"200 154 OFFCURVE",
"309 3 OFFCURVE",
"546 -20 CURVE",
"546 -325 LINE"
);
}
);
width = 1180;
}
);
note = g149;
},
{
glyphname = g150;
lastChange = "2016-11-10 14:09:55 +0000";
layers = (
{
layerId = "614620BD-4CC0-4507-9D91-582C8BAD68CE";
paths = (
{
closed = 1;
nodes = (
"565 -325 LINE",
"565 -22 LINE",
"581 -23 OFFCURVE",
"596 -24 OFFCURVE",
"615 -24 CURVE SMOOTH",
"640 -24 OFFCURVE",
"666 -22 OFFCURVE",
"691 -18 CURVE",
"691 -325 LINE",
"855 -325 LINE",
"855 40 LINE",
"978 116 OFFCURVE",
"1050 251 OFFCURVE",
"1050 414 CURVE SMOOTH",
"1050 534 OFFCURVE",
"1010 636 OFFCURVE",
"939 707 CURVE SMOOTH",
"867 778 OFFCURVE",
"765 819 OFFCURVE",
"638 819 CURVE SMOOTH",
"580 819 OFFCURVE",
"523 807 OFFCURVE",
"467 784 CURVE",
"543 630 LINE",
"582 641 OFFCURVE",
"620 647 OFFCURVE",
"657 647 CURVE SMOOTH",
"716 647 OFFCURVE",
"765 623 OFFCURVE",
"801 582 CURVE SMOOTH",
"836 541 OFFCURVE",
"856 483 OFFCURVE",
"856 418 CURVE SMOOTH",
"856 238 OFFCURVE",
"776 148 OFFCURVE",
"615 148 CURVE SMOOTH",
"530 148 OFFCURVE",
"472 168 OFFCURVE",
"436 215 CURVE SMOOTH",
"399 262 OFFCURVE",
"384 334 OFFCURVE",
"384 441 CURVE SMOOTH",
"384 1462 LINE",
"200 1462 LINE",
"200 441 LINE SMOOTH",
"200 220 OFFCURVE",
"264 81 OFFCURVE",
"401 17 CURVE",
"401 -325 LINE"
);
}
);
width = 1180;
}
);
note = g150;
},
{
glyphname = g151;
lastChange = "2016-11-10 14:09:55 +0000";
layers = (
{
layerId = "614620BD-4CC0-4507-9D91-582C8BAD68CE";
paths = (
{
closed = 1;
nodes = (
"1563 144 LINE",
"1563 1172 LINE",
"1893 1172 LINE",
"1893 1336 LINE",
"50 1336 LINE",
"50 1172 LINE",
"380 1172 LINE",
"380 144 LINE"
);
},
{
closed = 1;
nodes = (
"564 1172 LINE",
"1379 1172 LINE",
"1379 308 LINE",
"564 308 LINE"
);
}
);
width = 1943;
}
);
note = g151;
},
{
glyphname = g152;
lastChange = "2016-11-10 14:09:55 +0000";
layers = (
{
layerId = "614620BD-4CC0-4507-9D91-582C8BAD68CE";
paths = (
{
closed = 1;
nodes = (
"1563 144 LINE",
"1563 1172 LINE",
"1893 1172 LINE",
"1893 1336 LINE",
"50 1336 LINE",
"50 1172 LINE",
"380 1172 LINE",
"380 1008 LINE",
"50 1008 LINE",
"50 844 LINE",
"380 844 LINE",
"380 144 LINE"
);
},
{
closed = 1;
nodes = (
"564 1172 LINE",
"1379 1172 LINE",
"1379 308 LINE",
"564 308 LINE"
);
}
);
width = 1943;
}
);
note = g152;
},
{
glyphname = g153;
lastChange = "2016-11-10 14:09:55 +0000";
layers = (
{
layerId = "614620BD-4CC0-4507-9D91-582C8BAD68CE";
paths = (
{
closed = 1;
nodes = (
"873 -225 LINE",
"873 144 LINE",
"1383 144 LINE",
"1383 1336 LINE",
"200 1336 LINE",
"200 144 LINE",
"709 144 LINE",
"709 -225 LINE"
);
},
{
closed = 1;
nodes = (
"384 1172 LINE",
"1199 1172 LINE",
"1199 308 LINE",
"384 308 LINE"
);
}
);
width = 1583;
}
);
note = g153;
},
{
glyphname = g154;
lastChange = "2016-11-10 14:09:55 +0000";
layers = (
{
layerId = "614620BD-4CC0-4507-9D91-582C8BAD68CE";
paths = (
{
closed = 1;
nodes = (
"728 -225 LINE",
"728 144 LINE",
"854 144 LINE",
"854 -225 LINE",
"1018 -225 LINE",
"1018 144 LINE",
"1383 144 LINE",
"1383 1336 LINE",
"200 1336 LINE",
"200 144 LINE",
"564 144 LINE",
"564 -225 LINE"
);
},
{
closed = 1;
nodes = (
"384 1172 LINE",
"1199 1172 LINE",
"1199 308 LINE",
"384 308 LINE"
);
}
);
width = 1583;
}
);
note = g154;
},
{
glyphname = g155;
lastChange = "2016-11-10 14:09:55 +0000";
layers = (
{
layerId = "614620BD-4CC0-4507-9D91-582C8BAD68CE";
paths = (
{
closed = 1;
nodes = (
"1128 -24 OFFCURVE",
"1238 11 OFFCURVE",
"1314 76 CURVE SMOOTH",
"1389 140 OFFCURVE",
"1428 236 OFFCURVE",
"1428 357 CURVE SMOOTH",
"1428 536 OFFCURVE",
"1347 680 OFFCURVE",
"1151 809 CURVE",
"1288 893 OFFCURVE",
"1380 964 OFFCURVE",
"1440 1040 CURVE SMOOTH",
"1500 1116 OFFCURVE",
"1529 1195 OFFCURVE",
"1541 1298 CURVE",
"1932 1298 LINE",
"1932 1462 LINE",
"1362 1462 LINE",
"1362 1380 LINE SMOOTH",
"1362 1253 OFFCURVE",
"1316 1163 OFFCURVE",
"1248 1091 CURVE SMOOTH",
"1179 1019 OFFCURVE",
"1086 964 OFFCURVE",
"991 905 CURVE",
"896 964 OFFCURVE",
"803 1019 OFFCURVE",
"734 1091 CURVE SMOOTH",
"665 1163 OFFCURVE",
"620 1252 OFFCURVE",
"620 1380 CURVE SMOOTH",
"620 1462 LINE",
"50 1462 LINE",
"50 1298 LINE",
"440 1298 LINE",
"448 1233 OFFCURVE",
"465 1176 OFFCURVE",
"491 1125 CURVE SMOOTH",
"542 1023 OFFCURVE",
"613 937 OFFCURVE",
"833 806 CURVE",
"641 682 OFFCURVE",
"555 540 OFFCURVE",
"555 357 CURVE SMOOTH",
"555 237 OFFCURVE",
"594 141 OFFCURVE",
"667 76 CURVE SMOOTH",
"740 11 OFFCURVE",
"848 -24 OFFCURVE",
"987 -24 CURVE SMOOTH"
);
},
{
closed = 1;
nodes = (
"839 148 OFFCURVE",
"749 218 OFFCURVE",
"749 365 CURVE SMOOTH",
"749 504 OFFCURVE",
"829 613 OFFCURVE",
"994 716 CURVE",
"1158 612 OFFCURVE",
"1233 504 OFFCURVE",
"1233 365 CURVE SMOOTH",
"1233 217 OFFCURVE",
"1143 148 OFFCURVE",
"987 148 CURVE SMOOTH"
);
}
);
width = 1982;
}
);
note = g155;
},
{
glyphname = g156;
lastChange = "2016-11-10 14:09:55 +0000";
layers = (
{
layerId = "614620BD-4CC0-4507-9D91-582C8BAD68CE";
paths = (
{
closed = 1;
nodes = (
"1128 -24 OFFCURVE",
"1238 11 OFFCURVE",
"1314 76 CURVE SMOOTH",
"1389 140 OFFCURVE",
"1428 236 OFFCURVE",
"1428 357 CURVE SMOOTH",
"1428 536 OFFCURVE",
"1347 680 OFFCURVE",
"1151 809 CURVE",
"1288 893 OFFCURVE",
"1380 964 OFFCURVE",
"1440 1040 CURVE SMOOTH",
"1500 1116 OFFCURVE",
"1529 1195 OFFCURVE",
"1541 1298 CURVE",
"1932 1298 LINE",
"1932 1462 LINE",
"1362 1462 LINE",
"1362 1380 LINE SMOOTH",
"1362 1253 OFFCURVE",
"1316 1163 OFFCURVE",
"1248 1091 CURVE SMOOTH",
"1179 1019 OFFCURVE",
"1086 964 OFFCURVE",
"991 905 CURVE",
"896 964 OFFCURVE",
"803 1019 OFFCURVE",
"734 1091 CURVE SMOOTH",
"665 1163 OFFCURVE",
"620 1252 OFFCURVE",
"620 1380 CURVE SMOOTH",
"620 1462 LINE",
"50 1462 LINE",
"50 1298 LINE",
"440 1298 LINE",
"447 1237 OFFCURVE",
"463 1183 OFFCURVE",
"486 1134 CURVE",
"50 1134 LINE",
"50 970 LINE",
"604 970 LINE",
"655 921 OFFCURVE",
"731 867 OFFCURVE",
"833 806 CURVE",
"641 682 OFFCURVE",
"555 540 OFFCURVE",
"555 357 CURVE SMOOTH",
"555 237 OFFCURVE",
"594 141 OFFCURVE",
"667 76 CURVE SMOOTH",
"740 11 OFFCURVE",
"848 -24 OFFCURVE",
"987 -24 CURVE SMOOTH"
);
},
{
closed = 1;
nodes = (
"839 148 OFFCURVE",
"749 218 OFFCURVE",
"749 365 CURVE SMOOTH",
"749 504 OFFCURVE",
"829 613 OFFCURVE",
"994 716 CURVE",
"1158 612 OFFCURVE",
"1233 504 OFFCURVE",
"1233 365 CURVE SMOOTH",
"1233 217 OFFCURVE",
"1143 148 OFFCURVE",
"987 148 CURVE SMOOTH"
);
}
);
width = 1982;
}
);
note = g156;
},
{
glyphname = g157;
lastChange = "2016-11-10 14:09:55 +0000";
layers = (
{
layerId = "614620BD-4CC0-4507-9D91-582C8BAD68CE";
paths = (
{
closed = 1;
nodes = (
"797 -325 LINE",
"797 -19 LINE",
"1026 6 OFFCURVE",
"1152 138 OFFCURVE",
"1152 357 CURVE SMOOTH",
"1152 536 OFFCURVE",
"1071 680 OFFCURVE",
"875 809 CURVE",
"1020 897 OFFCURVE",
"1118 976 OFFCURVE",
"1181 1064 CURVE SMOOTH",
"1244 1152 OFFCURVE",
"1270 1251 OFFCURVE",
"1270 1380 CURVE SMOOTH",
"1270 1462 LINE",
"1086 1462 LINE",
"1086 1380 LINE SMOOTH",
"1086 1253 OFFCURVE",
"1040 1163 OFFCURVE",
"972 1091 CURVE SMOOTH",
"903 1019 OFFCURVE",
"810 964 OFFCURVE",
"715 905 CURVE",
"620 964 OFFCURVE",
"527 1019 OFFCURVE",
"458 1091 CURVE SMOOTH",
"389 1163 OFFCURVE",
"344 1252 OFFCURVE",
"344 1380 CURVE SMOOTH",
"344 1462 LINE",
"160 1462 LINE",
"160 1380 LINE SMOOTH",
"160 1212 OFFCURVE",
"215 1087 OFFCURVE",
"316 982 CURVE SMOOTH",
"367 930 OFFCURVE",
"448 871 OFFCURVE",
"557 806 CURVE",
"365 682 OFFCURVE",
"279 540 OFFCURVE",
"279 357 CURVE SMOOTH",
"279 137 OFFCURVE",
"404 4 OFFCURVE",
"633 -20 CURVE",
"633 -325 LINE"
);
},
{
closed = 1;
nodes = (
"563 148 OFFCURVE",
"473 218 OFFCURVE",
"473 365 CURVE SMOOTH",
"473 504 OFFCURVE",
"553 613 OFFCURVE",
"718 716 CURVE",
"882 612 OFFCURVE",
"957 504 OFFCURVE",
"957 365 CURVE SMOOTH",
"957 217 OFFCURVE",
"867 148 OFFCURVE",
"711 148 CURVE SMOOTH"
);
}
);
width = 1430;
}
);
note = g157;
},
{
glyphname = g158;
lastChange = "2016-11-10 14:09:55 +0000";
layers = (
{
layerId = "614620BD-4CC0-4507-9D91-582C8BAD68CE";
paths = (
{
closed = 1;
nodes = (
"652 -325 LINE",
"652 -21 LINE",
"671 -23 OFFCURVE",
"690 -24 OFFCURVE",
"711 -24 CURVE SMOOTH",
"734 -24 OFFCURVE",
"756 -23 OFFCURVE",
"778 -21 CURVE",
"778 -325 LINE",
"942 -325 LINE",
"942 17 LINE",
"1079 74 OFFCURVE",
"1152 190 OFFCURVE",
"1152 357 CURVE SMOOTH",
"1152 536 OFFCURVE",
"1071 680 OFFCURVE",
"875 809 CURVE",
"1020 897 OFFCURVE",
"1118 976 OFFCURVE",
"1181 1064 CURVE SMOOTH",
"1244 1152 OFFCURVE",
"1270 1251 OFFCURVE",
"1270 1380 CURVE SMOOTH",
"1270 1462 LINE",
"1086 1462 LINE",
"1086 1380 LINE SMOOTH",
"1086 1253 OFFCURVE",
"1040 1163 OFFCURVE",
"972 1091 CURVE SMOOTH",
"903 1019 OFFCURVE",
"810 964 OFFCURVE",
"715 905 CURVE",
"620 964 OFFCURVE",
"527 1019 OFFCURVE",
"458 1091 CURVE SMOOTH",
"389 1163 OFFCURVE",
"344 1252 OFFCURVE",
"344 1380 CURVE SMOOTH",
"344 1462 LINE",
"160 1462 LINE",
"160 1380 LINE SMOOTH",
"160 1212 OFFCURVE",
"215 1087 OFFCURVE",
"316 982 CURVE SMOOTH",
"367 930 OFFCURVE",
"448 871 OFFCURVE",
"557 806 CURVE",
"365 682 OFFCURVE",
"279 540 OFFCURVE",
"279 357 CURVE SMOOTH",
"279 190 OFFCURVE",
"351 74 OFFCURVE",
"488 15 CURVE",
"488 -325 LINE"
);
},
{
closed = 1;
nodes = (
"563 148 OFFCURVE",
"473 218 OFFCURVE",
"473 365 CURVE SMOOTH",
"473 504 OFFCURVE",
"553 613 OFFCURVE",
"718 716 CURVE",
"882 612 OFFCURVE",
"957 504 OFFCURVE",
"957 365 CURVE SMOOTH",
"957 217 OFFCURVE",
"867 148 OFFCURVE",
"711 148 CURVE SMOOTH"
);
}
);
width = 1430;
}
);
note = g158;
},
{
glyphname = g159;
lastChange = "2016-11-10 14:09:55 +0000";
layers = (
{
layerId = "614620BD-4CC0-4507-9D91-582C8BAD68CE";
paths = (
{
closed = 1;
nodes = (
"1210 -325 LINE",
"1210 -18 LINE",
"1317 -5 OFFCURVE",
"1395 36 OFFCURVE",
"1447 111 CURVE SMOOTH",
"1498 186 OFFCURVE",
"1522 295 OFFCURVE",
"1522 446 CURVE SMOOTH",
"1522 515 LINE",
"1338 515 LINE",
"1338 446 LINE SMOOTH",
"1338 334 OFFCURVE",
"1325 260 OFFCURVE",
"1293 213 CURVE SMOOTH",
"1261 166 OFFCURVE",
"1209 148 OFFCURVE",
"1132 148 CURVE SMOOTH",
"1049 148 OFFCURVE",
"996 166 OFFCURVE",
"964 210 CURVE SMOOTH",
"931 253 OFFCURVE",
"918 322 OFFCURVE",
"918 426 CURVE SMOOTH",
"918 1462 LINE",
"734 1462 LINE",
"734 426 LINE SMOOTH",
"734 327 OFFCURVE",
"720 257 OFFCURVE",
"687 213 CURVE SMOOTH",
"654 168 OFFCURVE",
"600 148 OFFCURVE",
"520 148 CURVE SMOOTH",
"443 148 OFFCURVE",
"391 166 OFFCURVE",
"359 213 CURVE SMOOTH",
"327 260 OFFCURVE",
"314 334 OFFCURVE",
"314 446 CURVE SMOOTH",
"314 515 LINE",
"130 515 LINE",
"130 446 LINE SMOOTH",
"130 277 OFFCURVE",
"161 160 OFFCURVE",
"226 85 CURVE SMOOTH",
"290 9 OFFCURVE",
"391 -24 OFFCURVE",
"531 -24 CURVE SMOOTH",
"667 -24 OFFCURVE",
"765 12 OFFCURVE",
"826 85 CURVE",
"874 26 OFFCURVE",
"947 -9 OFFCURVE",
"1046 -20 CURVE",
"1046 -325 LINE"
);
}
);
width = 1652;
}
);
note = g159;
},
{
glyphname = g160;
lastChange = "2016-11-10 14:09:55 +0000";
layers = (
{
layerId = "614620BD-4CC0-4507-9D91-582C8BAD68CE";
paths = (
{
closed = 1;
nodes = (
"1065 -325 LINE",
"1065 -22 LINE",
"1084 -23 OFFCURVE",
"1101 -24 OFFCURVE",
"1121 -24 CURVE SMOOTH",
"1145 -24 OFFCURVE",
"1168 -23 OFFCURVE",
"1191 -20 CURVE",
"1191 -325 LINE",
"1355 -325 LINE",
"1355 27 LINE",
"1467 94 OFFCURVE",
"1522 222 OFFCURVE",
"1522 446 CURVE SMOOTH",
"1522 515 LINE",
"1338 515 LINE",
"1338 446 LINE SMOOTH",
"1338 334 OFFCURVE",
"1325 260 OFFCURVE",
"1293 213 CURVE SMOOTH",
"1261 166 OFFCURVE",
"1209 148 OFFCURVE",
"1132 148 CURVE SMOOTH",
"1049 148 OFFCURVE",
"996 166 OFFCURVE",
"964 210 CURVE SMOOTH",
"931 253 OFFCURVE",
"918 322 OFFCURVE",
"918 426 CURVE SMOOTH",
"918 1462 LINE",
"734 1462 LINE",
"734 426 LINE SMOOTH",
"734 327 OFFCURVE",
"720 257 OFFCURVE",
"687 213 CURVE SMOOTH",
"654 168 OFFCURVE",
"600 148 OFFCURVE",
"520 148 CURVE SMOOTH",
"443 148 OFFCURVE",
"391 166 OFFCURVE",
"359 213 CURVE SMOOTH",
"327 260 OFFCURVE",
"314 334 OFFCURVE",
"314 446 CURVE SMOOTH",
"314 515 LINE",
"130 515 LINE",
"130 446 LINE SMOOTH",
"130 277 OFFCURVE",
"161 160 OFFCURVE",
"226 85 CURVE SMOOTH",
"290 9 OFFCURVE",
"391 -24 OFFCURVE",
"531 -24 CURVE SMOOTH",
"667 -24 OFFCURVE",
"765 12 OFFCURVE",
"826 85 CURVE",
"847 60 OFFCURVE",
"872 39 OFFCURVE",
"901 23 CURVE",
"901 -325 LINE"
);
}
);
width = 1652;
}
);
note = g160;
},
{
glyphname = g161;
lastChange = "2016-11-10 14:09:55 +0000";
layers = (
{
layerId = "614620BD-4CC0-4507-9D91-582C8BAD68CE";
paths = (
{
closed = 1;
nodes = (
"937 -325 LINE",
"937 -20 LINE",
"1069 -7 OFFCURVE",
"1160 37 OFFCURVE",
"1218 124 CURVE SMOOTH",
"1276 211 OFFCURVE",
"1300 339 OFFCURVE",
"1300 520 CURVE SMOOTH",
"1300 1462 LINE",
"1116 1462 LINE",
"1116 514 LINE SMOOTH",
"1116 377 OFFCURVE",
"1103 285 OFFCURVE",
"1065 229 CURVE SMOOTH",
"1027 172 OFFCURVE",
"962 150 OFFCURVE",
"862 150 CURVE SMOOTH",
"759 150 OFFCURVE",
"693 174 OFFCURVE",
"652 231 CURVE SMOOTH",
"611 288 OFFCURVE",
"596 380 OFFCURVE",
"596 515 CURVE SMOOTH",
"596 523 LINE",
"100 523 LINE",
"100 359 LINE",
"420 359 LINE",
"435 238 OFFCURVE",
"469 149 OFFCURVE",
"526 88 CURVE SMOOTH",
"583 27 OFFCURVE",
"665 -7 OFFCURVE",
"773 -19 CURVE",
"773 -325 LINE"
);
}
);
width = 1500;
}
);
note = g161;
},
{
glyphname = g162;
lastChange = "2016-11-10 14:09:55 +0000";
layers = (
{
layerId = "614620BD-4CC0-4507-9D91-582C8BAD68CE";
paths = (
{
closed = 1;
nodes = (
"792 -325 LINE",
"792 -21 LINE",
"814 -23 OFFCURVE",
"838 -24 OFFCURVE",
"863 -24 CURVE SMOOTH",
"882 -24 OFFCURVE",
"899 -23 OFFCURVE",
"918 -22 CURVE",
"918 -325 LINE",
"1082 -325 LINE",
"1082 15 LINE",
"1158 48 OFFCURVE",
"1213 100 OFFCURVE",
"1249 181 CURVE SMOOTH",
"1284 261 OFFCURVE",
"1300 371 OFFCURVE",
"1300 520 CURVE SMOOTH",
"1300 1462 LINE",
"1116 1462 LINE",
"1116 514 LINE SMOOTH",
"1116 377 OFFCURVE",
"1103 285 OFFCURVE",
"1065 229 CURVE SMOOTH",
"1027 172 OFFCURVE",
"962 150 OFFCURVE",
"862 150 CURVE SMOOTH",
"759 150 OFFCURVE",
"693 174 OFFCURVE",
"652 231 CURVE SMOOTH",
"611 288 OFFCURVE",
"596 380 OFFCURVE",
"596 515 CURVE SMOOTH",
"596 523 LINE",
"100 523 LINE",
"100 359 LINE",
"420 359 LINE",
"432 266 OFFCURVE",
"453 195 OFFCURVE",
"487 140 CURVE SMOOTH",
"521 84 OFFCURVE",
"567 46 OFFCURVE",
"628 18 CURVE",
"628 -325 LINE"
);
}
);
width = 1500;
}
);
note = g162;
},
{
glyphname = g163;
lastChange = "2016-11-10 14:09:55 +0000";
layers = (
{
layerId = "614620BD-4CC0-4507-9D91-582C8BAD68CE";
paths = (
{
closed = 1;
nodes = (
"603 -325 LINE",
"603 -16 LINE",
"696 3 OFFCURVE",
"774 52 OFFCURVE",
"828 117 CURVE SMOOTH",
"882 182 OFFCURVE",
"912 264 OFFCURVE",
"912 351 CURVE SMOOTH",
"912 438 OFFCURVE",
"881 519 OFFCURVE",
"829 584 CURVE SMOOTH",
"776 648 OFFCURVE",
"701 696 OFFCURVE",
"613 717 CURVE",
"613 1462 LINE",
"429 1462 LINE",
"429 716 LINE",
"340 695 OFFCURVE",
"265 647 OFFCURVE",
"213 583 CURVE SMOOTH",
"160 518 OFFCURVE",
"130 438 OFFCURVE",
"130 351 CURVE SMOOTH",
"130 264 OFFCURVE",
"160 182 OFFCURVE",
"214 117 CURVE SMOOTH",
"268 52 OFFCURVE",
"344 3 OFFCURVE",
"439 -16 CURVE",
"439 -325 LINE"
);
},
{
closed = 1;
nodes = (
"462 138 OFFCURVE",
"410 162 OFFCURVE",
"374 201 CURVE SMOOTH",
"337 240 OFFCURVE",
"314 292 OFFCURVE",
"314 351 CURVE SMOOTH",
"314 410 OFFCURVE",
"337 463 OFFCURVE",
"374 502 CURVE SMOOTH",
"410 541 OFFCURVE",
"462 565 OFFCURVE",
"521 565 CURVE SMOOTH",
"580 565 OFFCURVE",
"632 541 OFFCURVE",
"669 502 CURVE SMOOTH",
"705 463 OFFCURVE",
"728 410 OFFCURVE",
"728 351 CURVE SMOOTH",
"728 292 OFFCURVE",
"705 240 OFFCURVE",
"668 201 CURVE SMOOTH",
"631 162 OFFCURVE",
"578 138 OFFCURVE",
"521 138 CURVE SMOOTH"
);
}
);
width = 1042;
}
);
note = g163;
},
{
glyphname = g164;
lastChange = "2016-11-10 14:09:55 +0000";
layers = (
{
layerId = "614620BD-4CC0-4507-9D91-582C8BAD68CE";
paths = (
{
closed = 1;
nodes = (
"458 -325 LINE",
"458 -19 LINE",
"478 -22 OFFCURVE",
"498 -24 OFFCURVE",
"521 -24 CURVE SMOOTH",
"542 -24 OFFCURVE",
"563 -22 OFFCURVE",
"584 -19 CURVE",
"584 -325 LINE",
"748 -325 LINE",
"748 45 LINE",
"851 114 OFFCURVE",
"912 227 OFFCURVE",
"912 351 CURVE SMOOTH",
"912 438 OFFCURVE",
"881 519 OFFCURVE",
"829 584 CURVE SMOOTH",
"776 648 OFFCURVE",
"701 696 OFFCURVE",
"613 717 CURVE",
"613 1462 LINE",
"429 1462 LINE",
"429 716 LINE",
"340 695 OFFCURVE",
"265 647 OFFCURVE",
"213 583 CURVE SMOOTH",
"160 518 OFFCURVE",
"130 438 OFFCURVE",
"130 351 CURVE SMOOTH",
"130 226 OFFCURVE",
"190 115 OFFCURVE",
"294 44 CURVE",
"294 -325 LINE"
);
},
{
closed = 1;
nodes = (
"462 138 OFFCURVE",
"410 162 OFFCURVE",
"374 201 CURVE SMOOTH",
"337 240 OFFCURVE",
"314 292 OFFCURVE",
"314 351 CURVE SMOOTH",
"314 410 OFFCURVE",
"337 463 OFFCURVE",
"374 502 CURVE SMOOTH",
"410 541 OFFCURVE",
"462 565 OFFCURVE",
"521 565 CURVE SMOOTH",
"580 565 OFFCURVE",
"632 541 OFFCURVE",
"669 502 CURVE SMOOTH",
"705 463 OFFCURVE",
"728 410 OFFCURVE",
"728 351 CURVE SMOOTH",
"728 292 OFFCURVE",
"705 240 OFFCURVE",
"668 201 CURVE SMOOTH",
"631 162 OFFCURVE",
"578 138 OFFCURVE",
"521 138 CURVE SMOOTH"
);
}
);
width = 1042;
}
);
note = g164;
},
{
glyphname = g165;
lastChange = "2016-11-10 14:09:55 +0000";
layers = (
{
layerId = "614620BD-4CC0-4507-9D91-582C8BAD68CE";
paths = (
{
closed = 1;
nodes = (
"724 -325 LINE",
"724 -19 LINE",
"856 -4 OFFCURVE",
"948 40 OFFCURVE",
"1005 125 CURVE SMOOTH",
"1062 210 OFFCURVE",
"1087 335 OFFCURVE",
"1087 511 CURVE SMOOTH",
"1087 517 LINE",
"903 517 LINE",
"903 511 LINE SMOOTH",
"903 375 OFFCURVE",
"888 284 OFFCURVE",
"847 228 CURVE SMOOTH",
"806 171 OFFCURVE",
"739 148 OFFCURVE",
"638 148 CURVE SMOOTH",
"535 148 OFFCURVE",
"473 168 OFFCURVE",
"435 224 CURVE SMOOTH",
"397 279 OFFCURVE",
"384 369 OFFCURVE",
"384 510 CURVE SMOOTH",
"384 748 LINE",
"954 934 LINE",
"904 1088 LINE",
"384 918 LINE",
"384 1462 LINE",
"200 1462 LINE",
"200 516 LINE SMOOTH",
"200 336 OFFCURVE",
"224 209 OFFCURVE",
"281 123 CURVE SMOOTH",
"337 37 OFFCURVE",
"427 -7 OFFCURVE",
"560 -20 CURVE",
"560 -325 LINE"
);
}
);
width = 1247;
}
);
note = g165;
},
{
glyphname = g166;
lastChange = "2016-11-10 14:09:55 +0000";
layers = (
{
layerId = "614620BD-4CC0-4507-9D91-582C8BAD68CE";
paths = (
{
closed = 1;
nodes = (
"579 -325 LINE",
"579 -22 LINE",
"598 -23 OFFCURVE",
"617 -24 OFFCURVE",
"637 -24 CURVE SMOOTH",
"660 -24 OFFCURVE",
"683 -23 OFFCURVE",
"705 -21 CURVE",
"705 -325 LINE",
"869 -325 LINE",
"869 17 LINE",
"946 50 OFFCURVE",
"1001 102 OFFCURVE",
"1036 180 CURVE SMOOTH",
"1071 258 OFFCURVE",
"1087 364 OFFCURVE",
"1087 511 CURVE SMOOTH",
"1087 517 LINE",
"903 517 LINE",
"903 511 LINE SMOOTH",
"903 375 OFFCURVE",
"888 284 OFFCURVE",
"847 228 CURVE SMOOTH",
"806 171 OFFCURVE",
"739 148 OFFCURVE",
"638 148 CURVE SMOOTH",
"535 148 OFFCURVE",
"473 168 OFFCURVE",
"435 224 CURVE SMOOTH",
"397 279 OFFCURVE",
"384 369 OFFCURVE",
"384 510 CURVE SMOOTH",
"384 748 LINE",
"954 934 LINE",
"904 1088 LINE",
"384 918 LINE",
"384 1462 LINE",
"200 1462 LINE",
"200 516 LINE SMOOTH",
"200 365 OFFCURVE",
"215 257 OFFCURVE",
"251 178 CURVE SMOOTH",
"286 99 OFFCURVE",
"339 49 OFFCURVE",
"415 14 CURVE",
"415 -325 LINE"
);
}
);
width = 1247;
}
);
note = g166;
},
{
glyphname = g167;
lastChange = "2016-11-10 14:09:55 +0000";
layers = (
{
layerId = "614620BD-4CC0-4507-9D91-582C8BAD68CE";
paths = (
{
closed = 1;
nodes = (
"1274 -325 LINE",
"1274 -20 LINE",
"1413 -5 OFFCURVE",
"1511 43 OFFCURVE",
"1575 131 CURVE SMOOTH",
"1639 218 OFFCURVE",
"1668 343 OFFCURVE",
"1668 511 CURVE SMOOTH",
"1668 517 LINE",
"1484 517 LINE",
"1484 511 LINE SMOOTH",
"1484 380 OFFCURVE",
"1461 290 OFFCURVE",
"1413 232 CURVE SMOOTH",
"1365 174 OFFCURVE",
"1290 148 OFFCURVE",
"1189 148 CURVE SMOOTH",
"1088 148 OFFCURVE",
"1018 170 OFFCURVE",
"972 227 CURVE SMOOTH",
"926 283 OFFCURVE",
"905 374 OFFCURVE",
"905 510 CURVE SMOOTH",
"905 1462 LINE",
"721 1462 LINE",
"721 712 LINE",
"670 727 OFFCURVE",
"619 735 OFFCURVE",
"568 735 CURVE SMOOTH",
"301 735 OFFCURVE",
"160 614 OFFCURVE",
"160 334 CURVE SMOOTH",
"160 0 LINE",
"344 0 LINE",
"344 299 LINE SMOOTH",
"344 392 OFFCURVE",
"360 458 OFFCURVE",
"399 501 CURVE SMOOTH",
"438 544 OFFCURVE",
"499 564 OFFCURVE",
"590 564 CURVE SMOOTH",
"640 564 OFFCURVE",
"684 558 OFFCURVE",
"721 546 CURVE",
"721 516 LINE SMOOTH",
"721 343 OFFCURVE",
"751 216 OFFCURVE",
"815 128 CURVE SMOOTH",
"878 40 OFFCURVE",
"975 -7 OFFCURVE",
"1110 -20 CURVE",
"1110 -325 LINE"
);
}
);
width = 1798;
}
);
note = g167;
},
{
glyphname = g168;
lastChange = "2016-11-10 14:09:55 +0000";
layers = (
{
layerId = "614620BD-4CC0-4507-9D91-582C8BAD68CE";
paths = (
{
closed = 1;
nodes = (
"1129 -325 LINE",
"1129 -22 LINE",
"1148 -23 OFFCURVE",
"1167 -24 OFFCURVE",
"1188 -24 CURVE SMOOTH",
"1211 -24 OFFCURVE",
"1233 -23 OFFCURVE",
"1255 -21 CURVE",
"1255 -325 LINE",
"1419 -325 LINE",
"1419 14 LINE",
"1504 49 OFFCURVE",
"1566 104 OFFCURVE",
"1607 185 CURVE SMOOTH",
"1648 265 OFFCURVE",
"1668 371 OFFCURVE",
"1668 511 CURVE SMOOTH",
"1668 517 LINE",
"1484 517 LINE",
"1484 511 LINE SMOOTH",
"1484 380 OFFCURVE",
"1461 290 OFFCURVE",
"1413 232 CURVE SMOOTH",
"1365 174 OFFCURVE",
"1290 148 OFFCURVE",
"1189 148 CURVE SMOOTH",
"1088 148 OFFCURVE",
"1018 170 OFFCURVE",
"972 227 CURVE SMOOTH",
"926 283 OFFCURVE",
"905 374 OFFCURVE",
"905 510 CURVE SMOOTH",
"905 1462 LINE",
"721 1462 LINE",
"721 712 LINE",
"670 727 OFFCURVE",
"619 735 OFFCURVE",
"568 735 CURVE SMOOTH",
"301 735 OFFCURVE",
"160 614 OFFCURVE",
"160 334 CURVE SMOOTH",
"160 0 LINE",
"344 0 LINE",
"344 299 LINE SMOOTH",
"344 392 OFFCURVE",
"360 458 OFFCURVE",
"399 501 CURVE SMOOTH",
"438 544 OFFCURVE",
"499 564 OFFCURVE",
"590 564 CURVE SMOOTH",
"640 564 OFFCURVE",
"684 558 OFFCURVE",
"721 546 CURVE",
"721 516 LINE SMOOTH",
"721 377 OFFCURVE",
"740 269 OFFCURVE",
"780 186 CURVE SMOOTH",
"820 103 OFFCURVE",
"881 48 OFFCURVE",
"965 13 CURVE",
"965 -325 LINE"
);
}
);
width = 1798;
}
);
note = g168;
},
{
glyphname = g169;
lastChange = "2016-11-10 14:09:55 +0000";
layers = (
{
layerId = "614620BD-4CC0-4507-9D91-582C8BAD68CE";
paths = (
{
closed = 1;
nodes = (
"726 -325 LINE",
"726 -19 LINE",
"943 4 OFFCURVE",
"1053 119 OFFCURVE",
"1080 359 CURVE",
"1400 359 LINE",
"1400 523 LINE",
"904 523 LINE",
"904 383 OFFCURVE",
"889 289 OFFCURVE",
"849 230 CURVE SMOOTH",
"808 171 OFFCURVE",
"742 148 OFFCURVE",
"638 148 CURVE SMOOTH",
"535 148 OFFCURVE",
"473 168 OFFCURVE",
"435 224 CURVE SMOOTH",
"397 279 OFFCURVE",
"384 369 OFFCURVE",
"384 510 CURVE SMOOTH",
"384 1462 LINE",
"200 1462 LINE",
"200 516 LINE SMOOTH",
"200 336 OFFCURVE",
"224 209 OFFCURVE",
"281 123 CURVE SMOOTH",
"337 37 OFFCURVE",
"427 -8 OFFCURVE",
"562 -21 CURVE",
"562 -325 LINE"
);
}
);
width = 1500;
}
);
note = g169;
},
{
glyphname = g170;
lastChange = "2016-11-10 14:09:55 +0000";
layers = (
{
layerId = "614620BD-4CC0-4507-9D91-582C8BAD68CE";
paths = (
{
closed = 1;
nodes = (
"581 -325 LINE",
"581 -22 LINE",
"600 -23 OFFCURVE",
"617 -24 OFFCURVE",
"637 -24 CURVE SMOOTH",
"660 -24 OFFCURVE",
"684 -23 OFFCURVE",
"707 -21 CURVE",
"707 -325 LINE",
"871 -325 LINE",
"871 17 LINE",
"992 69 OFFCURVE",
"1060 178 OFFCURVE",
"1080 359 CURVE",
"1400 359 LINE",
"1400 523 LINE",
"904 523 LINE",
"904 383 OFFCURVE",
"889 289 OFFCURVE",
"849 230 CURVE SMOOTH",
"808 171 OFFCURVE",
"742 148 OFFCURVE",
"638 148 CURVE SMOOTH",
"535 148 OFFCURVE",
"473 168 OFFCURVE",
"435 224 CURVE SMOOTH",
"397 279 OFFCURVE",
"384 369 OFFCURVE",
"384 510 CURVE SMOOTH",
"384 1462 LINE",
"200 1462 LINE",
"200 516 LINE SMOOTH",
"200 367 OFFCURVE",
"216 257 OFFCURVE",
"251 177 CURVE SMOOTH",
"286 96 OFFCURVE",
"341 45 OFFCURVE",
"417 13 CURVE",
"417 -325 LINE"
);
}
);
width = 1500;
}
);
note = g170;
},
{
glyphname = g171;
lastChange = "2016-11-10 14:09:55 +0000";
layers = (
{
layerId = "614620BD-4CC0-4507-9D91-582C8BAD68CE";
paths = (
{
closed = 1;
nodes = (
"937 -325 LINE",
"937 -20 LINE",
"1069 -8 OFFCURVE",
"1160 36 OFFCURVE",
"1218 122 CURVE SMOOTH",
"1276 208 OFFCURVE",
"1300 336 OFFCURVE",
"1300 516 CURVE SMOOTH",
"1300 544 LINE",
"1339 557 OFFCURVE",
"1384 564 OFFCURVE",
"1435 564 CURVE SMOOTH",
"1524 564 OFFCURVE",
"1586 544 OFFCURVE",
"1625 501 CURVE SMOOTH",
"1664 458 OFFCURVE",
"1681 391 OFFCURVE",
"1681 299 CURVE SMOOTH",
"1681 0 LINE",
"1865 0 LINE",
"1865 334 LINE SMOOTH",
"1865 614 OFFCURVE",
"1724 735 OFFCURVE",
"1457 735 CURVE SMOOTH",
"1402 735 OFFCURVE",
"1350 727 OFFCURVE",
"1300 711 CURVE",
"1300 1462 LINE",
"1116 1462 LINE",
"1116 510 LINE SMOOTH",
"1116 371 OFFCURVE",
"1105 281 OFFCURVE",
"1067 225 CURVE SMOOTH",
"1029 169 OFFCURVE",
"965 148 OFFCURVE",
"862 148 CURVE SMOOTH",
"759 148 OFFCURVE",
"692 171 OFFCURVE",
"652 231 CURVE SMOOTH",
"611 290 OFFCURVE",
"596 383 OFFCURVE",
"596 523 CURVE",
"100 523 LINE",
"100 359 LINE",
"420 359 LINE",
"433 238 OFFCURVE",
"468 149 OFFCURVE",
"526 88 CURVE SMOOTH",
"584 27 OFFCURVE",
"665 -7 OFFCURVE",
"773 -19 CURVE",
"773 -325 LINE"
);
}
);
width = 2025;
}
);
note = g171;
},
{
glyphname = g172;
lastChange = "2016-11-10 14:09:55 +0000";
layers = (
{
layerId = "614620BD-4CC0-4507-9D91-582C8BAD68CE";
paths = (
{
closed = 1;
nodes = (
"792 -325 LINE",
"792 -21 LINE",
"814 -23 OFFCURVE",
"838 -24 OFFCURVE",
"863 -24 CURVE SMOOTH",
"882 -24 OFFCURVE",
"899 -23 OFFCURVE",
"918 -22 CURVE",
"918 -325 LINE",
"1082 -325 LINE",
"1082 14 LINE",
"1158 46 OFFCURVE",
"1212 97 OFFCURVE",
"1248 177 CURVE SMOOTH",
"1284 256 OFFCURVE",
"1300 365 OFFCURVE",
"1300 516 CURVE SMOOTH",
"1300 544 LINE",
"1339 557 OFFCURVE",
"1384 564 OFFCURVE",
"1435 564 CURVE SMOOTH",
"1524 564 OFFCURVE",
"1586 544 OFFCURVE",
"1625 501 CURVE SMOOTH",
"1664 458 OFFCURVE",
"1681 391 OFFCURVE",
"1681 299 CURVE SMOOTH",
"1681 0 LINE",
"1865 0 LINE",
"1865 334 LINE SMOOTH",
"1865 614 OFFCURVE",
"1724 735 OFFCURVE",
"1457 735 CURVE SMOOTH",
"1402 735 OFFCURVE",
"1350 727 OFFCURVE",
"1300 711 CURVE",
"1300 1462 LINE",
"1116 1462 LINE",
"1116 510 LINE SMOOTH",
"1116 371 OFFCURVE",
"1105 281 OFFCURVE",
"1067 225 CURVE SMOOTH",
"1029 169 OFFCURVE",
"965 148 OFFCURVE",
"862 148 CURVE SMOOTH",
"759 148 OFFCURVE",
"692 171 OFFCURVE",
"652 231 CURVE SMOOTH",
"611 290 OFFCURVE",
"596 383 OFFCURVE",
"596 523 CURVE",
"100 523 LINE",
"100 359 LINE",
"420 359 LINE",
"440 178 OFFCURVE",
"509 69 OFFCURVE",
"628 17 CURVE",
"628 -325 LINE"
);
}
);
width = 2025;
}
);
note = g172;
},
{
glyphname = g173;
lastChange = "2016-11-10 14:09:55 +0000";
layers = (
{
layerId = "614620BD-4CC0-4507-9D91-582C8BAD68CE";
paths = (
{
closed = 1;
nodes = (
"514 0 LINE",
"514 366 LINE",
"963 366 LINE",
"963 682 LINE",
"1042 698 OFFCURVE",
"1115 737 OFFCURVE",
"1172 793 CURVE SMOOTH",
"1229 848 OFFCURVE",
"1269 918 OFFCURVE",
"1284 998 CURVE",
"1692 998 LINE",
"1692 1162 LINE",
"1283 1162 LINE",
"1264 1251 OFFCURVE",
"1212 1332 OFFCURVE",
"1140 1389 CURVE SMOOTH",
"1067 1446 OFFCURVE",
"974 1482 OFFCURVE",
"871 1482 CURVE SMOOTH",
"771 1482 OFFCURVE",
"678 1447 OFFCURVE",
"605 1390 CURVE SMOOTH",
"532 1333 OFFCURVE",
"479 1253 OFFCURVE",
"459 1162 CURVE",
"50 1162 LINE",
"50 998 LINE",
"457 998 LINE",
"472 918 OFFCURVE",
"514 848 OFFCURVE",
"571 793 CURVE SMOOTH",
"628 737 OFFCURVE",
"702 698 OFFCURVE",
"779 682 CURVE",
"779 530 LINE",
"330 530 LINE",
"330 0 LINE"
);
},
{
closed = 1;
nodes = (
"685 879 OFFCURVE",
"625 968 OFFCURVE",
"625 1076 CURVE SMOOTH",
"625 1131 OFFCURVE",
"641 1181 OFFCURVE",
"669 1222 CURVE SMOOTH",
"697 1263 OFFCURVE",
"737 1294 OFFCURVE",
"785 1311 CURVE",
"785 844 LINE"
);
},
{
closed = 1;
nodes = (
"957 1311 LINE",
"1005 1294 OFFCURVE",
"1045 1263 OFFCURVE",
"1073 1223 CURVE SMOOTH",
"1101 1182 OFFCURVE",
"1117 1132 OFFCURVE",
"1117 1076 CURVE SMOOTH",
"1117 968 OFFCURVE",
"1057 879 OFFCURVE",
"957 844 CURVE"
);
}
);
width = 1742;
}
);
note = g173;
},
{
glyphname = g174;
lastChange = "2016-11-10 14:09:55 +0000";
layers = (
{
layerId = "614620BD-4CC0-4507-9D91-582C8BAD68CE";
paths = (
{
closed = 1;
nodes = (
"514 0 LINE",
"514 366 LINE",
"963 366 LINE",
"963 682 LINE",
"1042 698 OFFCURVE",
"1115 737 OFFCURVE",
"1172 793 CURVE SMOOTH",
"1229 848 OFFCURVE",
"1269 918 OFFCURVE",
"1284 998 CURVE",
"1692 998 LINE",
"1692 1162 LINE",
"1283 1162 LINE",
"1264 1251 OFFCURVE",
"1212 1332 OFFCURVE",
"1140 1389 CURVE SMOOTH",
"1067 1446 OFFCURVE",
"974 1482 OFFCURVE",
"871 1482 CURVE SMOOTH",
"808 1482 OFFCURVE",
"744 1468 OFFCURVE",
"686 1441 CURVE SMOOTH",
"628 1413 OFFCURVE",
"576 1374 OFFCURVE",
"537 1326 CURVE",
"50 1326 LINE",
"50 1162 LINE",
"459 1162 LINE",
"453 1134 OFFCURVE",
"450 1106 OFFCURVE",
"450 1077 CURVE SMOOTH",
"450 1048 OFFCURVE",
"452 1021 OFFCURVE",
"457 998 CURVE",
"50 998 LINE",
"50 834 LINE",
"533 834 LINE",
"544 821 LINE SMOOTH",
"607 748 OFFCURVE",
"685 702 OFFCURVE",
"779 682 CURVE",
"779 530 LINE",
"330 530 LINE",
"330 0 LINE"
);
},
{
closed = 1;
nodes = (
"685 879 OFFCURVE",
"625 968 OFFCURVE",
"625 1076 CURVE SMOOTH",
"625 1131 OFFCURVE",
"641 1181 OFFCURVE",
"669 1222 CURVE SMOOTH",
"697 1263 OFFCURVE",
"737 1294 OFFCURVE",
"785 1311 CURVE",
"785 844 LINE"
);
},
{
closed = 1;
nodes = (
"957 1311 LINE",
"1005 1294 OFFCURVE",
"1045 1263 OFFCURVE",
"1073 1223 CURVE SMOOTH",
"1101 1182 OFFCURVE",
"1117 1132 OFFCURVE",
"1117 1076 CURVE SMOOTH",
"1117 968 OFFCURVE",
"1057 879 OFFCURVE",
"957 844 CURVE"
);
}
);
width = 1742;
}
);
note = g174;
},
{
glyphname = g175;
lastChange = "2016-11-10 14:09:55 +0000";
layers = (
{
layerId = "614620BD-4CC0-4507-9D91-582C8BAD68CE";
paths = (
{
closed = 1;
nodes = (
"364 0 LINE",
"364 249 LINE SMOOTH",
"364 429 OFFCURVE",
"426 504 OFFCURVE",
"610 504 CURVE SMOOTH",
"660 504 OFFCURVE",
"704 498 OFFCURVE",
"742 485 CURVE",
"742 0 LINE",
"926 0 LINE",
"926 900 LINE",
"754 900 LINE SMOOTH",
"649 900 OFFCURVE",
"584 944 OFFCURVE",
"559 1019 CURVE",
"926 1019 LINE",
"926 1183 LINE",
"559 1183 LINE",
"582 1262 OFFCURVE",
"643 1298 OFFCURVE",
"754 1298 CURVE SMOOTH",
"926 1298 LINE",
"926 1462 LINE",
"750 1462 LINE SMOOTH",
"537 1462 OFFCURVE",
"402 1367 OFFCURVE",
"371 1183 CURVE",
"50 1183 LINE",
"50 1019 LINE",
"370 1019 LINE",
"398 844 OFFCURVE",
"527 739 OFFCURVE",
"742 736 CURVE",
"742 652 LINE",
"690 667 OFFCURVE",
"639 675 OFFCURVE",
"588 675 CURVE SMOOTH",
"307 675 OFFCURVE",
"180 551 OFFCURVE",
"180 284 CURVE SMOOTH",
"180 0 LINE"
);
}
);
width = 1126;
}
);
note = g175;
},
{
glyphname = g176;
lastChange = "2016-11-10 14:09:55 +0000";
layers = (
{
layerId = "614620BD-4CC0-4507-9D91-582C8BAD68CE";
paths = (
{
closed = 1;
nodes = (
"364 0 LINE",
"364 249 LINE SMOOTH",
"364 429 OFFCURVE",
"426 504 OFFCURVE",
"610 504 CURVE SMOOTH",
"660 504 OFFCURVE",
"704 498 OFFCURVE",
"742 485 CURVE",
"742 0 LINE",
"926 0 LINE",
"926 900 LINE",
"754 900 LINE SMOOTH",
"649 900 OFFCURVE",
"584 944 OFFCURVE",
"559 1019 CURVE",
"926 1019 LINE",
"926 1183 LINE",
"559 1183 LINE",
"582 1262 OFFCURVE",
"643 1298 OFFCURVE",
"754 1298 CURVE SMOOTH",
"926 1298 LINE",
"926 1462 LINE",
"750 1462 LINE SMOOTH",
"613 1462 OFFCURVE",
"512 1423 OFFCURVE",
"445 1347 CURVE",
"50 1347 LINE",
"50 1183 LINE",
"371 1183 LINE",
"366 1155 OFFCURVE",
"364 1126 OFFCURVE",
"364 1095 CURVE SMOOTH",
"364 1068 OFFCURVE",
"366 1043 OFFCURVE",
"370 1019 CURVE",
"50 1019 LINE",
"50 855 LINE",
"442 855 LINE",
"506 779 OFFCURVE",
"606 737 OFFCURVE",
"742 736 CURVE",
"742 652 LINE",
"690 667 OFFCURVE",
"639 675 OFFCURVE",
"588 675 CURVE SMOOTH",
"307 675 OFFCURVE",
"180 551 OFFCURVE",
"180 284 CURVE SMOOTH",
"180 0 LINE"
);
}
);
width = 1126;
}
);
note = g176;
},
{
glyphname = g177;
lastChange = "2016-11-10 14:09:55 +0000";
layers = (
{
layerId = "614620BD-4CC0-4507-9D91-582C8BAD68CE";
paths = (
{
closed = 1;
nodes = (
"1227 0 LINE",
"1227 162 LINE",
"624 162 LINE",
"624 1018 LINE SMOOTH",
"624 1127 OFFCURVE",
"638 1203 OFFCURVE",
"672 1249 CURVE SMOOTH",
"706 1295 OFFCURVE",
"758 1314 OFFCURVE",
"838 1314 CURVE SMOOTH",
"915 1314 OFFCURVE",
"967 1296 OFFCURVE",
"999 1249 CURVE SMOOTH",
"1031 1202 OFFCURVE",
"1044 1128 OFFCURVE",
"1044 1016 CURVE SMOOTH",
"1044 987 LINE",
"1618 987 LINE",
"1618 1151 LINE",
"1219 1151 LINE",
"1203 1270 OFFCURVE",
"1164 1354 OFFCURVE",
"1100 1408 CURVE SMOOTH",
"1035 1462 OFFCURVE",
"944 1486 OFFCURVE",
"827 1486 CURVE SMOOTH",
"710 1486 OFFCURVE",
"623 1461 OFFCURVE",
"561 1406 CURVE SMOOTH",
"499 1351 OFFCURVE",
"463 1268 OFFCURVE",
"448 1151 CURVE",
"50 1151 LINE",
"50 987 LINE",
"440 987 LINE",
"440 162 LINE",
"203 162 LINE",
"203 0 LINE"
);
}
);
width = 1668;
}
);
note = g177;
},
{
glyphname = g178;
lastChange = "2016-11-10 14:09:55 +0000";
layers = (
{
layerId = "614620BD-4CC0-4507-9D91-582C8BAD68CE";
paths = (
{
closed = 1;
nodes = (
"1227 0 LINE",
"1227 162 LINE",
"624 162 LINE",
"624 1018 LINE SMOOTH",
"624 1127 OFFCURVE",
"638 1203 OFFCURVE",
"672 1249 CURVE SMOOTH",
"706 1295 OFFCURVE",
"758 1314 OFFCURVE",
"838 1314 CURVE SMOOTH",
"915 1314 OFFCURVE",
"967 1296 OFFCURVE",
"999 1249 CURVE SMOOTH",
"1031 1202 OFFCURVE",
"1044 1128 OFFCURVE",
"1044 1016 CURVE SMOOTH",
"1044 987 LINE",
"1618 987 LINE",
"1618 1151 LINE",
"1219 1151 LINE",
"1203 1270 OFFCURVE",
"1164 1354 OFFCURVE",
"1100 1408 CURVE SMOOTH",
"1035 1462 OFFCURVE",
"944 1486 OFFCURVE",
"827 1486 CURVE SMOOTH",
"658 1486 OFFCURVE",
"547 1429 OFFCURVE",
"492 1315 CURVE",
"50 1315 LINE",
"50 1151 LINE",
"448 1151 LINE",
"441 1108 OFFCURVE",
"440 1063 OFFCURVE",
"440 1012 CURVE SMOOTH",
"440 987 LINE",
"50 987 LINE",
"50 823 LINE",
"440 823 LINE",
"440 162 LINE",
"203 162 LINE",
"203 0 LINE"
);
}
);
width = 1668;
}
);
note = g178;
},
{
glyphname = g179;
lastChange = "2016-11-10 14:09:55 +0000";
layers = (
{
layerId = "614620BD-4CC0-4507-9D91-582C8BAD68CE";
paths = (
{
closed = 1;
nodes = (
"1124 -325 LINE",
"1124 162 LINE",
"521 162 LINE",
"521 1018 LINE SMOOTH",
"521 1127 OFFCURVE",
"535 1203 OFFCURVE",
"569 1249 CURVE SMOOTH",
"603 1295 OFFCURVE",
"655 1314 OFFCURVE",
"735 1314 CURVE SMOOTH",
"812 1314 OFFCURVE",
"864 1296 OFFCURVE",
"896 1249 CURVE SMOOTH",
"928 1202 OFFCURVE",
"941 1128 OFFCURVE",
"941 1016 CURVE SMOOTH",
"941 987 LINE",
"1125 987 LINE",
"1125 1016 LINE SMOOTH",
"1125 1185 OFFCURVE",
"1094 1303 OFFCURVE",
"1028 1379 CURVE SMOOTH",
"962 1454 OFFCURVE",
"861 1486 OFFCURVE",
"724 1486 CURVE SMOOTH",
"588 1486 OFFCURVE",
"491 1452 OFFCURVE",
"428 1376 CURVE SMOOTH",
"365 1300 OFFCURVE",
"337 1181 OFFCURVE",
"337 1012 CURVE SMOOTH",
"337 162 LINE",
"100 162 LINE",
"100 0 LINE",
"960 0 LINE",
"960 -325 LINE"
);
}
);
width = 1285;
}
);
note = g179;
},
{
glyphname = g180;
lastChange = "2016-11-10 14:09:55 +0000";
layers = (
{
layerId = "614620BD-4CC0-4507-9D91-582C8BAD68CE";
paths = (
{
closed = 1;
nodes = (
"834 -325 LINE",
"834 0 LINE",
"960 0 LINE",
"960 -325 LINE",
"1124 -325 LINE",
"1124 162 LINE",
"521 162 LINE",
"521 1018 LINE SMOOTH",
"521 1127 OFFCURVE",
"535 1203 OFFCURVE",
"569 1249 CURVE SMOOTH",
"603 1295 OFFCURVE",
"655 1314 OFFCURVE",
"735 1314 CURVE SMOOTH",
"812 1314 OFFCURVE",
"864 1296 OFFCURVE",
"896 1249 CURVE SMOOTH",
"928 1202 OFFCURVE",
"941 1128 OFFCURVE",
"941 1016 CURVE SMOOTH",
"941 987 LINE",
"1125 987 LINE",
"1125 1016 LINE SMOOTH",
"1125 1185 OFFCURVE",
"1094 1303 OFFCURVE",
"1028 1379 CURVE SMOOTH",
"962 1454 OFFCURVE",
"861 1486 OFFCURVE",
"724 1486 CURVE SMOOTH",
"588 1486 OFFCURVE",
"491 1452 OFFCURVE",
"428 1376 CURVE SMOOTH",
"365 1300 OFFCURVE",
"337 1181 OFFCURVE",
"337 1012 CURVE SMOOTH",
"337 162 LINE",
"100 162 LINE",
"100 0 LINE",
"670 0 LINE",
"670 -325 LINE"
);
}
);
width = 1285;
}
);
note = g180;
},
{
glyphname = g181;
lastChange = "2016-11-10 14:09:55 +0000";
layers = (
{
layerId = "614620BD-4CC0-4507-9D91-582C8BAD68CE";
paths = (
{
closed = 1;
nodes = (
"206 984 OFFCURVE",
"254 1038 OFFCURVE",
"254 1123 CURVE SMOOTH",
"254 1212 OFFCURVE",
"209 1262 OFFCURVE",
"125 1262 CURVE SMOOTH",
"42 1262 OFFCURVE",
"0 1211 OFFCURVE",
"0 1123 CURVE SMOOTH",
"0 1036 OFFCURVE",
"46 984 OFFCURVE",
"125 984 CURVE SMOOTH"
);
}
